%TF.GenerationSoftware,KiCad,Pcbnew,8.0.1*%
%TF.CreationDate,2024-05-16T14:55:53+07:00*%
%TF.ProjectId,H743_LCD_dev,48373433-5f4c-4434-945f-6465762e6b69,rev?*%
%TF.SameCoordinates,Original*%
%TF.FileFunction,Paste,Top*%
%TF.FilePolarity,Positive*%
%FSLAX46Y46*%
G04 Gerber Fmt 4.6, Leading zero omitted, Abs format (unit mm)*
G04 Created by KiCad (PCBNEW 8.0.1) date 2024-05-16 14:55:53*
%MOMM*%
%LPD*%
G01*
G04 APERTURE LIST*
G04 Aperture macros list*
%AMRoundRect*
0 Rectangle with rounded corners*
0 $1 Rounding radius*
0 $2 $3 $4 $5 $6 $7 $8 $9 X,Y pos of 4 corners*
0 Add a 4 corners polygon primitive as box body*
4,1,4,$2,$3,$4,$5,$6,$7,$8,$9,$2,$3,0*
0 Add four circle primitives for the rounded corners*
1,1,$1+$1,$2,$3*
1,1,$1+$1,$4,$5*
1,1,$1+$1,$6,$7*
1,1,$1+$1,$8,$9*
0 Add four rect primitives between the rounded corners*
20,1,$1+$1,$2,$3,$4,$5,0*
20,1,$1+$1,$4,$5,$6,$7,0*
20,1,$1+$1,$6,$7,$8,$9,0*
20,1,$1+$1,$8,$9,$2,$3,0*%
G04 Aperture macros list end*
%ADD10C,0.010000*%
%ADD11RoundRect,0.150000X0.587500X0.150000X-0.587500X0.150000X-0.587500X-0.150000X0.587500X-0.150000X0*%
%ADD12RoundRect,0.225000X-0.225000X-0.250000X0.225000X-0.250000X0.225000X0.250000X-0.225000X0.250000X0*%
%ADD13R,1.400000X4.200000*%
%ADD14RoundRect,0.140000X0.140000X0.170000X-0.140000X0.170000X-0.140000X-0.170000X0.140000X-0.170000X0*%
%ADD15RoundRect,0.250000X0.650000X-0.325000X0.650000X0.325000X-0.650000X0.325000X-0.650000X-0.325000X0*%
%ADD16RoundRect,0.135000X0.135000X0.185000X-0.135000X0.185000X-0.135000X-0.185000X0.135000X-0.185000X0*%
%ADD17RoundRect,0.135000X0.185000X-0.135000X0.185000X0.135000X-0.185000X0.135000X-0.185000X-0.135000X0*%
%ADD18RoundRect,0.140000X0.170000X-0.140000X0.170000X0.140000X-0.170000X0.140000X-0.170000X-0.140000X0*%
%ADD19RoundRect,0.135000X-0.185000X0.135000X-0.185000X-0.135000X0.185000X-0.135000X0.185000X0.135000X0*%
%ADD20R,0.600000X1.550000*%
%ADD21R,1.200000X1.800000*%
%ADD22R,1.200000X0.700000*%
%ADD23R,0.800000X1.000000*%
%ADD24R,1.200000X1.000000*%
%ADD25R,2.800000X1.000000*%
%ADD26R,1.900000X1.300000*%
%ADD27RoundRect,0.140000X-0.140000X-0.170000X0.140000X-0.170000X0.140000X0.170000X-0.140000X0.170000X0*%
%ADD28R,0.600000X1.100000*%
%ADD29RoundRect,0.150000X0.512500X0.150000X-0.512500X0.150000X-0.512500X-0.150000X0.512500X-0.150000X0*%
%ADD30RoundRect,0.135000X-0.135000X-0.185000X0.135000X-0.185000X0.135000X0.185000X-0.135000X0.185000X0*%
%ADD31R,0.740000X2.400000*%
%ADD32RoundRect,0.243750X-0.456250X0.243750X-0.456250X-0.243750X0.456250X-0.243750X0.456250X0.243750X0*%
%ADD33RoundRect,0.150000X0.150000X-0.825000X0.150000X0.825000X-0.150000X0.825000X-0.150000X-0.825000X0*%
%ADD34RoundRect,0.140000X-0.170000X0.140000X-0.170000X-0.140000X0.170000X-0.140000X0.170000X0.140000X0*%
%ADD35RoundRect,0.250000X0.475000X-0.250000X0.475000X0.250000X-0.475000X0.250000X-0.475000X-0.250000X0*%
%ADD36RoundRect,0.100000X-0.225000X-0.100000X0.225000X-0.100000X0.225000X0.100000X-0.225000X0.100000X0*%
%ADD37RoundRect,0.225000X0.250000X-0.225000X0.250000X0.225000X-0.250000X0.225000X-0.250000X-0.225000X0*%
%ADD38R,1.050000X0.650000*%
%ADD39R,0.458000X1.510000*%
%ADD40R,0.600000X1.240000*%
%ADD41R,0.300000X1.240000*%
%ADD42RoundRect,0.112500X-0.187500X-0.112500X0.187500X-0.112500X0.187500X0.112500X-0.187500X0.112500X0*%
%ADD43R,1.150000X1.000000*%
%ADD44RoundRect,0.150000X0.150000X-0.587500X0.150000X0.587500X-0.150000X0.587500X-0.150000X-0.587500X0*%
%ADD45R,1.800000X0.700000*%
%ADD46R,2.200000X1.600000*%
%ADD47RoundRect,0.018900X0.411100X0.116100X-0.411100X0.116100X-0.411100X-0.116100X0.411100X-0.116100X0*%
%ADD48RoundRect,0.018900X-0.116100X0.411100X-0.116100X-0.411100X0.116100X-0.411100X0.116100X0.411100X0*%
%ADD49RoundRect,0.018900X-0.411100X-0.116100X0.411100X-0.116100X0.411100X0.116100X-0.411100X0.116100X0*%
%ADD50RoundRect,0.018900X0.116100X-0.411100X0.116100X0.411100X-0.116100X0.411100X-0.116100X-0.411100X0*%
%ADD51RoundRect,0.250000X0.450000X-0.262500X0.450000X0.262500X-0.450000X0.262500X-0.450000X-0.262500X0*%
%ADD52RoundRect,0.225000X0.225000X0.375000X-0.225000X0.375000X-0.225000X-0.375000X0.225000X-0.375000X0*%
%ADD53RoundRect,0.250000X0.615000X-0.435000X0.615000X0.435000X-0.615000X0.435000X-0.615000X-0.435000X0*%
%ADD54RoundRect,0.125000X0.125000X-0.200000X0.125000X0.200000X-0.125000X0.200000X-0.125000X-0.200000X0*%
%ADD55RoundRect,0.150000X0.150000X-0.650000X0.150000X0.650000X-0.150000X0.650000X-0.150000X-0.650000X0*%
%ADD56R,0.250000X1.100000*%
%ADD57R,1.700000X1.500000*%
%ADD58RoundRect,0.225000X-0.250000X0.225000X-0.250000X-0.225000X0.250000X-0.225000X0.250000X0.225000X0*%
%ADD59RoundRect,0.175000X-0.175000X-0.325000X0.175000X-0.325000X0.175000X0.325000X-0.175000X0.325000X0*%
%ADD60RoundRect,0.150000X-0.200000X-0.150000X0.200000X-0.150000X0.200000X0.150000X-0.200000X0.150000X0*%
%ADD61RoundRect,0.075000X-0.075000X0.662500X-0.075000X-0.662500X0.075000X-0.662500X0.075000X0.662500X0*%
%ADD62RoundRect,0.075000X-0.662500X0.075000X-0.662500X-0.075000X0.662500X-0.075000X0.662500X0.075000X0*%
%ADD63R,1.300000X4.500000*%
%ADD64R,1.800000X3.900000*%
G04 APERTURE END LIST*
D10*
%TO.C,U6*%
X120185500Y-69364900D02*
X119407500Y-69364900D01*
X119407500Y-68586900D01*
X120185500Y-68586900D01*
X120185500Y-69364900D01*
G36*
X120185500Y-69364900D02*
G01*
X119407500Y-69364900D01*
X119407500Y-68586900D01*
X120185500Y-68586900D01*
X120185500Y-69364900D01*
G37*
%TD*%
D11*
%TO.C,D7*%
X174952900Y-61316150D03*
X174952900Y-59416150D03*
X173077900Y-60366150D03*
%TD*%
D12*
%TO.C,C50*%
X141710100Y-119176800D03*
X143260100Y-119176800D03*
%TD*%
D13*
%TO.C,L2*%
X126807800Y-54690800D03*
X123107800Y-54690800D03*
%TD*%
D14*
%TO.C,C40*%
X147575100Y-73185700D03*
X146615100Y-73185700D03*
%TD*%
D15*
%TO.C,C43*%
X174879000Y-119915200D03*
X174879000Y-116965200D03*
%TD*%
D16*
%TO.C,R19*%
X163679600Y-80111600D03*
X162659600Y-80111600D03*
%TD*%
D17*
%TO.C,R31*%
X173329600Y-72493600D03*
X173329600Y-71473600D03*
%TD*%
D18*
%TO.C,C28*%
X114960400Y-116177000D03*
X114960400Y-115217000D03*
%TD*%
D19*
%TO.C,R1*%
X174472600Y-81485800D03*
X174472600Y-82505800D03*
%TD*%
D20*
%TO.C,J5*%
X139710100Y-121063000D03*
X140710100Y-121063000D03*
X141710100Y-121063000D03*
X142710100Y-121063000D03*
D21*
X138410100Y-124938000D03*
X144010100Y-124938000D03*
%TD*%
D16*
%TO.C,R15*%
X123758503Y-69225900D03*
X122738503Y-69225900D03*
%TD*%
D17*
%TO.C,R23*%
X169353866Y-54358000D03*
X169353866Y-53338000D03*
%TD*%
D22*
%TO.C,J1*%
X165862000Y-101475000D03*
X165862000Y-102575000D03*
X165862000Y-103675000D03*
X165862000Y-104775000D03*
X165862000Y-105875000D03*
X165862000Y-106975000D03*
X165862000Y-108075000D03*
X165862000Y-109175000D03*
X165862000Y-110125000D03*
D23*
X176362000Y-111075000D03*
D24*
X170162000Y-111075000D03*
D25*
X180512000Y-111075000D03*
D24*
X165862000Y-99925000D03*
D26*
X180962000Y-97575000D03*
%TD*%
D27*
%TO.C,C10*%
X151539000Y-74650600D03*
X152499000Y-74650600D03*
%TD*%
D18*
%TO.C,C27*%
X114960400Y-110419667D03*
X114960400Y-109459667D03*
%TD*%
D28*
%TO.C,Y2*%
X154737700Y-71215200D03*
X156137700Y-71215200D03*
%TD*%
D29*
%TO.C,U8*%
X142921300Y-112081600D03*
X142921300Y-111131600D03*
X142921300Y-110181600D03*
X140646300Y-110181600D03*
X140646300Y-112081600D03*
%TD*%
D30*
%TO.C,R16*%
X122738503Y-70232501D03*
X123758503Y-70232501D03*
%TD*%
D31*
%TO.C,J7*%
X156235400Y-119735600D03*
X156235400Y-123635600D03*
X154965400Y-119735600D03*
X154965400Y-123635600D03*
X153695400Y-119735600D03*
X153695400Y-123635600D03*
X152425400Y-119735600D03*
X152425400Y-123635600D03*
X151155400Y-119735600D03*
X151155400Y-123635600D03*
X149885400Y-119735600D03*
X149885400Y-123635600D03*
X148615400Y-119735600D03*
X148615400Y-123635600D03*
%TD*%
D32*
%TO.C,D4*%
X135483700Y-110214100D03*
X135483700Y-112089100D03*
%TD*%
D17*
%TO.C,R22*%
X146439600Y-111641600D03*
X146439600Y-110621600D03*
%TD*%
D33*
%TO.C,U7*%
X176146000Y-71766200D03*
X177416000Y-71766200D03*
X178686000Y-71766200D03*
X179956000Y-71766200D03*
X179956000Y-66816200D03*
X178686000Y-66816200D03*
X177416000Y-66816200D03*
X176146000Y-66816200D03*
%TD*%
D34*
%TO.C,C8*%
X163042600Y-90194400D03*
X163042600Y-91154400D03*
%TD*%
D16*
%TO.C,R28*%
X120015000Y-57215640D03*
X118995000Y-57215640D03*
%TD*%
D35*
%TO.C,C44*%
X138665900Y-112081600D03*
X138665900Y-110181600D03*
%TD*%
D18*
%TO.C,C14*%
X137312400Y-79857600D03*
X137312400Y-78897600D03*
%TD*%
D17*
%TO.C,R25*%
X121320440Y-59745400D03*
X121320440Y-58725400D03*
%TD*%
D14*
%TO.C,C5*%
X147433800Y-100326200D03*
X146473800Y-100326200D03*
%TD*%
D18*
%TO.C,C2*%
X118887100Y-80138600D03*
X118887100Y-79178600D03*
%TD*%
D14*
%TO.C,C38*%
X124567100Y-95478600D03*
X123607100Y-95478600D03*
%TD*%
D12*
%TO.C,C23*%
X119046500Y-66117701D03*
X120596500Y-66117701D03*
%TD*%
D16*
%TO.C,R14*%
X123758503Y-68225900D03*
X122738503Y-68225900D03*
%TD*%
D18*
%TO.C,C15*%
X137302100Y-86424400D03*
X137302100Y-85464400D03*
%TD*%
D36*
%TO.C,U5*%
X124007800Y-58445400D03*
X124007800Y-59095400D03*
X124007800Y-59745400D03*
X125907800Y-59745400D03*
X125907800Y-58445400D03*
%TD*%
D18*
%TO.C,C9*%
X145203800Y-75130600D03*
X145203800Y-74170600D03*
%TD*%
D14*
%TO.C,C7*%
X159433800Y-100326200D03*
X158473800Y-100326200D03*
%TD*%
D27*
%TO.C,C39*%
X148365100Y-73185700D03*
X149325100Y-73185700D03*
%TD*%
D34*
%TO.C,C13*%
X163042600Y-85194400D03*
X163042600Y-86154400D03*
%TD*%
D18*
%TO.C,C12*%
X163042600Y-78924400D03*
X163042600Y-77964400D03*
%TD*%
%TO.C,C1*%
X108487100Y-80138600D03*
X108487100Y-79178600D03*
%TD*%
D37*
%TO.C,C46*%
X130352800Y-51722800D03*
X130352800Y-50172800D03*
%TD*%
D18*
%TO.C,C49*%
X122574120Y-59745400D03*
X122574120Y-58785400D03*
%TD*%
D16*
%TO.C,R12*%
X174425300Y-122581900D03*
X173405300Y-122581900D03*
%TD*%
%TO.C,R29*%
X128771400Y-59745400D03*
X127751400Y-59745400D03*
%TD*%
D38*
%TO.C,SW3*%
X113030000Y-111014667D03*
X108880000Y-111014667D03*
X113030000Y-108864667D03*
X108880000Y-108864667D03*
%TD*%
D35*
%TO.C,C45*%
X147977500Y-112081600D03*
X147977500Y-110181600D03*
%TD*%
D39*
%TO.C,U2*%
X129287100Y-81924400D03*
X128487100Y-81924400D03*
X127687100Y-81924400D03*
X126887100Y-81924400D03*
X126087100Y-81924400D03*
X125287100Y-81924400D03*
X124487100Y-81924400D03*
X123687100Y-81924400D03*
X122887100Y-81924400D03*
X122087100Y-81924400D03*
X121287100Y-81924400D03*
X120487100Y-81924400D03*
X119687100Y-81924400D03*
X118887100Y-81924400D03*
X118087100Y-81924400D03*
X117287100Y-81924400D03*
X116487100Y-81924400D03*
X115687100Y-81924400D03*
X114887100Y-81924400D03*
X114087100Y-81924400D03*
X113287100Y-81924400D03*
X112487100Y-81924400D03*
X111687100Y-81924400D03*
X110887100Y-81924400D03*
X110087100Y-81924400D03*
X109287100Y-81924400D03*
X108487100Y-81924400D03*
X108487100Y-93424400D03*
X109287100Y-93424400D03*
X110087100Y-93424400D03*
X110887100Y-93424400D03*
X111687100Y-93424400D03*
X112487100Y-93424400D03*
X113287100Y-93424400D03*
X114087100Y-93424400D03*
X114887100Y-93424400D03*
X115687100Y-93424400D03*
X116487100Y-93424400D03*
X117287100Y-93424400D03*
X118087100Y-93424400D03*
X118887100Y-93424400D03*
X119687100Y-93424400D03*
X120487100Y-93424400D03*
X121287100Y-93424400D03*
X122087100Y-93424400D03*
X122887100Y-93424400D03*
X123687100Y-93424400D03*
X124487100Y-93424400D03*
X125287100Y-93424400D03*
X126087100Y-93424400D03*
X126887100Y-93424400D03*
X127687100Y-93424400D03*
X128487100Y-93424400D03*
X129287100Y-93424400D03*
%TD*%
D40*
%TO.C,J4*%
X164771700Y-119826900D03*
X165571700Y-119826900D03*
D41*
X166721700Y-119826900D03*
X167721700Y-119826900D03*
X168221700Y-119826900D03*
X169221700Y-119826900D03*
D40*
X170371700Y-119826900D03*
X171171700Y-119826900D03*
X171171700Y-119826900D03*
X170371700Y-119826900D03*
D41*
X169721700Y-119826900D03*
X168721700Y-119826900D03*
X167221700Y-119826900D03*
X166221700Y-119826900D03*
D40*
X165571700Y-119826900D03*
X164771700Y-119826900D03*
%TD*%
D14*
%TO.C,C37*%
X120167100Y-95478600D03*
X119207100Y-95478600D03*
%TD*%
%TO.C,C3*%
X122167100Y-79857600D03*
X121207100Y-79857600D03*
%TD*%
D42*
%TO.C,D10*%
X152899400Y-113976400D03*
X154999400Y-113976400D03*
%TD*%
D32*
%TO.C,D6*%
X162382200Y-49786300D03*
X162382200Y-51661300D03*
%TD*%
D12*
%TO.C,C26*%
X143233200Y-72923400D03*
X144783200Y-72923400D03*
%TD*%
D38*
%TO.C,SW1*%
X113030000Y-99500000D03*
X108880000Y-99500000D03*
X113030000Y-97350000D03*
X108880000Y-97350000D03*
%TD*%
D43*
%TO.C,Y1*%
X147095100Y-71915200D03*
X148845100Y-71915200D03*
X148845100Y-70515200D03*
X147095100Y-70515200D03*
%TD*%
D19*
%TO.C,R2*%
X173913800Y-91870400D03*
X173913800Y-92890400D03*
%TD*%
D44*
%TO.C,D9*%
X125135600Y-109141500D03*
X127035600Y-109141500D03*
X126085600Y-107266500D03*
%TD*%
D38*
%TO.C,SW4*%
X113030000Y-116772000D03*
X108880000Y-116772000D03*
X113030000Y-114622000D03*
X108880000Y-114622000D03*
%TD*%
D19*
%TO.C,R17*%
X146913600Y-74318400D03*
X146913600Y-75338400D03*
%TD*%
D16*
%TO.C,R26*%
X120015000Y-59740800D03*
X118995000Y-59740800D03*
%TD*%
D17*
%TO.C,R21*%
X137129300Y-111641600D03*
X137129300Y-110621600D03*
%TD*%
D30*
%TO.C,R8*%
X163345400Y-103675000D03*
X164365400Y-103675000D03*
%TD*%
D18*
%TO.C,C4*%
X142189200Y-75130600D03*
X142189200Y-74170600D03*
%TD*%
D45*
%TO.C,J6*%
X177497800Y-61016150D03*
X177497800Y-59766150D03*
D46*
X180197800Y-63266150D03*
X180197800Y-57516150D03*
%TD*%
D47*
%TO.C,U6*%
X121231500Y-69725900D03*
X121231500Y-69225900D03*
X121231500Y-68725900D03*
X121231500Y-68225900D03*
D48*
X120546500Y-67540900D03*
X120046500Y-67540900D03*
X119546500Y-67540900D03*
X119046500Y-67540900D03*
D49*
X118361500Y-68225900D03*
X118361500Y-68725900D03*
X118361500Y-69225900D03*
X118361500Y-69725900D03*
D50*
X119046500Y-70410900D03*
X119546500Y-70410900D03*
X120046500Y-70410900D03*
X120546500Y-70410900D03*
%TD*%
D14*
%TO.C,C41*%
X154737700Y-72612200D03*
X153777700Y-72612200D03*
%TD*%
D30*
%TO.C,R20*%
X141273800Y-108921800D03*
X142293800Y-108921800D03*
%TD*%
D27*
%TO.C,C25*%
X143233200Y-74168000D03*
X144193200Y-74168000D03*
%TD*%
D34*
%TO.C,C21*%
X173913800Y-85390400D03*
X173913800Y-86350400D03*
%TD*%
D37*
%TO.C,C19*%
X140970000Y-75130600D03*
X140970000Y-73580600D03*
%TD*%
D30*
%TO.C,R7*%
X163345400Y-108075000D03*
X164365400Y-108075000D03*
%TD*%
D17*
%TO.C,R30*%
X174371000Y-72493600D03*
X174371000Y-71473600D03*
%TD*%
D51*
%TO.C,R13*%
X176987200Y-118790200D03*
X176987200Y-116965200D03*
%TD*%
D17*
%TO.C,R32*%
X172288200Y-72493600D03*
X172288200Y-71473600D03*
%TD*%
D30*
%TO.C,R9*%
X163345400Y-102575000D03*
X164365400Y-102575000D03*
%TD*%
D52*
%TO.C,D8*%
X126620900Y-50172800D03*
X123320900Y-50172800D03*
%TD*%
D16*
%TO.C,R10*%
X164365400Y-110109000D03*
X163345400Y-110109000D03*
%TD*%
D53*
%TO.C,U1*%
X176911000Y-89990400D03*
X179061000Y-89990400D03*
X176911000Y-88290400D03*
X179061000Y-88290400D03*
D54*
X176081000Y-92890400D03*
X177351000Y-92890400D03*
X178621000Y-92890400D03*
X179891000Y-92890400D03*
X179891000Y-85390400D03*
X178621000Y-85390400D03*
X177351000Y-85390400D03*
X176081000Y-85390400D03*
%TD*%
D55*
%TO.C,U9*%
X176081000Y-82505800D03*
X177351000Y-82505800D03*
X178621000Y-82505800D03*
X179891000Y-82505800D03*
X179891000Y-75305800D03*
X178621000Y-75305800D03*
X177351000Y-75305800D03*
X176081000Y-75305800D03*
%TD*%
D14*
%TO.C,C6*%
X152933800Y-100326200D03*
X151973800Y-100326200D03*
%TD*%
D56*
%TO.C,J2*%
X153947300Y-53421500D03*
X153447300Y-53421500D03*
X152947300Y-53421500D03*
X152447300Y-53421500D03*
X151947300Y-53421500D03*
X151447300Y-53421500D03*
X150947300Y-53421500D03*
X150447300Y-53421500D03*
X149947300Y-53421500D03*
X149447300Y-53421500D03*
X148947300Y-53421500D03*
X148447300Y-53421500D03*
X147947300Y-53421500D03*
X147447300Y-53421500D03*
X146947300Y-53421500D03*
X146447300Y-53421500D03*
X145947300Y-53421500D03*
X145447300Y-53421500D03*
X144947300Y-53421500D03*
X144447300Y-53421500D03*
X143947300Y-53421500D03*
X143447300Y-53421500D03*
X142947300Y-53421500D03*
X142447300Y-53421500D03*
X141947300Y-53421500D03*
X141447300Y-53421500D03*
X140947300Y-53421500D03*
X140447300Y-53421500D03*
X139947300Y-53421500D03*
X139447300Y-53421500D03*
X138947300Y-53421500D03*
X138447300Y-53421500D03*
X137947300Y-53421500D03*
X137447300Y-53421500D03*
X136947300Y-53421500D03*
X136447300Y-53421500D03*
X135947300Y-53421500D03*
X135447300Y-53421500D03*
X134947300Y-53421500D03*
X134447300Y-53421500D03*
D57*
X155597300Y-49521500D03*
X132797300Y-49521500D03*
%TD*%
D30*
%TO.C,R11*%
X161441900Y-122581900D03*
X162461900Y-122581900D03*
%TD*%
%TO.C,R6*%
X174472600Y-64846200D03*
X175492600Y-64846200D03*
%TD*%
D37*
%TO.C,C47*%
X128752600Y-51722800D03*
X128752600Y-50172800D03*
%TD*%
D16*
%TO.C,R27*%
X120015000Y-58478220D03*
X118995000Y-58478220D03*
%TD*%
D30*
%TO.C,R5*%
X174472600Y-63627000D03*
X175492600Y-63627000D03*
%TD*%
D34*
%TO.C,C22*%
X174472600Y-75305800D03*
X174472600Y-76265800D03*
%TD*%
D18*
%TO.C,C24*%
X114960400Y-98905000D03*
X114960400Y-97945000D03*
%TD*%
D27*
%TO.C,C11*%
X156771400Y-74879200D03*
X157731400Y-74879200D03*
%TD*%
D17*
%TO.C,R18*%
X114960400Y-104699000D03*
X114960400Y-103679000D03*
%TD*%
D35*
%TO.C,C30*%
X144901700Y-112081600D03*
X144901700Y-110181600D03*
%TD*%
D18*
%TO.C,C29*%
X129287100Y-80138600D03*
X129287100Y-79178600D03*
%TD*%
D58*
%TO.C,C34*%
X136017000Y-95924400D03*
X136017000Y-97474400D03*
%TD*%
D27*
%TO.C,C42*%
X156137700Y-72612200D03*
X157097700Y-72612200D03*
%TD*%
D42*
%TO.C,D3*%
X145412100Y-113976400D03*
X147512100Y-113976400D03*
%TD*%
D14*
%TO.C,C18*%
X164335400Y-104775000D03*
X163375400Y-104775000D03*
%TD*%
%TO.C,C36*%
X126967100Y-79857600D03*
X126007100Y-79857600D03*
%TD*%
D45*
%TO.C,J8*%
X110893900Y-67831500D03*
X110893900Y-69081500D03*
D46*
X108193900Y-65581500D03*
X108193900Y-71331500D03*
%TD*%
D34*
%TO.C,C20*%
X174472600Y-66816200D03*
X174472600Y-67776200D03*
%TD*%
%TO.C,C17*%
X137302100Y-96424400D03*
X137302100Y-97384400D03*
%TD*%
D18*
%TO.C,C16*%
X137302100Y-91654400D03*
X137302100Y-90694400D03*
%TD*%
D17*
%TO.C,R24*%
X162382200Y-54358000D03*
X162382200Y-53338000D03*
%TD*%
D59*
%TO.C,D2*%
X167471700Y-115481900D03*
D60*
X167471700Y-117181900D03*
X169471700Y-117181900D03*
X169471700Y-115281900D03*
%TD*%
D32*
%TO.C,D5*%
X169353866Y-49786300D03*
X169353866Y-51661300D03*
%TD*%
D61*
%TO.C,U4*%
X159203800Y-77011900D03*
X158703800Y-77011900D03*
X158203800Y-77011900D03*
X157703800Y-77011900D03*
X157203800Y-77011900D03*
X156703800Y-77011900D03*
X156203800Y-77011900D03*
X155703800Y-77011900D03*
X155203800Y-77011900D03*
X154703800Y-77011900D03*
X154203800Y-77011900D03*
X153703800Y-77011900D03*
X153203800Y-77011900D03*
X152703800Y-77011900D03*
X152203800Y-77011900D03*
X151703800Y-77011900D03*
X151203800Y-77011900D03*
X150703800Y-77011900D03*
X150203800Y-77011900D03*
X149703800Y-77011900D03*
X149203800Y-77011900D03*
X148703800Y-77011900D03*
X148203800Y-77011900D03*
X147703800Y-77011900D03*
X147203800Y-77011900D03*
X146703800Y-77011900D03*
X146203800Y-77011900D03*
X145703800Y-77011900D03*
X145203800Y-77011900D03*
X144703800Y-77011900D03*
X144203800Y-77011900D03*
X143703800Y-77011900D03*
X143203800Y-77011900D03*
X142703800Y-77011900D03*
X142203800Y-77011900D03*
X141703800Y-77011900D03*
D62*
X139791300Y-78924400D03*
X139791300Y-79424400D03*
X139791300Y-79924400D03*
X139791300Y-80424400D03*
X139791300Y-80924400D03*
X139791300Y-81424400D03*
X139791300Y-81924400D03*
X139791300Y-82424400D03*
X139791300Y-82924400D03*
X139791300Y-83424400D03*
X139791300Y-83924400D03*
X139791300Y-84424400D03*
X139791300Y-84924400D03*
X139791300Y-85424400D03*
X139791300Y-85924400D03*
X139791300Y-86424400D03*
X139791300Y-86924400D03*
X139791300Y-87424400D03*
X139791300Y-87924400D03*
X139791300Y-88424400D03*
X139791300Y-88924400D03*
X139791300Y-89424400D03*
X139791300Y-89924400D03*
X139791300Y-90424400D03*
X139791300Y-90924400D03*
X139791300Y-91424400D03*
X139791300Y-91924400D03*
X139791300Y-92424400D03*
X139791300Y-92924400D03*
X139791300Y-93424400D03*
X139791300Y-93924400D03*
X139791300Y-94424400D03*
X139791300Y-94924400D03*
X139791300Y-95424400D03*
X139791300Y-95924400D03*
X139791300Y-96424400D03*
D61*
X141703800Y-98336900D03*
X142203800Y-98336900D03*
X142703800Y-98336900D03*
X143203800Y-98336900D03*
X143703800Y-98336900D03*
X144203800Y-98336900D03*
X144703800Y-98336900D03*
X145203800Y-98336900D03*
X145703800Y-98336900D03*
X146203800Y-98336900D03*
X146703800Y-98336900D03*
X147203800Y-98336900D03*
X147703800Y-98336900D03*
X148203800Y-98336900D03*
X148703800Y-98336900D03*
X149203800Y-98336900D03*
X149703800Y-98336900D03*
X150203800Y-98336900D03*
X150703800Y-98336900D03*
X151203800Y-98336900D03*
X151703800Y-98336900D03*
X152203800Y-98336900D03*
X152703800Y-98336900D03*
X153203800Y-98336900D03*
X153703800Y-98336900D03*
X154203800Y-98336900D03*
X154703800Y-98336900D03*
X155203800Y-98336900D03*
X155703800Y-98336900D03*
X156203800Y-98336900D03*
X156703800Y-98336900D03*
X157203800Y-98336900D03*
X157703800Y-98336900D03*
X158203800Y-98336900D03*
X158703800Y-98336900D03*
X159203800Y-98336900D03*
D62*
X161116300Y-96424400D03*
X161116300Y-95924400D03*
X161116300Y-95424400D03*
X161116300Y-94924400D03*
X161116300Y-94424400D03*
X161116300Y-93924400D03*
X161116300Y-93424400D03*
X161116300Y-92924400D03*
X161116300Y-92424400D03*
X161116300Y-91924400D03*
X161116300Y-91424400D03*
X161116300Y-90924400D03*
X161116300Y-90424400D03*
X161116300Y-89924400D03*
X161116300Y-89424400D03*
X161116300Y-88924400D03*
X161116300Y-88424400D03*
X161116300Y-87924400D03*
X161116300Y-87424400D03*
X161116300Y-86924400D03*
X161116300Y-86424400D03*
X161116300Y-85924400D03*
X161116300Y-85424400D03*
X161116300Y-84924400D03*
X161116300Y-84424400D03*
X161116300Y-83924400D03*
X161116300Y-83424400D03*
X161116300Y-82924400D03*
X161116300Y-82424400D03*
X161116300Y-81924400D03*
X161116300Y-81424400D03*
X161116300Y-80924400D03*
X161116300Y-80424400D03*
X161116300Y-79924400D03*
X161116300Y-79424400D03*
X161116300Y-78924400D03*
%TD*%
D58*
%TO.C,C35*%
X158953200Y-102374400D03*
X158953200Y-103924400D03*
%TD*%
D38*
%TO.C,SW2*%
X113030000Y-105257334D03*
X108880000Y-105257334D03*
X113030000Y-103107334D03*
X108880000Y-103107334D03*
%TD*%
D12*
%TO.C,C48*%
X127486400Y-58445400D03*
X129036400Y-58445400D03*
%TD*%
D63*
%TO.C,J9*%
X122319800Y-116644000D03*
X124819800Y-116644000D03*
X127319800Y-116644000D03*
X129819800Y-116644000D03*
D64*
X119119800Y-123444000D03*
X133019800Y-123444000D03*
%TD*%
G36*
X163685700Y-119397086D02*
G01*
X163685700Y-121455314D01*
X163685114Y-121455900D01*
X162184286Y-121455900D01*
X162183700Y-121455314D01*
X162183700Y-119397086D01*
X162184286Y-119396500D01*
X163685114Y-119396500D01*
X163685700Y-119397086D01*
G37*
G36*
X173796300Y-119397086D02*
G01*
X173796300Y-121455314D01*
X173795714Y-121455900D01*
X172294886Y-121455900D01*
X172294300Y-121455314D01*
X172294300Y-119397086D01*
X172294886Y-119396500D01*
X173795714Y-119396500D01*
X173796300Y-119397086D01*
G37*
G36*
X173796300Y-123740486D02*
G01*
X173796300Y-125519314D01*
X173795714Y-125519900D01*
X172294886Y-125519900D01*
X172294300Y-125519314D01*
X172294300Y-123740486D01*
X172294886Y-123739900D01*
X173795714Y-123739900D01*
X173796300Y-123740486D01*
G37*
G36*
X163660300Y-123740486D02*
G01*
X163660300Y-125519314D01*
X163659714Y-125519900D01*
X162158886Y-125519900D01*
X162158300Y-125519314D01*
X162158300Y-123740486D01*
X162158886Y-123739900D01*
X163659714Y-123739900D01*
X163660300Y-123740486D01*
G37*
M02*
