%TF.GenerationSoftware,KiCad,Pcbnew,8.0.1*%
%TF.CreationDate,2024-05-16T14:55:53+07:00*%
%TF.ProjectId,H743_LCD_dev,48373433-5f4c-4434-945f-6465762e6b69,rev?*%
%TF.SameCoordinates,Original*%
%TF.FileFunction,Copper,L6,Bot*%
%TF.FilePolarity,Positive*%
%FSLAX46Y46*%
G04 Gerber Fmt 4.6, Leading zero omitted, Abs format (unit mm)*
G04 Created by KiCad (PCBNEW 8.0.1) date 2024-05-16 14:55:53*
%MOMM*%
%LPD*%
G01*
G04 APERTURE LIST*
%ADD10C,0.250000*%
%TA.AperFunction,NonConductor*%
%ADD11C,0.250000*%
%TD*%
%TA.AperFunction,ComponentPad*%
%ADD12C,0.800000*%
%TD*%
%TA.AperFunction,ComponentPad*%
%ADD13C,6.400000*%
%TD*%
%TA.AperFunction,ComponentPad*%
%ADD14O,1.000000X2.100000*%
%TD*%
%TA.AperFunction,ComponentPad*%
%ADD15O,1.000000X1.800000*%
%TD*%
%TA.AperFunction,ViaPad*%
%ADD16C,0.800000*%
%TD*%
%TA.AperFunction,ViaPad*%
%ADD17C,0.350000*%
%TD*%
%TA.AperFunction,Conductor*%
%ADD18C,0.150000*%
%TD*%
G04 APERTURE END LIST*
D10*
D11*
X107713780Y-62491060D02*
X107713780Y-62681536D01*
X107713780Y-62681536D02*
X107666161Y-62776774D01*
X107666161Y-62776774D02*
X107618542Y-62824393D01*
X107618542Y-62824393D02*
X107475685Y-62919631D01*
X107475685Y-62919631D02*
X107285209Y-62967250D01*
X107285209Y-62967250D02*
X106904257Y-62967250D01*
X106904257Y-62967250D02*
X106809019Y-62919631D01*
X106809019Y-62919631D02*
X106761400Y-62872012D01*
X106761400Y-62872012D02*
X106713780Y-62776774D01*
X106713780Y-62776774D02*
X106713780Y-62586298D01*
X106713780Y-62586298D02*
X106761400Y-62491060D01*
X106761400Y-62491060D02*
X106809019Y-62443441D01*
X106809019Y-62443441D02*
X106904257Y-62395822D01*
X106904257Y-62395822D02*
X107142352Y-62395822D01*
X107142352Y-62395822D02*
X107237590Y-62443441D01*
X107237590Y-62443441D02*
X107285209Y-62491060D01*
X107285209Y-62491060D02*
X107332828Y-62586298D01*
X107332828Y-62586298D02*
X107332828Y-62776774D01*
X107332828Y-62776774D02*
X107285209Y-62872012D01*
X107285209Y-62872012D02*
X107237590Y-62919631D01*
X107237590Y-62919631D02*
X107142352Y-62967250D01*
D12*
%TO.P,H3,1,1*%
%TO.N,GND*%
X181197300Y-122941100D03*
X180494356Y-124638156D03*
X180494356Y-121244044D03*
X178797300Y-125341100D03*
D13*
X178797300Y-122941100D03*
D12*
X178797300Y-120541100D03*
X177100244Y-124638156D03*
X177100244Y-121244044D03*
X176397300Y-122941100D03*
%TD*%
%TO.P,H4,1,1*%
%TO.N,GND*%
X111997300Y-122941100D03*
X111294356Y-124638156D03*
X111294356Y-121244044D03*
X109597300Y-125341100D03*
D13*
X109597300Y-122941100D03*
D12*
X109597300Y-120541100D03*
X107900244Y-124638156D03*
X107900244Y-121244044D03*
X107197300Y-122941100D03*
%TD*%
D14*
%TO.P,J4,S1,SHIELD*%
%TO.N,/MCU/SHIELD*%
X163651700Y-120426900D03*
D15*
X163651700Y-124626900D03*
D14*
X172291700Y-120426900D03*
D15*
X172291700Y-124626900D03*
%TD*%
D12*
%TO.P,H1,1,1*%
%TO.N,GND*%
X111997300Y-51741100D03*
X111294356Y-53438156D03*
X111294356Y-50044044D03*
X109597300Y-54141100D03*
D13*
X109597300Y-51741100D03*
D12*
X109597300Y-49341100D03*
X107900244Y-53438156D03*
X107900244Y-50044044D03*
X107197300Y-51741100D03*
%TD*%
%TO.P,H2,1,1*%
%TO.N,GND*%
X181197300Y-51741100D03*
X180494356Y-53438156D03*
X180494356Y-50044044D03*
X178797300Y-54141100D03*
D13*
X178797300Y-51741100D03*
D12*
X178797300Y-49341100D03*
X177100244Y-53438156D03*
X177100244Y-50044044D03*
X176397300Y-51741100D03*
%TD*%
D16*
%TO.N,GND*%
X177497800Y-58775600D03*
%TO.N,+3V3*%
X173634400Y-59416150D03*
%TO.N,VBAT*%
X171754800Y-60366150D03*
%TO.N,GND*%
X143260100Y-118084600D03*
%TO.N,+3V3*%
X141710100Y-118084600D03*
D17*
%TO.N,/LCD/LCD_G7*%
X158177801Y-84366799D03*
%TO.N,/MCU/I2S_SDO*%
X158115000Y-83134200D03*
%TO.N,/MCU/I2S_CK*%
X158704924Y-83141322D03*
%TO.N,/LCD/LCD_B7*%
X144447300Y-52578000D03*
X154717588Y-58007412D03*
D16*
%TO.N,VDD*%
X128295400Y-56438800D03*
X128295400Y-55118000D03*
X128295400Y-53797200D03*
%TO.N,/LCD/LCD_BLK*%
X132080000Y-58420000D03*
D17*
%TO.N,GND*%
X129286000Y-94538800D03*
X144602200Y-124942600D03*
X123596400Y-96164400D03*
X165277800Y-99923600D03*
D16*
X115493800Y-58521600D03*
D17*
X145846800Y-71005700D03*
X157734000Y-74193400D03*
X149783800Y-73202800D03*
D16*
X129819400Y-113995200D03*
D17*
X136626600Y-85471000D03*
X121945400Y-68725900D03*
X180213000Y-56692800D03*
X174421800Y-123240800D03*
D16*
X176987200Y-116459000D03*
D17*
X179891000Y-93573600D03*
D16*
X174904400Y-116408200D03*
D17*
X146481800Y-101015800D03*
X128574800Y-79171800D03*
X147967700Y-69342000D03*
X126009400Y-79171800D03*
X145846800Y-71647050D03*
D16*
X172213500Y-118289300D03*
D17*
X150012400Y-72288400D03*
X149377400Y-71932800D03*
X147199350Y-69342000D03*
X160909000Y-122580400D03*
X146558000Y-70510400D03*
D16*
X153913085Y-54634000D03*
D17*
X173964600Y-67767200D03*
D16*
X177986000Y-89140400D03*
D17*
X157099000Y-71958200D03*
X180060600Y-97561400D03*
X145846800Y-72288400D03*
X136626600Y-90703400D03*
D16*
X121325600Y-57842600D03*
D17*
X179959000Y-72974200D03*
X163550600Y-91160600D03*
X146431000Y-69342000D03*
X145846800Y-69723000D03*
X180187600Y-64084200D03*
D16*
X129987000Y-58426800D03*
D17*
X153136600Y-72618600D03*
X108483400Y-78486000D03*
X115392200Y-97510600D03*
X146100800Y-73202800D03*
X109296200Y-65582800D03*
D16*
X115519200Y-61747400D03*
X128752600Y-49453800D03*
D17*
X173964600Y-76276200D03*
D16*
X153695400Y-117932200D03*
X152425400Y-117932200D03*
X146439600Y-109760000D03*
D17*
X158953200Y-104673400D03*
D16*
X150947300Y-55878600D03*
D17*
X121208800Y-79171800D03*
D16*
X147447000Y-54938800D03*
D17*
X121412000Y-66116200D03*
D16*
X138667200Y-109302800D03*
D17*
X175971200Y-111074200D03*
X153035000Y-74650600D03*
D16*
X135947300Y-52119400D03*
X167944800Y-49784000D03*
D17*
X114960400Y-103098600D03*
X136626600Y-78892400D03*
D16*
X166854100Y-115495300D03*
D17*
X137795000Y-124942600D03*
X150012400Y-70364350D03*
X172288200Y-70916800D03*
X150012400Y-69723000D03*
X108483400Y-94589600D03*
X127685800Y-94538800D03*
X137312400Y-97942400D03*
X119557800Y-79171800D03*
D16*
X135466800Y-109175800D03*
X130352800Y-49453800D03*
D17*
X148736050Y-69342000D03*
X150012400Y-71005700D03*
D16*
X144890200Y-109252000D03*
D17*
X150012400Y-71647050D03*
X163042600Y-77317600D03*
X149504400Y-69342000D03*
D16*
X164542700Y-118289300D03*
D17*
X170154600Y-110566200D03*
X179120800Y-111099600D03*
X173355000Y-86360000D03*
X151968200Y-101015800D03*
X179908200Y-83515200D03*
X136017000Y-98145600D03*
D16*
X156235400Y-125399800D03*
D17*
X158470600Y-100990400D03*
X126085600Y-106146600D03*
X109296200Y-71323200D03*
X115392200Y-109042200D03*
X163550600Y-86156800D03*
X145846800Y-70364350D03*
D16*
X141947300Y-54608600D03*
D17*
X115392200Y-114782600D03*
X145770600Y-74168000D03*
X162737800Y-104775000D03*
D16*
X115519200Y-55295800D03*
D17*
X140970000Y-72898000D03*
D16*
X163679100Y-118289300D03*
X171349900Y-118289300D03*
X147963600Y-109226600D03*
D17*
X119202200Y-96189800D03*
D16*
X164668200Y-106975000D03*
X163703000Y-49784000D03*
D17*
X123748800Y-70942200D03*
%TO.N,Net-(C34-Pad1)*%
X141224000Y-96316800D03*
X158216600Y-97256600D03*
D16*
%TO.N,VDD*%
X144373600Y-114020600D03*
X124637800Y-69215000D03*
X119049800Y-65024000D03*
X144373600Y-113131600D03*
%TO.N,+3V3*%
X135940800Y-55065800D03*
D17*
X143230600Y-72212200D03*
D16*
X129529800Y-59747600D03*
D17*
X139928600Y-74084400D03*
X107848400Y-80137000D03*
X173355000Y-85394800D03*
X113893600Y-103098600D03*
X173964600Y-66827400D03*
X122174000Y-79171800D03*
D16*
X151968955Y-52271498D03*
D17*
X126974600Y-79171800D03*
X136626600Y-86436200D03*
X136652000Y-79857600D03*
X167894000Y-71983600D03*
D16*
X154965400Y-117932200D03*
D17*
X174066200Y-63627000D03*
X145745200Y-75130600D03*
X167894000Y-69469000D03*
X173964600Y-75311000D03*
X120167400Y-96164400D03*
X124561600Y-96164400D03*
X163703000Y-78917800D03*
X162890200Y-108077000D03*
X164338000Y-105435400D03*
D16*
X138176000Y-113334800D03*
D17*
X173913800Y-91173400D03*
X136626600Y-91668600D03*
D16*
X139090400Y-113334800D03*
D17*
X147421600Y-101015800D03*
X174066200Y-64846200D03*
X167894000Y-66954400D03*
X129859626Y-79642399D03*
X119557800Y-80137000D03*
X163550600Y-85191600D03*
X137871200Y-96424400D03*
X173939200Y-81457800D03*
X163550600Y-90195400D03*
X162864800Y-110134400D03*
X159435800Y-101015800D03*
X152933400Y-101015800D03*
X151815800Y-74269600D03*
%TO.N,/LCD/LCD_SPI_DAT*%
X138447300Y-59916209D03*
X143897300Y-59916209D03*
%TO.N,/MCU/PC0*%
X143194900Y-80410000D03*
X117287100Y-80791000D03*
%TO.N,/LCD/LCD_SPI_CLK*%
X143897300Y-59366206D03*
X138947300Y-59366206D03*
%TO.N,/LCD/LCD_TP_RST*%
X152947300Y-54405400D03*
X152947300Y-57187073D03*
%TO.N,/LCD/LCD_SPI_CS*%
X139447300Y-58266200D03*
X143897300Y-58266200D03*
%TO.N,/LCD/LCD_R4*%
X138597300Y-61716209D03*
X142297300Y-61716209D03*
%TO.N,/LCD/LCD_R5*%
X149447300Y-50533600D03*
X157203800Y-78689200D03*
%TO.N,/LCD/LCD_RESET*%
X143897300Y-58816203D03*
X136947300Y-58816203D03*
%TO.N,/MCU/I2S_WS*%
X137334073Y-74085202D03*
X134289800Y-74084400D03*
%TO.N,/MCU/PC4*%
X114887100Y-80791000D03*
X137073500Y-81674400D03*
%TO.N,/MCU/PC5*%
X115687100Y-92322600D03*
X140908900Y-82924400D03*
%TO.N,/LCD/LCD_G4*%
X145947300Y-54405400D03*
X142774900Y-94424400D03*
%TO.N,/LCD/LCD_G7*%
X147447300Y-49183600D03*
%TO.N,/LCD/LCD_R6*%
X142747300Y-62166209D03*
X137247300Y-62166209D03*
%TO.N,/MCU/I2S_SDO*%
X122047000Y-69725900D03*
%TO.N,/IO/STEMMA_SDA*%
X178686000Y-68173600D03*
X145923000Y-104216200D03*
%TO.N,/IO/STEMMA_SCL*%
X179956000Y-68173600D03*
X145110200Y-104216200D03*
%TO.N,/MCU/PG4*%
X149703800Y-99460000D03*
X114087100Y-83077000D03*
%TO.N,/MCU/PG5*%
X113287100Y-83077000D03*
X150203800Y-99739400D03*
%TO.N,/MCU/PG8*%
X151703800Y-99460000D03*
X116487100Y-94583200D03*
%TO.N,/LCD/LCD_B6*%
X143947300Y-49633600D03*
X158203800Y-78689200D03*
%TO.N,/LCD/HSYNC*%
X155203800Y-78689200D03*
X141447300Y-52322600D03*
%TO.N,/LCD/LCD_B4*%
X142947300Y-50083600D03*
X157703800Y-78282800D03*
%TO.N,/LCD/LCD_G5*%
X142991557Y-94924400D03*
X146447300Y-54710200D03*
%TO.N,/LCD/LCD_B3*%
X156703800Y-78282800D03*
X142447300Y-50983600D03*
%TO.N,/MCU/I2S_SD_MODE*%
X124409200Y-68224400D03*
X141478000Y-84874400D03*
%TO.N,/MCU/I2S_CK*%
X120548400Y-71221600D03*
%TO.N,/MCU/PG15*%
X160009700Y-84924400D03*
X116487100Y-80791000D03*
%TO.N,/MCU/PE0*%
X118087100Y-80791000D03*
X160009700Y-80424400D03*
%TO.N,/MCU/PE1*%
X117287100Y-92322600D03*
X159704900Y-79924400D03*
%TO.N,/LCD/VSYNC*%
X139047300Y-60366209D03*
X140947300Y-60366209D03*
%TO.N,/LCD/LCD_G2*%
X138150600Y-60816209D03*
X141397300Y-60816209D03*
%TO.N,/LCD/LCD_G6*%
X146947300Y-51872600D03*
X155703800Y-78282800D03*
%TO.N,/LCD/LCD_G3*%
X156203800Y-78689200D03*
X145447300Y-51433600D03*
%TO.N,/LCD/LCD_R7*%
X139497300Y-62616209D03*
X143197300Y-62616209D03*
%TO.N,/LCD/LCD_R3*%
X141847300Y-61266209D03*
X137697300Y-61266209D03*
D16*
%TO.N,VBUS*%
X170638700Y-116155700D03*
X170638700Y-115292100D03*
X165812700Y-117832100D03*
X165812700Y-116968500D03*
D17*
%TO.N,/MCU/~{SPI_CS}*%
X141351000Y-97256600D03*
X173939200Y-82499200D03*
%TO.N,/MCU/SPI_CLK*%
X178621000Y-76479400D03*
X142203800Y-97256563D03*
%TO.N,/MCU/SPI_MOSI*%
X145703800Y-78536800D03*
X179891000Y-74193400D03*
%TO.N,/MCU/SPI_MISO*%
X177351000Y-81356200D03*
X145703800Y-77901800D03*
%TO.N,/LCD/LCD_BLK*%
X149703800Y-75184000D03*
%TO.N,/MCU/BOOT0*%
X115620800Y-104698800D03*
X162255200Y-81924400D03*
%TO.N,/MCU/BTN0*%
X115646200Y-110413800D03*
X148703800Y-97224800D03*
%TO.N,/MCU/SD_DAT2*%
X166827200Y-101473000D03*
X169269400Y-101473000D03*
%TO.N,/MCU/BTN1*%
X149203800Y-96843800D03*
X115646200Y-116179600D03*
%TO.N,/IO/NRST*%
X149885400Y-122072400D03*
X115570000Y-98907600D03*
X147218400Y-78105000D03*
%TO.N,/IO/SWCLK*%
X160976403Y-111887000D03*
X153695400Y-122072400D03*
%TO.N,/IO/SWDIO*%
X160426400Y-111887000D03*
X154965400Y-122072400D03*
%TO.N,/MCU/SDRAM_ADD10*%
X112487100Y-83077000D03*
X140908900Y-88424400D03*
%TO.N,/MCU/SDRAM_DQ4*%
X138673700Y-89424400D03*
X123687100Y-83077000D03*
%TO.N,/MCU/SDRAM_DQ2*%
X126087100Y-80791000D03*
X159603300Y-93924400D03*
%TO.N,/MCU/SDRAM_DQ13*%
X143702900Y-103320800D03*
X143703800Y-99460000D03*
%TO.N,/MCU/SDRAM_DQ6*%
X138673700Y-90424400D03*
X121287100Y-83077000D03*
%TO.N,/MCU/SDRAM_ADD0*%
X111687100Y-80791000D03*
X154703800Y-80548793D03*
%TO.N,/MCU/SDRAM_DQ0*%
X147703800Y-97224800D03*
X128487100Y-80791000D03*
%TO.N,/MCU/SDRAM_ADD3*%
X109287100Y-80791000D03*
X153202500Y-78454200D03*
%TO.N,/MCU/SDRAM_DQ5*%
X138318100Y-89924400D03*
X122087100Y-83077000D03*
%TO.N,/MCU/SDRAM_DQ7*%
X119687100Y-83077000D03*
X138673700Y-91924400D03*
%TO.N,/MCU/SDRAM_DQ1*%
X148203800Y-96843800D03*
X126887100Y-80791000D03*
%TO.N,/MCU/SDRAM_DQ3*%
X159984300Y-93424400D03*
X124487100Y-80816400D03*
%TO.N,/MCU/SDRAM_DQ14*%
X144203800Y-99739400D03*
X144203800Y-102216198D03*
%TO.N,/MCU/SDRAM_ADD5*%
X110098700Y-94659400D03*
X152203800Y-75888800D03*
%TO.N,/MCU/SDRAM_ADD2*%
X153685100Y-78124000D03*
X110087100Y-80791000D03*
%TO.N,/MCU/SDRAM_ADD1*%
X154203800Y-81044093D03*
X110887100Y-80791000D03*
%TO.N,/MCU/SDRAM_ADD4*%
X109285900Y-92297200D03*
X152703800Y-75507800D03*
%TO.N,/MCU/SD_DAT3*%
X166827200Y-102575000D03*
X168369400Y-102575000D03*
%TO.N,/MCU/SD_CLK*%
X152753800Y-86470402D03*
X166852600Y-105875000D03*
%TO.N,/MCU/SD_CMD*%
X166827200Y-103675000D03*
X152753800Y-87020400D03*
%TO.N,/MCU/~{NOR_CS}*%
X162229800Y-94919800D03*
X176081000Y-93573600D03*
%TO.N,/MCU/NOR_D3*%
X162229800Y-86424400D03*
X177351000Y-86080600D03*
%TO.N,/MCU/NOR_D2*%
X162229800Y-89916000D03*
X178621000Y-92176600D03*
%TO.N,/MCU/NOR_CLK*%
X178621000Y-84734400D03*
X150241000Y-88252200D03*
%TO.N,/MCU/NOR_D0*%
X163017200Y-92633800D03*
X179891000Y-86080600D03*
%TO.N,/MCU/NOR_D1*%
X177351000Y-92176600D03*
X163042600Y-91973400D03*
%TO.N,/MCU/LED_0*%
X169353866Y-54991000D03*
X160877786Y-73984386D03*
%TO.N,/MCU/LED_1*%
X162382200Y-54991000D03*
X160851000Y-73355200D03*
%TO.N,VBAT*%
X156768800Y-74193400D03*
%TO.N,/IO/USART1_RX*%
X143205200Y-99745800D03*
X148615400Y-118160800D03*
%TO.N,/IO/USART1_TX*%
X142706617Y-99415412D03*
X148615400Y-122047000D03*
%TO.N,/IO/USART2_RX*%
X123063000Y-98374200D03*
X138582400Y-78899400D03*
%TO.N,/IO/USART2_TX*%
X141706600Y-75971400D03*
X123875800Y-98374200D03*
%TD*%
D18*
%TO.N,/MCU/NOR_D1*%
X164979335Y-91453420D02*
X164875335Y-91557420D01*
X165291335Y-91453420D02*
X164979335Y-91453420D01*
X165395335Y-91557420D02*
X165291335Y-91453420D01*
X165499335Y-92493380D02*
X165395335Y-92389380D01*
X165811335Y-92493380D02*
X165499335Y-92493380D01*
X168099335Y-91453420D02*
X167995335Y-91557420D01*
X165915335Y-91557420D02*
X165915335Y-92389380D01*
X166019335Y-91453420D02*
X165915335Y-91557420D01*
X166331335Y-91453420D02*
X166019335Y-91453420D01*
X166435335Y-92389380D02*
X166435335Y-91557420D01*
X166955335Y-91557420D02*
X166955335Y-92389380D01*
X172155335Y-92077400D02*
X172155335Y-92389380D01*
X167475335Y-92389380D02*
X167475335Y-91557420D01*
X167995335Y-92389380D02*
X167891335Y-92493380D01*
X167891335Y-92493380D02*
X167579335Y-92493380D01*
X167475335Y-91557420D02*
X167371335Y-91453420D01*
X168515335Y-91557420D02*
X168411335Y-91453420D01*
X168411335Y-91453420D02*
X168099335Y-91453420D01*
X168619335Y-92493380D02*
X168515335Y-92389380D01*
X171115335Y-92389380D02*
X171011335Y-92493380D01*
X166435335Y-91557420D02*
X166331335Y-91453420D01*
X169971335Y-92493380D02*
X169659335Y-92493380D01*
X165395335Y-92389380D02*
X165395335Y-91557420D01*
X171115335Y-91557420D02*
X171115335Y-92389380D01*
X171011335Y-92493380D02*
X170699335Y-92493380D01*
X171635335Y-91557420D02*
X171531335Y-91453420D01*
X170491335Y-91453420D02*
X170179335Y-91453420D01*
X166851335Y-92493380D02*
X166539335Y-92493380D01*
X171635335Y-92389380D02*
X171635335Y-91557420D01*
X168931335Y-92493380D02*
X168619335Y-92493380D01*
X177351000Y-92176600D02*
X177147800Y-91973400D01*
X164875335Y-92389400D02*
X164771335Y-92493400D01*
X171739335Y-92493380D02*
X171635335Y-92389380D01*
X170075335Y-91557420D02*
X170075335Y-92389380D01*
X168515335Y-92389380D02*
X168515335Y-91557420D01*
X171531335Y-91453420D02*
X171219335Y-91453420D01*
X177147800Y-91973400D02*
X172259335Y-91973400D01*
X169035335Y-92389380D02*
X168931335Y-92493380D01*
X165915335Y-92389380D02*
X165811335Y-92493380D01*
X169035335Y-91557420D02*
X169035335Y-92389380D01*
X169555335Y-91557420D02*
X169451335Y-91453420D01*
X171219335Y-91453420D02*
X171115335Y-91557420D01*
X167579335Y-92493380D02*
X167475335Y-92389380D01*
X172259335Y-91973400D02*
X172155335Y-92077400D01*
X167995335Y-91557420D02*
X167995335Y-92389380D01*
X172051335Y-92493380D02*
X171739335Y-92493380D01*
X167059335Y-91453420D02*
X166955335Y-91557420D01*
X170179335Y-91453420D02*
X170075335Y-91557420D01*
X170699335Y-92493380D02*
X170595335Y-92389380D01*
X169555335Y-92389380D02*
X169555335Y-91557420D01*
X170595335Y-92389380D02*
X170595335Y-91557420D01*
X170595335Y-91557420D02*
X170491335Y-91453420D01*
X172155335Y-92389380D02*
X172051335Y-92493380D01*
X169139335Y-91453420D02*
X169035335Y-91557420D01*
X167371335Y-91453420D02*
X167059335Y-91453420D01*
X169659335Y-92493380D02*
X169555335Y-92389380D01*
X166955335Y-92389380D02*
X166851335Y-92493380D01*
X170075335Y-92389380D02*
X169971335Y-92493380D01*
X166539335Y-92493380D02*
X166435335Y-92389380D01*
X169451335Y-91453420D02*
X169139335Y-91453420D01*
X164355335Y-92389400D02*
X164355335Y-92077400D01*
X164875335Y-91557420D02*
X164875335Y-92389400D01*
X164771335Y-92493400D02*
X164459335Y-92493400D01*
X164459335Y-92493400D02*
X164355335Y-92389400D01*
X164355335Y-92077400D02*
X164251335Y-91973400D01*
X164251335Y-91973400D02*
X163550600Y-91973400D01*
X163550600Y-91973400D02*
X163042600Y-91973400D01*
%TO.N,/MCU/NOR_D2*%
X164683114Y-87882963D02*
X164683114Y-88826400D01*
X163525200Y-89052400D02*
X163137721Y-89439879D01*
X167847114Y-87656963D02*
X167169114Y-87656963D01*
X169203114Y-90521843D02*
X168977114Y-90747843D01*
X168073114Y-87882963D02*
X167847114Y-87656963D01*
X168073114Y-90521843D02*
X168073114Y-87882963D01*
X164683114Y-88826400D02*
X164457114Y-89052400D01*
X168299114Y-90747843D02*
X168073114Y-90521843D01*
X169203114Y-89278400D02*
X169203114Y-90521843D01*
X164457114Y-89052400D02*
X163525200Y-89052400D01*
X162661600Y-89916000D02*
X162229800Y-89916000D01*
X167169114Y-87656963D02*
X166943114Y-87882963D01*
X169429114Y-89052400D02*
X169203114Y-89278400D01*
X165587114Y-87656963D02*
X164909114Y-87656963D01*
X168977114Y-90747843D02*
X168299114Y-90747843D01*
X169799000Y-89052400D02*
X169429114Y-89052400D01*
X164909114Y-87656963D02*
X164683114Y-87882963D01*
X172370000Y-91623400D02*
X169799000Y-89052400D01*
X163137721Y-89439879D02*
X162661600Y-89916000D01*
X178067800Y-91623400D02*
X172370000Y-91623400D01*
X178621000Y-92176600D02*
X178067800Y-91623400D01*
X166943114Y-90521843D02*
X166717114Y-90747843D01*
X166943114Y-87882963D02*
X166943114Y-90521843D01*
X166717114Y-90747843D02*
X166039114Y-90747843D01*
X166039114Y-90747843D02*
X165813114Y-90521843D01*
X165813114Y-90521843D02*
X165813114Y-87882963D01*
X165813114Y-87882963D02*
X165587114Y-87656963D01*
%TO.N,/MCU/NOR_D3*%
X165347487Y-86873600D02*
X165059487Y-86873600D01*
X165827487Y-85919220D02*
X165539487Y-85919220D01*
X171203487Y-86015220D02*
X171203487Y-86777600D01*
X165923487Y-86777600D02*
X165923487Y-86015220D01*
X166019487Y-86873600D02*
X165923487Y-86777600D01*
X169283487Y-86777600D02*
X169187487Y-86873600D01*
X167363487Y-86777600D02*
X167267487Y-86873600D01*
X166883487Y-86777600D02*
X166883487Y-86015220D01*
X166307487Y-86873600D02*
X166019487Y-86873600D01*
X171683487Y-86015220D02*
X171587487Y-85919220D01*
X167267487Y-86873600D02*
X166979487Y-86873600D01*
X166403487Y-86777600D02*
X166307487Y-86873600D01*
X171779487Y-86873600D02*
X171683487Y-86777600D01*
X167363487Y-86015220D02*
X167363487Y-86777600D01*
X166499487Y-85919220D02*
X166403487Y-86015220D01*
X167843487Y-86777600D02*
X167843487Y-86015220D01*
X176558000Y-86873600D02*
X171779487Y-86873600D01*
X167939487Y-86873600D02*
X167843487Y-86777600D01*
X167459487Y-85919220D02*
X167363487Y-86015220D01*
X165539487Y-85919220D02*
X165443487Y-86015220D01*
X168227487Y-86873600D02*
X167939487Y-86873600D01*
X168419487Y-85919220D02*
X168323487Y-86015220D01*
X167843487Y-86015220D02*
X167747487Y-85919220D01*
X168323487Y-86777600D02*
X168227487Y-86873600D01*
X169379487Y-85919207D02*
X169283487Y-86015207D01*
X169859487Y-86873600D02*
X169763487Y-86777600D01*
X165923487Y-86015220D02*
X165827487Y-85919220D01*
X168707487Y-85919220D02*
X168419487Y-85919220D01*
X170723487Y-86015220D02*
X170627487Y-85919220D01*
X168803487Y-86015220D02*
X168707487Y-85919220D01*
X171587487Y-85919220D02*
X171299487Y-85919220D01*
X177351000Y-86080600D02*
X176558000Y-86873600D01*
X170819487Y-86873600D02*
X170723487Y-86777600D01*
X166979487Y-86873600D02*
X166883487Y-86777600D01*
X171107487Y-86873600D02*
X170819487Y-86873600D01*
X166403487Y-86015220D02*
X166403487Y-86777600D01*
X170243487Y-86777600D02*
X170147487Y-86873600D01*
X169763487Y-86777600D02*
X169763487Y-86015207D01*
X167747487Y-85919220D02*
X167459487Y-85919220D01*
X171683487Y-86777600D02*
X171683487Y-86015220D01*
X170147487Y-86873600D02*
X169859487Y-86873600D01*
X165059487Y-86873600D02*
X164963487Y-86777600D01*
X169667487Y-85919207D02*
X169379487Y-85919207D01*
X166787487Y-85919220D02*
X166499487Y-85919220D01*
X171203487Y-86777600D02*
X171107487Y-86873600D01*
X170627487Y-85919220D02*
X170339487Y-85919220D01*
X170723487Y-86777600D02*
X170723487Y-86015220D01*
X171299487Y-85919220D02*
X171203487Y-86015220D01*
X170339487Y-85919220D02*
X170243487Y-86015220D01*
X170243487Y-86015220D02*
X170243487Y-86777600D01*
X165443487Y-86777600D02*
X165347487Y-86873600D01*
X169763487Y-86015207D02*
X169667487Y-85919207D01*
X165443487Y-86015220D02*
X165443487Y-86777600D01*
X166883487Y-86015220D02*
X166787487Y-85919220D01*
X169283487Y-86015207D02*
X169283487Y-86777600D01*
X162776800Y-86424400D02*
X162229800Y-86424400D01*
X168323487Y-86015220D02*
X168323487Y-86777600D01*
X168899487Y-86873600D02*
X168803487Y-86777600D01*
X164579487Y-85919207D02*
X164483487Y-86015207D01*
X169187487Y-86873600D02*
X168899487Y-86873600D01*
X168803487Y-86777600D02*
X168803487Y-86015220D01*
X164963487Y-86777600D02*
X164963487Y-86015207D01*
X164963487Y-86015207D02*
X164867487Y-85919207D01*
X164867487Y-85919207D02*
X164579487Y-85919207D01*
X164483487Y-86015207D02*
X164483487Y-86777600D01*
X164483487Y-86777600D02*
X164387487Y-86873600D01*
X164387487Y-86873600D02*
X164090285Y-86873600D01*
X164090285Y-86873600D02*
X163226000Y-86873600D01*
X163226000Y-86873600D02*
X162776800Y-86424400D01*
%TO.N,/MCU/NOR_D0*%
X161149093Y-91230371D02*
X161659800Y-91230371D01*
X161029093Y-91350371D02*
X161149093Y-91230371D01*
X161779800Y-91950371D02*
X161659800Y-91830371D01*
X161779800Y-92869600D02*
X161779800Y-91950371D01*
X162179000Y-93268800D02*
X161779800Y-92869600D01*
X161149093Y-91830371D02*
X161029093Y-91710371D01*
X163017200Y-92633800D02*
X163499800Y-92633800D01*
X163499800Y-93268800D02*
X162179000Y-93268800D01*
X163677600Y-93091000D02*
X163499800Y-93268800D01*
X161659800Y-91830371D02*
X161149093Y-91830371D01*
X163677600Y-92811600D02*
X163677600Y-93091000D01*
X163499800Y-92633800D02*
X163677600Y-92811600D01*
X161029093Y-91710371D02*
X161029093Y-91350371D01*
X161659800Y-91230371D02*
X161779800Y-91110371D01*
X161779800Y-91110371D02*
X161779800Y-90547347D01*
X161779800Y-90547347D02*
X161779800Y-88207000D01*
X161779800Y-88207000D02*
X162763200Y-87223600D01*
X162763200Y-87223600D02*
X178748000Y-87223600D01*
X178748000Y-87223600D02*
X179891000Y-86080600D01*
%TO.N,/MCU/PG8*%
X149650350Y-100846000D02*
X149650350Y-101706000D01*
X149580350Y-100776000D02*
X149650350Y-100846000D01*
X149370350Y-100776000D02*
X149580350Y-100776000D01*
X149300350Y-100846000D02*
X149370350Y-100776000D01*
X149020350Y-101776000D02*
X149230350Y-101776000D01*
X149300350Y-101706000D02*
X149300350Y-100846000D01*
X150387800Y-100776000D02*
X151703800Y-99460000D01*
X148950350Y-100846000D02*
X148950350Y-101706000D01*
X149230350Y-101776000D02*
X149300350Y-101706000D01*
X148880350Y-100776000D02*
X148950350Y-100846000D01*
X149650350Y-101706000D02*
X149720350Y-101776000D01*
X148950350Y-101706000D02*
X149020350Y-101776000D01*
X148249032Y-100382407D02*
X148642625Y-100776000D01*
X148642625Y-100776000D02*
X148880350Y-100776000D01*
X149720350Y-101776000D02*
X149930350Y-101776000D01*
X150355106Y-100776000D02*
X150387800Y-100776000D01*
X149930350Y-101776000D02*
X150000350Y-101706000D01*
X150000350Y-101706000D02*
X150000350Y-100846000D01*
X150000350Y-100846000D02*
X150070350Y-100776000D01*
X150070350Y-100776000D02*
X150355106Y-100776000D01*
X146553934Y-99800874D02*
X146553934Y-99899869D01*
X147061220Y-99293589D02*
X146553934Y-99800874D01*
X147061220Y-99194595D02*
X147061220Y-99293589D01*
X146813732Y-99046101D02*
X146912727Y-99046101D01*
X146306447Y-99553387D02*
X146813732Y-99046101D01*
X145069014Y-98414949D02*
X145217506Y-98563441D01*
X145192630Y-96212454D02*
X144079077Y-97326003D01*
X146417753Y-98551127D02*
X146566246Y-98699621D01*
X145811465Y-99058421D02*
X146318758Y-98551127D01*
X145563978Y-98909929D02*
X145712470Y-99058421D01*
X146352280Y-97626655D02*
X146500772Y-97775147D01*
X144574042Y-97820982D02*
X144574042Y-97919977D01*
X145217506Y-98563441D02*
X145316501Y-98563441D01*
X146207452Y-99553387D02*
X146306447Y-99553387D01*
X145069014Y-98315954D02*
X145069014Y-98414949D01*
X145712470Y-99058421D02*
X145811465Y-99058421D01*
X146182581Y-97202391D02*
X145069014Y-98315954D01*
X146182580Y-97103395D02*
X146182581Y-97202391D01*
X146058960Y-99305900D02*
X146058960Y-99404895D01*
X144821529Y-98068469D02*
X145935092Y-96954902D01*
X147048908Y-100295848D02*
X147048908Y-100394843D01*
X146500772Y-97775147D02*
X146500773Y-97874143D01*
X143584105Y-96831031D02*
X143584105Y-96930026D01*
X144549164Y-95469995D02*
X144697656Y-95618487D01*
X143843898Y-95977273D02*
X143942892Y-95977273D01*
X146566246Y-98699621D02*
X146566246Y-98798615D01*
X144945141Y-95964965D02*
X145044137Y-95964966D01*
X146318758Y-98551127D02*
X146417753Y-98551127D01*
X146500773Y-97874143D02*
X145563978Y-98810934D01*
X145192629Y-96113458D02*
X145192630Y-96212454D01*
X145687602Y-96707426D02*
X144574042Y-97820982D01*
X143732597Y-97078518D02*
X143831592Y-97078518D01*
X117083700Y-95573800D02*
X143440426Y-95573800D01*
X144079077Y-97326003D02*
X144079077Y-97424998D01*
X144697657Y-95717483D02*
X143584105Y-96831031D01*
X146034088Y-96954903D02*
X146182580Y-97103395D01*
X146253284Y-97626654D02*
X146352280Y-97626655D01*
X143440426Y-95573800D02*
X143843898Y-95977273D01*
X145316501Y-98563441D02*
X146253284Y-97626654D01*
X144697656Y-95618487D02*
X144697657Y-95717483D01*
X145440113Y-96459937D02*
X145539109Y-96459938D01*
X144227569Y-97573490D02*
X144326564Y-97573490D01*
X146566246Y-98798615D02*
X146058960Y-99305900D01*
X143942892Y-95977273D02*
X144450170Y-95469996D01*
X146801421Y-100048361D02*
X147308706Y-99541075D01*
X144326564Y-97573490D02*
X145440113Y-96459937D01*
X146912727Y-99046101D02*
X147061220Y-99194595D01*
X144722534Y-98068469D02*
X144821529Y-98068469D01*
X116487100Y-94583200D02*
X116487100Y-94977200D01*
X145935092Y-96954902D02*
X146034088Y-96954903D01*
X143831592Y-97078518D02*
X144945141Y-95964965D01*
X145687601Y-96608430D02*
X145687602Y-96707426D01*
X144574042Y-97919977D02*
X144722534Y-98068469D01*
X145563978Y-98810934D02*
X145563978Y-98909929D01*
X144079077Y-97424998D02*
X144227569Y-97573490D01*
X116487100Y-94977200D02*
X117083700Y-95573800D01*
X143584105Y-96930026D02*
X143732597Y-97078518D01*
X147048908Y-100394843D02*
X147197400Y-100543335D01*
X145539109Y-96459938D02*
X145687601Y-96608430D01*
X146058960Y-99404895D02*
X146207452Y-99553387D01*
X144450170Y-95469996D02*
X144549164Y-95469995D01*
X145044137Y-95964966D02*
X145192629Y-96113458D01*
X146553934Y-99899869D02*
X146702426Y-100048361D01*
X146702426Y-100048361D02*
X146801421Y-100048361D01*
X147308706Y-99541075D02*
X147407701Y-99541075D01*
X147407701Y-99541075D02*
X147556194Y-99689569D01*
X147556194Y-99689569D02*
X147556194Y-99788563D01*
X147556194Y-99788563D02*
X147048908Y-100295848D01*
X147197400Y-100543335D02*
X147296395Y-100543335D01*
X147296395Y-100543335D02*
X147803680Y-100036049D01*
X147803680Y-100036049D02*
X147902675Y-100036049D01*
X147902675Y-100036049D02*
X148249032Y-100382407D01*
%TO.N,/MCU/PG5*%
X150203800Y-99739400D02*
X150203800Y-100113200D01*
X150203800Y-100113200D02*
X149891000Y-100426000D01*
X146903800Y-98542200D02*
X146903800Y-88282903D01*
X149891000Y-100426000D02*
X148787600Y-100426000D01*
X148787600Y-100426000D02*
X146903800Y-98542200D01*
X146903800Y-88282903D02*
X141095297Y-82474400D01*
X114151500Y-83941400D02*
X113287100Y-83077000D01*
X141095297Y-82474400D02*
X116864800Y-82474400D01*
X116864800Y-82474400D02*
X115397800Y-83941400D01*
X115397800Y-83941400D02*
X114151500Y-83941400D01*
%TO.N,/MCU/PG4*%
X149703800Y-99460000D02*
X149703800Y-99851200D01*
X149703800Y-99851200D02*
X149479000Y-100076000D01*
X149479000Y-100076000D02*
X148932574Y-100076000D01*
X148932574Y-100076000D02*
X147253800Y-98397226D01*
X147253800Y-98397226D02*
X147253800Y-88137928D01*
X147253800Y-88137928D02*
X141240271Y-82124400D01*
X116719826Y-82124400D02*
X115252826Y-83591400D01*
X141240271Y-82124400D02*
X116719826Y-82124400D01*
X115252826Y-83591400D02*
X114601500Y-83591400D01*
X114601500Y-83591400D02*
X114087100Y-83077000D01*
%TO.N,/MCU/SDRAM_ADD4*%
X147351772Y-76491400D02*
X147471772Y-76371400D01*
X147351772Y-76965641D02*
X147351772Y-76491400D01*
X146871772Y-77085641D02*
X147231772Y-77085641D01*
X147231772Y-77085641D02*
X147351772Y-76965641D01*
X146751772Y-76965641D02*
X146871772Y-77085641D01*
X146751772Y-76491400D02*
X146751772Y-76965641D01*
X143566774Y-76371400D02*
X146631772Y-76371400D01*
X146631772Y-76371400D02*
X146751772Y-76491400D01*
X142079774Y-74884400D02*
X143566774Y-76371400D01*
X153026339Y-75954661D02*
X153365200Y-75615800D01*
X108837100Y-80604603D02*
X114557303Y-74884400D01*
X114557303Y-74884400D02*
X142079774Y-74884400D01*
X153365200Y-75615800D02*
X153365200Y-75234800D01*
X108837100Y-91848400D02*
X108837100Y-80604603D01*
X147471772Y-76371400D02*
X152609600Y-76371400D01*
X109285900Y-92297200D02*
X108837100Y-91848400D01*
X152609600Y-76371400D02*
X153026339Y-75954661D01*
X152839000Y-75100600D02*
X152703800Y-75235800D01*
X153365200Y-75234800D02*
X153231000Y-75100600D01*
X153231000Y-75100600D02*
X152839000Y-75100600D01*
X152703800Y-75235800D02*
X152703800Y-75507800D01*
%TO.N,/MCU/SDRAM_ADD5*%
X147437156Y-75888800D02*
X148521612Y-75888800D01*
X146685000Y-75888800D02*
X146897156Y-75676644D01*
X151003000Y-75234800D02*
X151942800Y-75234800D01*
X150349000Y-75888800D02*
X151003000Y-75234800D01*
X148521612Y-75888800D02*
X150349000Y-75888800D01*
X147225000Y-75676644D02*
X147437156Y-75888800D01*
X143579148Y-75888800D02*
X146685000Y-75888800D01*
X114412328Y-74534400D02*
X142224748Y-74534400D01*
X142224748Y-74534400D02*
X143579148Y-75888800D01*
X108487100Y-80459629D02*
X114412328Y-74534400D01*
X146897156Y-75676644D02*
X147225000Y-75676644D01*
X108487100Y-93047800D02*
X108487100Y-80459629D01*
X110098700Y-94659400D02*
X108487100Y-93047800D01*
X151942800Y-75234800D02*
X152203800Y-75495800D01*
X152203800Y-75495800D02*
X152203800Y-75888800D01*
%TO.N,/MCU/SDRAM_ADD10*%
X142514347Y-89143104D02*
X143933100Y-89143104D01*
X142514347Y-89643104D02*
X142414347Y-89543104D01*
X145551853Y-89643104D02*
X142514347Y-89643104D01*
X145651853Y-89743104D02*
X145551853Y-89643104D01*
X145551853Y-90143104D02*
X145651853Y-90043104D01*
X145551853Y-90643104D02*
X142514334Y-90643104D01*
X142414347Y-91243104D02*
X142514347Y-91143104D01*
X145651853Y-91043104D02*
X145651853Y-90743104D01*
X143933100Y-91643104D02*
X142514347Y-91643104D01*
X142414347Y-89243104D02*
X142514347Y-89143104D01*
X142514347Y-91143104D02*
X145551853Y-91143104D01*
X145551853Y-91143104D02*
X145651853Y-91043104D01*
X142414334Y-90543104D02*
X142414334Y-90243104D01*
X112487100Y-83077000D02*
X112487100Y-89898026D01*
X112487100Y-89898026D02*
X113602874Y-91013800D01*
X142414334Y-90243104D02*
X142514334Y-90143104D01*
X113602874Y-91013800D02*
X117175800Y-91013800D01*
X117175800Y-91013800D02*
X119538000Y-93376000D01*
X119538000Y-93376000D02*
X142954300Y-93376000D01*
X142514334Y-90643104D02*
X142414334Y-90543104D01*
X142414347Y-91543104D02*
X142414347Y-91243104D01*
X144033100Y-92297200D02*
X144033100Y-91743104D01*
X142954300Y-93376000D02*
X144033100Y-92297200D01*
X142514334Y-90143104D02*
X145551853Y-90143104D01*
X144033100Y-91743104D02*
X143933100Y-91643104D01*
X145651853Y-90743104D02*
X145551853Y-90643104D01*
X142414347Y-89543104D02*
X142414347Y-89243104D01*
X145651853Y-90043104D02*
X145651853Y-89743104D01*
X142514347Y-91643104D02*
X142414347Y-91543104D01*
X143933100Y-89143104D02*
X144033100Y-89043104D01*
X144033100Y-89043104D02*
X144033100Y-88588800D01*
X144033100Y-88588800D02*
X143880719Y-88436419D01*
X143880719Y-88436419D02*
X143868700Y-88424400D01*
X143868700Y-88424400D02*
X140908900Y-88424400D01*
%TO.N,/MCU/PE1*%
X159704900Y-79924400D02*
X155404900Y-84224400D01*
X155404900Y-84224400D02*
X147645697Y-84224400D01*
X117658900Y-76634400D02*
X112037100Y-82256200D01*
X147645697Y-84224400D02*
X140055697Y-76634400D01*
X112037100Y-82256200D02*
X112037100Y-89943000D01*
X140055697Y-76634400D02*
X117658900Y-76634400D01*
X112037100Y-89943000D02*
X113457900Y-91363800D01*
X116789200Y-91363800D02*
X117287100Y-91861700D01*
X113457900Y-91363800D02*
X116789200Y-91363800D01*
X117287100Y-91861700D02*
X117287100Y-92322600D01*
%TO.N,/MCU/PC5*%
X140908900Y-82924400D02*
X146553800Y-88569300D01*
X116255800Y-91719400D02*
X115864900Y-91719400D01*
X146553800Y-88569300D02*
X146553800Y-92621300D01*
X116433600Y-91897200D02*
X116255800Y-91719400D01*
X146553800Y-92621300D02*
X145449100Y-93726000D01*
X145449100Y-93726000D02*
X117090500Y-93726000D01*
X116433600Y-93069100D02*
X116433600Y-91897200D01*
X117090500Y-93726000D02*
X116433600Y-93069100D01*
X115864900Y-91719400D02*
X115687100Y-91897200D01*
X115687100Y-91897200D02*
X115687100Y-92322600D01*
%TO.N,/MCU/SDRAM_DQ2*%
X152759219Y-91289650D02*
X152564057Y-91094488D01*
X155949624Y-92262698D02*
X155819516Y-92262698D01*
X153253479Y-89566553D02*
X152999300Y-89566553D01*
X153998007Y-90311081D02*
X153867899Y-90311081D01*
X153214596Y-91614919D02*
X154193167Y-90636349D01*
X153214596Y-91745027D02*
X153214596Y-91614919D01*
X153409758Y-91940189D02*
X153214596Y-91745027D01*
X154648546Y-90961620D02*
X154518438Y-90961620D01*
X154843706Y-91156780D02*
X154648546Y-90961620D01*
X153865135Y-92395566D02*
X153865135Y-92265458D01*
X157611326Y-93924400D02*
X157250702Y-93563776D01*
X152889327Y-91289650D02*
X152759219Y-91289650D01*
X155816745Y-94347193D02*
X155816745Y-94217085D01*
X154060297Y-92590728D02*
X153865135Y-92395566D01*
X153539866Y-91940189D02*
X153409758Y-91940189D01*
X154190405Y-92590728D02*
X154060297Y-92590728D01*
X155299085Y-91612159D02*
X155168977Y-91612159D01*
X153542628Y-89855702D02*
X153253479Y-89566553D01*
X154515674Y-93046105D02*
X154515674Y-92915997D01*
X156142013Y-94542354D02*
X156011907Y-94542355D01*
X152564057Y-90964380D02*
X153542628Y-89985810D01*
X154710836Y-93241267D02*
X154515674Y-93046105D01*
X154843706Y-91286888D02*
X154843706Y-91156780D01*
X155361375Y-93891806D02*
X155166213Y-93696644D01*
X155816745Y-94217085D02*
X156795323Y-93238504D01*
X154193167Y-90506241D02*
X153998007Y-90311081D01*
X158357433Y-93924400D02*
X157611326Y-93924400D01*
X158449433Y-94016400D02*
X158357433Y-93924400D01*
X156795323Y-93238504D02*
X156795324Y-93108398D01*
X156144784Y-92587966D02*
X156144784Y-92457858D01*
X153865135Y-92265458D02*
X154843706Y-91286888D01*
X155494245Y-91807319D02*
X155299085Y-91612159D01*
X157120594Y-93563776D02*
X156142013Y-94542354D01*
X158541433Y-95492308D02*
X158449433Y-95400308D01*
X154518438Y-90961620D02*
X153539866Y-91940189D01*
X154840944Y-93241267D02*
X154710836Y-93241267D01*
X154193167Y-90636349D02*
X154193167Y-90506241D01*
X156011907Y-94542355D02*
X155816745Y-94347193D01*
X156600163Y-92913237D02*
X156470055Y-92913237D01*
X158817433Y-95492308D02*
X158541433Y-95492308D01*
X155168977Y-91612159D02*
X154190405Y-92590728D01*
X158449433Y-95400308D02*
X158449433Y-94016400D01*
X158909433Y-95400308D02*
X158817433Y-95492308D01*
X158909433Y-94016400D02*
X158909433Y-95400308D01*
X159001433Y-93924400D02*
X158909433Y-94016400D01*
X153542628Y-89985810D02*
X153542628Y-89855702D01*
X157250702Y-93563776D02*
X157120594Y-93563776D01*
X155494245Y-91937427D02*
X155494245Y-91807319D01*
X154515674Y-92915997D02*
X155494245Y-91937427D01*
X159603300Y-93924400D02*
X159001433Y-93924400D01*
X155166213Y-93566536D02*
X156144784Y-92587966D01*
X155491483Y-93891806D02*
X155361375Y-93891806D01*
X153867899Y-90311081D02*
X152889327Y-91289650D01*
X156795324Y-93108398D02*
X156600163Y-92913237D01*
X156470055Y-92913237D02*
X155491483Y-93891806D01*
X152564057Y-91094488D02*
X152564057Y-90964380D01*
X155166213Y-93696644D02*
X155166213Y-93566536D01*
X155819516Y-92262698D02*
X154840944Y-93241267D01*
X152999300Y-89566553D02*
X152527000Y-89566553D01*
X156144784Y-92457858D02*
X155949624Y-92262698D01*
%TO.N,/MCU/SDRAM_DQ1*%
X149976440Y-90293542D02*
X149896440Y-90213542D01*
X149621100Y-96310400D02*
X149896440Y-96035060D01*
X151690064Y-91173542D02*
X151610064Y-91093542D01*
X151610064Y-91893542D02*
X149976440Y-91893542D01*
X149976440Y-90693542D02*
X151610077Y-90693542D01*
X149896440Y-90773542D02*
X149976440Y-90693542D01*
X151610064Y-91093542D02*
X149976440Y-91093542D01*
X151610077Y-90293542D02*
X149976440Y-90293542D01*
X149976440Y-91093542D02*
X149896440Y-91013542D01*
X151610064Y-91493542D02*
X151690064Y-91413542D01*
X149896440Y-96035060D02*
X149896440Y-95573542D01*
X151690077Y-90613542D02*
X151690077Y-90373542D01*
X149976440Y-91493542D02*
X151610064Y-91493542D01*
X149976440Y-93493542D02*
X149896440Y-93413542D01*
X151610077Y-90693542D02*
X151690077Y-90613542D01*
X149896440Y-91813542D02*
X149896440Y-91573542D01*
X151610077Y-93493542D02*
X149976440Y-93493542D01*
X151690064Y-92213542D02*
X151690064Y-91973542D01*
X151690064Y-91413542D02*
X151690064Y-91173542D01*
X149976440Y-92293542D02*
X151610064Y-92293542D01*
X149896440Y-92373542D02*
X149976440Y-92293542D01*
X151610077Y-93893542D02*
X151690077Y-93813542D01*
X149896440Y-92613542D02*
X149896440Y-92373542D01*
X149896440Y-89858800D02*
X149896440Y-89790621D01*
X151610064Y-92693542D02*
X149976440Y-92693542D01*
X151690064Y-93013542D02*
X151690064Y-92773542D01*
X149896440Y-91573542D02*
X149976440Y-91493542D01*
X151690077Y-93813542D02*
X151690077Y-93573542D01*
X149976440Y-93893542D02*
X151610077Y-93893542D01*
X151610064Y-93093542D02*
X151690064Y-93013542D01*
X149976440Y-93093542D02*
X151610064Y-93093542D01*
X149976440Y-91893542D02*
X149896440Y-91813542D01*
X149896440Y-93413542D02*
X149896440Y-93173542D01*
X151690064Y-91973542D02*
X151610064Y-91893542D01*
X151610064Y-92293542D02*
X151690064Y-92213542D01*
X151690064Y-92773542D02*
X151610064Y-92693542D01*
X149976440Y-95493542D02*
X151610077Y-95493542D01*
X151690077Y-95413542D02*
X151690077Y-95173542D01*
X149896440Y-94773542D02*
X149976440Y-94693542D01*
X151610064Y-94293542D02*
X149976440Y-94293542D01*
X151690077Y-95173542D02*
X151610077Y-95093542D01*
X149976440Y-92693542D02*
X149896440Y-92613542D01*
X148203800Y-96843800D02*
X148737200Y-96310400D01*
X151690064Y-94373542D02*
X151610064Y-94293542D01*
X151610077Y-95493542D02*
X151690077Y-95413542D01*
X149896440Y-93973542D02*
X149976440Y-93893542D01*
X149976440Y-95093542D02*
X149896440Y-95013542D01*
X149896440Y-95013542D02*
X149896440Y-94773542D01*
X149896440Y-93173542D02*
X149976440Y-93093542D01*
X149896440Y-95573542D02*
X149976440Y-95493542D01*
X151690077Y-90373542D02*
X151610077Y-90293542D01*
X151610064Y-94693542D02*
X151690064Y-94613542D01*
X149896440Y-91013542D02*
X149896440Y-90773542D01*
X151690064Y-94613542D02*
X151690064Y-94373542D01*
X149976440Y-94293542D02*
X149896440Y-94213542D01*
X151610077Y-95093542D02*
X149976440Y-95093542D01*
X149896440Y-94213542D02*
X149896440Y-93973542D01*
X149976440Y-94693542D02*
X151610064Y-94693542D01*
X151690077Y-93573542D02*
X151610077Y-93493542D01*
X148737200Y-96310400D02*
X149621100Y-96310400D01*
X149896440Y-90213542D02*
X149896440Y-89858800D01*
X149896440Y-89790621D02*
X149466804Y-89360985D01*
%TO.N,/MCU/SDRAM_DQ0*%
X147703800Y-90854063D02*
X147773800Y-90784063D01*
X149386791Y-94984063D02*
X149456791Y-94914063D01*
X147773800Y-94634063D02*
X147703800Y-94564063D01*
X147703800Y-91064063D02*
X147703800Y-90854063D01*
X149386791Y-91484063D02*
X149456791Y-91414063D01*
X149386791Y-95684063D02*
X149456791Y-95614063D01*
X147773800Y-91484063D02*
X149386791Y-91484063D01*
X147773800Y-91834063D02*
X147703800Y-91764063D01*
X149386791Y-91134063D02*
X147773800Y-91134063D01*
X147703800Y-92254063D02*
X147773800Y-92184063D01*
X149456791Y-92114063D02*
X149456791Y-91904063D01*
X147703800Y-92464063D02*
X147703800Y-92254063D01*
X147703800Y-95054063D02*
X147773800Y-94984063D01*
X147773800Y-92534063D02*
X147703800Y-92464063D01*
X149386779Y-92534063D02*
X147773800Y-92534063D01*
X149456779Y-92604063D02*
X149386779Y-92534063D01*
X147703800Y-94564063D02*
X147703800Y-94354063D01*
X149456779Y-92814063D02*
X149456779Y-92604063D01*
X149456791Y-91904063D02*
X149386791Y-91834063D01*
X149386779Y-92884063D02*
X149456779Y-92814063D01*
X149386791Y-93234063D02*
X147773800Y-93234063D01*
X131054022Y-79084400D02*
X129823622Y-80314800D01*
X147773800Y-92884063D02*
X149386779Y-92884063D01*
X147703800Y-92954063D02*
X147773800Y-92884063D01*
X147773800Y-92184063D02*
X149386791Y-92184063D01*
X147703800Y-95754063D02*
X147773800Y-95684063D01*
X147703800Y-93164063D02*
X147703800Y-92954063D01*
X149286795Y-90084063D02*
X149356795Y-90014063D01*
X147773800Y-90784063D02*
X149386791Y-90784063D01*
X147703800Y-95264063D02*
X147703800Y-95054063D01*
X147773800Y-95684063D02*
X149386791Y-95684063D01*
X147773800Y-95334063D02*
X147703800Y-95264063D01*
X147703800Y-91554063D02*
X147773800Y-91484063D01*
X147773800Y-94284063D02*
X149386791Y-94284063D01*
X149386791Y-94284063D02*
X149456791Y-94214063D01*
X136296400Y-80518000D02*
X134862800Y-79084400D01*
X147773800Y-93934063D02*
X147703800Y-93864063D01*
X149456791Y-93304063D02*
X149386791Y-93234063D01*
X149456791Y-95404063D02*
X149386791Y-95334063D01*
X149456791Y-93514063D02*
X149456791Y-93304063D01*
X149386791Y-93584063D02*
X149456791Y-93514063D01*
X147703800Y-91764063D02*
X147703800Y-91554063D01*
X149386791Y-92184063D02*
X149456791Y-92114063D01*
X147773800Y-94984063D02*
X149386791Y-94984063D01*
X149456791Y-94914063D02*
X149456791Y-94704063D01*
X149456791Y-94704063D02*
X149386791Y-94634063D01*
X147773800Y-91134063D02*
X147703800Y-91064063D01*
X149386791Y-95334063D02*
X147773800Y-95334063D01*
X147703800Y-97224800D02*
X147703800Y-95754063D01*
X147703800Y-94354063D02*
X147773800Y-94284063D01*
X149456791Y-91204063D02*
X149386791Y-91134063D01*
X147773800Y-93234063D02*
X147703800Y-93164063D01*
X149386791Y-94634063D02*
X147773800Y-94634063D01*
X149386791Y-91834063D02*
X147773800Y-91834063D01*
X149456791Y-94214063D02*
X149456791Y-94004063D01*
X149386791Y-93934063D02*
X147773800Y-93934063D01*
X149456791Y-94004063D02*
X149386791Y-93934063D01*
X149456791Y-91414063D02*
X149456791Y-91204063D01*
X147703800Y-93864063D02*
X147703800Y-93654063D01*
X147703800Y-93654063D02*
X147773800Y-93584063D01*
X149456791Y-95614063D02*
X149456791Y-95404063D01*
X147773800Y-93584063D02*
X149386791Y-93584063D01*
X149386791Y-90784063D02*
X149456791Y-90714063D01*
X149456791Y-90714063D02*
X149456791Y-90504063D01*
X149456791Y-90504063D02*
X149386791Y-90434063D01*
X149386791Y-90434063D02*
X147773800Y-90434063D01*
X147773800Y-90434063D02*
X147703800Y-90364063D01*
X147703800Y-90364063D02*
X147703800Y-90154063D01*
X147703800Y-88092955D02*
X140128845Y-80518000D01*
X147703800Y-90154063D02*
X147773800Y-90084063D01*
X147773800Y-90084063D02*
X149286795Y-90084063D01*
X149356795Y-90014063D02*
X149356795Y-89804063D01*
X147703800Y-88887977D02*
X147703800Y-88092955D01*
X149356795Y-89804063D02*
X149286795Y-89734063D01*
X149286795Y-89734063D02*
X147773800Y-89734063D01*
X147773800Y-89734063D02*
X147703800Y-89664063D01*
X147703800Y-89664063D02*
X147703800Y-88887977D01*
X140128845Y-80518000D02*
X136296400Y-80518000D01*
X134862800Y-79084400D02*
X131054022Y-79084400D01*
X129823622Y-80314800D02*
X128963300Y-80314800D01*
X128963300Y-80314800D02*
X128487100Y-80791000D01*
%TO.N,/MCU/SDRAM_DQ1*%
X126887100Y-80791000D02*
X127845900Y-79832200D01*
X135832203Y-78734400D02*
X136447203Y-79349400D01*
X127845900Y-79832200D02*
X128550797Y-79832200D01*
X128550797Y-79832200D02*
X129648597Y-78734400D01*
X129648597Y-78734400D02*
X135832203Y-78734400D01*
X136447203Y-79349400D02*
X139455219Y-79349400D01*
X139455219Y-79349400D02*
X148232380Y-88126561D01*
%TO.N,/MCU/SDRAM_DQ2*%
X126087100Y-80791000D02*
X128493700Y-78384400D01*
X128493700Y-78384400D02*
X138985194Y-78384400D01*
X138985194Y-78384400D02*
X150167347Y-89566553D01*
X150167347Y-89566553D02*
X150647400Y-89566553D01*
%TO.N,/MCU/PG15*%
X160009700Y-84924400D02*
X146515141Y-84924400D01*
X118190097Y-81324400D02*
X116325600Y-81324400D01*
X146515141Y-84924400D02*
X139275142Y-77684400D01*
X139275142Y-77684400D02*
X120105400Y-77684400D01*
X115925600Y-80391000D02*
X116078000Y-80238600D01*
X116487100Y-80393700D02*
X116487100Y-80791000D01*
X120105400Y-77684400D02*
X118537100Y-79252700D01*
X116325600Y-81324400D02*
X115925600Y-80924400D01*
X118537100Y-79252700D02*
X118537100Y-80977397D01*
X118537100Y-80977397D02*
X118190097Y-81324400D01*
X115925600Y-80924400D02*
X115925600Y-80391000D01*
X116078000Y-80238600D02*
X116332000Y-80238600D01*
X116332000Y-80238600D02*
X116487100Y-80393700D01*
%TO.N,/MCU/PC4*%
X137073500Y-81674400D02*
X116167600Y-81674400D01*
X115468400Y-80391000D02*
X115341400Y-80264000D01*
X116167600Y-81674400D02*
X115468400Y-80975200D01*
X115036600Y-80264000D02*
X114887100Y-80413500D01*
X115468400Y-80975200D02*
X115468400Y-80391000D01*
X115341400Y-80264000D02*
X115036600Y-80264000D01*
X114887100Y-80413500D02*
X114887100Y-80791000D01*
%TO.N,/MCU/I2S_CK*%
X120548400Y-69697600D02*
X120548400Y-71221600D01*
X120970100Y-69275900D02*
X120548400Y-69697600D01*
X158704924Y-83141322D02*
X160852600Y-80993646D01*
X154485100Y-70360300D02*
X152481800Y-68357000D01*
X160852600Y-79687226D02*
X160289774Y-79124400D01*
X158338000Y-79837800D02*
X155161174Y-79837800D01*
X155161174Y-79837800D02*
X154485100Y-79161726D01*
X134779826Y-71582800D02*
X125900374Y-71582800D01*
X152481800Y-68357000D02*
X138005625Y-68357000D01*
X160289774Y-79124400D02*
X159051400Y-79124400D01*
X159051400Y-79124400D02*
X158338000Y-79837800D01*
X123593474Y-69275900D02*
X120970100Y-69275900D01*
X160852600Y-80993646D02*
X160852600Y-79687226D01*
X154485100Y-79161726D02*
X154485100Y-70360300D01*
X138005625Y-68357000D02*
X134779826Y-71582800D01*
X125900374Y-71582800D02*
X123593474Y-69275900D01*
%TO.N,/LCD/LCD_G7*%
X158177801Y-84366799D02*
X161202600Y-81342000D01*
X161202600Y-81342000D02*
X161202600Y-76341200D01*
X161202600Y-76341200D02*
X160401000Y-75539600D01*
X160401000Y-75539600D02*
X160401000Y-54837200D01*
X154360298Y-48796498D02*
X147834402Y-48796498D01*
X160401000Y-54837200D02*
X154360298Y-48796498D01*
X147834402Y-48796498D02*
X147447300Y-49183600D01*
%TO.N,/LCD/LCD_B3*%
X156703800Y-78282800D02*
X156703800Y-77458800D01*
X156703800Y-77458800D02*
X159001000Y-75161600D01*
X149633696Y-50983600D02*
X149260903Y-50983600D01*
X159001000Y-75161600D02*
X159001000Y-55417096D01*
X150420795Y-50196498D02*
X149633696Y-50983600D01*
X159001000Y-55417096D02*
X153780402Y-50196498D01*
X142897300Y-50533600D02*
X142447300Y-50983600D01*
X153780402Y-50196498D02*
X150420795Y-50196498D01*
X149260903Y-50983600D02*
X148810903Y-50533600D01*
X148810903Y-50533600D02*
X142897300Y-50533600D01*
%TO.N,/LCD/LCD_R5*%
X157203800Y-78689200D02*
X157203800Y-77453774D01*
X157203800Y-77453774D02*
X159351000Y-75306574D01*
X159351000Y-75306574D02*
X159351000Y-55272122D01*
X153925376Y-49846498D02*
X150134402Y-49846498D01*
X159351000Y-55272122D02*
X153925376Y-49846498D01*
X150134402Y-49846498D02*
X149447300Y-50533600D01*
%TO.N,/LCD/LCD_B4*%
X157703800Y-78282800D02*
X157703800Y-77448748D01*
X157703800Y-77448748D02*
X159701000Y-75451548D01*
X159701000Y-75451548D02*
X159701000Y-55127148D01*
X159701000Y-55127148D02*
X154070350Y-49496498D01*
X154070350Y-49496498D02*
X149989428Y-49496498D01*
X149989428Y-49496498D02*
X149402326Y-50083600D01*
X149402326Y-50083600D02*
X142947300Y-50083600D01*
%TO.N,/LCD/LCD_B6*%
X158203800Y-78689200D02*
X158203800Y-77443722D01*
X158203800Y-77443722D02*
X160051000Y-75596522D01*
X160051000Y-75596522D02*
X160051000Y-54982174D01*
X160051000Y-54982174D02*
X154215324Y-49146498D01*
X146749503Y-49122200D02*
X144458700Y-49122200D01*
X144458700Y-49122200D02*
X143947300Y-49633600D01*
X154215324Y-49146498D02*
X149844454Y-49146498D01*
X149844454Y-49146498D02*
X149357352Y-49633600D01*
X149357352Y-49633600D02*
X147260903Y-49633600D01*
X147260903Y-49633600D02*
X146749503Y-49122200D01*
%TO.N,/MCU/I2S_SDO*%
X158115000Y-83134200D02*
X158115000Y-83094849D01*
X158115000Y-83094849D02*
X160502600Y-80707249D01*
X160502600Y-80707249D02*
X160502600Y-79832200D01*
%TO.N,/LCD/LCD_B7*%
X154717588Y-58007412D02*
X154717588Y-53113580D01*
X154717588Y-53113580D02*
X153200506Y-51596498D01*
X145554930Y-52672600D02*
X144950930Y-52068600D01*
X144629000Y-52068600D02*
X144447300Y-52250300D01*
X153200506Y-51596498D02*
X151000695Y-51596498D01*
X151000695Y-51596498D02*
X149924593Y-52672600D01*
X149924593Y-52672600D02*
X145554930Y-52672600D01*
X144950930Y-52068600D02*
X144629000Y-52068600D01*
X144447300Y-52250300D02*
X144447300Y-52578000D01*
%TO.N,/LCD/LCD_SPI_DAT*%
X138447300Y-59916209D02*
X143897300Y-59916209D01*
%TO.N,/MCU/PC0*%
X119510000Y-76984400D02*
X117287100Y-79207300D01*
X143194900Y-80410000D02*
X139769300Y-76984400D01*
X117287100Y-79207300D02*
X117287100Y-80791000D01*
X139769300Y-76984400D02*
X119510000Y-76984400D01*
%TO.N,/LCD/LCD_SPI_CLK*%
X138947300Y-59366206D02*
X143897300Y-59366206D01*
%TO.N,/LCD/LCD_TP_RST*%
X152947300Y-57187073D02*
X152947300Y-54405400D01*
%TO.N,/LCD/LCD_SPI_CS*%
X143897300Y-58266200D02*
X139447300Y-58266200D01*
%TO.N,/LCD/LCD_R4*%
X142297300Y-61716209D02*
X138597300Y-61716209D01*
%TO.N,/LCD/LCD_RESET*%
X143897300Y-58816203D02*
X136947300Y-58816203D01*
%TO.N,/MCU/I2S_WS*%
X137334073Y-74085202D02*
X134290602Y-74085202D01*
X134290602Y-74085202D02*
X134289800Y-74084400D01*
%TO.N,/LCD/LCD_R6*%
X137247300Y-62166209D02*
X142747300Y-62166209D01*
%TO.N,/MCU/I2S_SDO*%
X152336826Y-68707000D02*
X154135100Y-70505274D01*
X122047000Y-69725900D02*
X123548500Y-69725900D01*
X134924800Y-71932800D02*
X138150600Y-68707000D01*
X158546800Y-80187800D02*
X159260200Y-79474400D01*
X138150600Y-68707000D02*
X152336826Y-68707000D01*
X154135100Y-70505274D02*
X154135100Y-79306700D01*
X154135100Y-79306700D02*
X155016200Y-80187800D01*
X155016200Y-80187800D02*
X158546800Y-80187800D01*
X160144800Y-79474400D02*
X160502600Y-79832200D01*
X125755400Y-71932800D02*
X134924800Y-71932800D01*
X123548500Y-69725900D02*
X125755400Y-71932800D01*
X159260200Y-79474400D02*
X160144800Y-79474400D01*
%TO.N,/IO/STEMMA_SDA*%
X155778200Y-104216200D02*
X160248600Y-108686600D01*
X160248600Y-108686600D02*
X168669026Y-108686600D01*
X180517800Y-91224426D02*
X180517800Y-70535800D01*
X145923000Y-104216200D02*
X155778200Y-104216200D01*
X180517800Y-70535800D02*
X178686000Y-68704000D01*
X168669026Y-108686600D02*
X178968400Y-98387226D01*
X178968400Y-92773826D02*
X180517800Y-91224426D01*
X178686000Y-68704000D02*
X178686000Y-68173600D01*
X178968400Y-98387226D02*
X178968400Y-92773826D01*
%TO.N,/IO/STEMMA_SCL*%
X145110200Y-104216200D02*
X145618200Y-104724200D01*
X179318400Y-92918800D02*
X180867800Y-91369400D01*
X180867800Y-70390826D02*
X179956000Y-69479026D01*
X145618200Y-104724200D02*
X155791226Y-104724200D01*
X155791226Y-104724200D02*
X160103626Y-109036600D01*
X179956000Y-69479026D02*
X179956000Y-68173600D01*
X179318400Y-98532200D02*
X179318400Y-92918800D01*
X168814000Y-109036600D02*
X179318400Y-98532200D01*
X180867800Y-91369400D02*
X180867800Y-70390826D01*
X160103626Y-109036600D02*
X168814000Y-109036600D01*
%TO.N,/LCD/HSYNC*%
X155203800Y-53104818D02*
X153345480Y-51246498D01*
X142051300Y-51718600D02*
X141447300Y-52322600D01*
X155203800Y-78689200D02*
X155203800Y-53104818D01*
X145699904Y-52322600D02*
X145095904Y-51718600D01*
X149779619Y-52322600D02*
X145699904Y-52322600D01*
X150855720Y-51246498D02*
X149779619Y-52322600D01*
X153345480Y-51246498D02*
X150855720Y-51246498D01*
X145095904Y-51718600D02*
X142051300Y-51718600D01*
%TO.N,/MCU/PE0*%
X146722903Y-84574400D02*
X139482903Y-77334400D01*
X155859700Y-84574400D02*
X146722903Y-84574400D01*
X118087100Y-78902274D02*
X118087100Y-80791000D01*
X139482903Y-77334400D02*
X119654974Y-77334400D01*
X160009700Y-80424400D02*
X155859700Y-84574400D01*
X119654974Y-77334400D02*
X118087100Y-78902274D01*
%TO.N,/LCD/VSYNC*%
X140947300Y-60366209D02*
X139047300Y-60366209D01*
%TO.N,/LCD/LCD_G2*%
X141397300Y-60816209D02*
X138150600Y-60816209D01*
%TO.N,/LCD/LCD_G6*%
X150710745Y-50896498D02*
X149923644Y-51683600D01*
X148970955Y-51683600D02*
X148520955Y-51233600D01*
X153490454Y-50896498D02*
X150710745Y-50896498D01*
X148520955Y-51233600D02*
X147586300Y-51233600D01*
X155703800Y-78282800D02*
X155703800Y-53109844D01*
X147586300Y-51233600D02*
X146947300Y-51872600D01*
X149923644Y-51683600D02*
X148970955Y-51683600D01*
X155703800Y-53109844D02*
X153490454Y-50896498D01*
%TO.N,/LCD/LCD_G3*%
X156190200Y-53101270D02*
X153635428Y-50546498D01*
X149115929Y-51333600D02*
X148665929Y-50883600D01*
X149778670Y-51333600D02*
X149115929Y-51333600D01*
X156203800Y-78689200D02*
X156190200Y-78675600D01*
X150565770Y-50546498D02*
X149778670Y-51333600D01*
X156190200Y-78675600D02*
X156190200Y-53101270D01*
X148665929Y-50883600D02*
X145997300Y-50883600D01*
X153635428Y-50546498D02*
X150565770Y-50546498D01*
X145997300Y-50883600D02*
X145447300Y-51433600D01*
%TO.N,/LCD/LCD_R7*%
X143197300Y-62616209D02*
X139497300Y-62616209D01*
%TO.N,/LCD/LCD_R3*%
X137697300Y-61266209D02*
X141847300Y-61266209D01*
%TO.N,/MCU/SD_DAT2*%
X169269400Y-101473000D02*
X166827200Y-101473000D01*
%TO.N,/IO/NRST*%
X149225000Y-122961400D02*
X149047200Y-123139200D01*
X110947200Y-114960400D02*
X110947200Y-101269800D01*
X119126000Y-123139200D02*
X110947200Y-114960400D01*
X149885400Y-122072400D02*
X149885400Y-121640600D01*
X149885400Y-121640600D02*
X149733000Y-121488200D01*
X113309400Y-98907600D02*
X115570000Y-98907600D01*
X110947200Y-101269800D02*
X113309400Y-98907600D01*
X149047200Y-123139200D02*
X119126000Y-123139200D01*
X149225000Y-121666000D02*
X149225000Y-122961400D01*
X149402800Y-121488200D02*
X149225000Y-121666000D01*
X149733000Y-121488200D02*
X149402800Y-121488200D01*
%TO.N,/IO/SWCLK*%
X154457400Y-122986800D02*
X155270200Y-122986800D01*
X155448000Y-122809000D02*
X155448000Y-119316174D01*
X155270200Y-122986800D02*
X155448000Y-122809000D01*
X155448000Y-119316174D02*
X160976403Y-113787771D01*
X154330400Y-122859800D02*
X154457400Y-122986800D01*
X153695400Y-122072400D02*
X153695400Y-121564400D01*
X154330400Y-121564400D02*
X154330400Y-122859800D01*
X160976403Y-113787771D02*
X160976403Y-111887000D01*
X154203400Y-121437400D02*
X154330400Y-121564400D01*
X153695400Y-121564400D02*
X153822400Y-121437400D01*
X153822400Y-121437400D02*
X154203400Y-121437400D01*
%TO.N,/IO/SWDIO*%
X160426400Y-113842800D02*
X160426400Y-111887000D01*
X154965400Y-122072400D02*
X154965400Y-119303800D01*
X154965400Y-119303800D02*
X160426400Y-113842800D01*
%TO.N,/MCU/SDRAM_DQ4*%
X134500298Y-83320528D02*
X134500298Y-85068672D01*
X127460298Y-83320528D02*
X127460298Y-85068672D01*
X127108298Y-85156672D02*
X127020298Y-85068672D01*
X129308298Y-83232528D02*
X129220298Y-83320528D01*
X128780298Y-85068660D02*
X128780298Y-83320528D01*
X135292298Y-85156660D02*
X135028298Y-85156660D01*
X131068298Y-83232528D02*
X130980298Y-83320528D01*
X134852298Y-83232528D02*
X134588298Y-83232528D01*
X133620298Y-85068672D02*
X133532298Y-85156672D01*
X130540298Y-85068660D02*
X130540298Y-83320528D01*
X135908298Y-85156660D02*
X135820298Y-85068660D01*
X128340298Y-83320528D02*
X128340298Y-85068672D01*
X126228298Y-85156684D02*
X126140298Y-85068684D01*
X127548298Y-83232528D02*
X127460298Y-83320528D01*
X134940298Y-85068660D02*
X134940298Y-83320528D01*
X127460298Y-85068672D02*
X127372298Y-85156672D01*
X132388298Y-85156672D02*
X132300298Y-85068672D01*
X131948298Y-83232528D02*
X131860298Y-83320528D01*
X131860298Y-85068672D02*
X131772298Y-85156672D01*
X126052298Y-84194600D02*
X125437160Y-84194600D01*
X127812298Y-83232528D02*
X127548298Y-83232528D01*
X133620298Y-83320528D02*
X133620298Y-85068672D01*
X132828298Y-83232540D02*
X132740298Y-83320540D01*
X131332298Y-83232528D02*
X131068298Y-83232528D01*
X127900298Y-83320528D02*
X127812298Y-83232528D01*
X130100298Y-83320528D02*
X130100298Y-85068672D01*
X130980298Y-85068660D02*
X130892298Y-85156660D01*
X128252298Y-85156672D02*
X127988298Y-85156672D01*
X137886300Y-84194600D02*
X136348298Y-84194600D01*
X129572298Y-83232528D02*
X129308298Y-83232528D01*
X129660298Y-85068672D02*
X129660298Y-83320528D01*
X130892298Y-85156660D02*
X130628298Y-85156660D01*
X130980298Y-83320528D02*
X130980298Y-85068660D01*
X136172298Y-85156660D02*
X135908298Y-85156660D01*
X136260298Y-84282600D02*
X136260298Y-85068660D01*
X138340900Y-89424400D02*
X138114900Y-89198400D01*
X135380298Y-85068660D02*
X135292298Y-85156660D01*
X130012298Y-85156672D02*
X129748298Y-85156672D01*
X129748298Y-85156672D02*
X129660298Y-85068672D01*
X134500298Y-85068672D02*
X134412298Y-85156672D01*
X133268298Y-85156672D02*
X133180298Y-85068672D01*
X134148298Y-85156672D02*
X134060298Y-85068672D01*
X135732298Y-83232540D02*
X135468298Y-83232540D01*
X136260298Y-85068660D02*
X136172298Y-85156660D01*
X133180298Y-85068672D02*
X133180298Y-83320540D01*
X133532298Y-85156672D02*
X133268298Y-85156672D01*
X135820298Y-83320540D02*
X135732298Y-83232540D01*
X138114900Y-89198400D02*
X138114900Y-84423200D01*
X131772298Y-85156672D02*
X131508298Y-85156672D01*
X133972298Y-83232528D02*
X133708298Y-83232528D01*
X138114900Y-84423200D02*
X137886300Y-84194600D01*
X129220298Y-83320528D02*
X129220298Y-85068660D01*
X126580298Y-83320540D02*
X126580298Y-85068684D01*
X128780298Y-83320528D02*
X128692298Y-83232528D01*
X130100298Y-85068672D02*
X130012298Y-85156672D01*
X127372298Y-85156672D02*
X127108298Y-85156672D01*
X126492298Y-85156684D02*
X126228298Y-85156684D01*
X126580298Y-85068684D02*
X126492298Y-85156684D01*
X128428298Y-83232528D02*
X128340298Y-83320528D01*
X128340298Y-85068672D02*
X128252298Y-85156672D01*
X130540298Y-83320528D02*
X130452298Y-83232528D01*
X126932298Y-83232540D02*
X126668298Y-83232540D01*
X125437160Y-84194600D02*
X124043300Y-84194600D01*
X134940298Y-83320528D02*
X134852298Y-83232528D01*
X134060298Y-85068672D02*
X134060298Y-83320528D01*
X126668298Y-83232540D02*
X126580298Y-83320540D01*
X129660298Y-83320528D02*
X129572298Y-83232528D01*
X131508298Y-85156672D02*
X131420298Y-85068672D01*
X132652298Y-85156672D02*
X132388298Y-85156672D01*
X134412298Y-85156672D02*
X134148298Y-85156672D01*
X131860298Y-83320528D02*
X131860298Y-85068672D01*
X130452298Y-83232528D02*
X130188298Y-83232528D01*
X132212298Y-83232528D02*
X131948298Y-83232528D01*
X135820298Y-85068660D02*
X135820298Y-83320540D01*
X132300298Y-83320528D02*
X132212298Y-83232528D01*
X132300298Y-85068672D02*
X132300298Y-83320528D01*
X136348298Y-84194600D02*
X136260298Y-84282600D01*
X134588298Y-83232528D02*
X134500298Y-83320528D01*
X129132298Y-85156660D02*
X128868298Y-85156660D01*
X134060298Y-83320528D02*
X133972298Y-83232528D01*
X127020298Y-83320540D02*
X126932298Y-83232540D01*
X133092298Y-83232540D02*
X132828298Y-83232540D01*
X123687100Y-83838400D02*
X123687100Y-83077000D01*
X129220298Y-85068660D02*
X129132298Y-85156660D01*
X127020298Y-85068672D02*
X127020298Y-83320540D01*
X130628298Y-85156660D02*
X130540298Y-85068660D01*
X135028298Y-85156660D02*
X134940298Y-85068660D01*
X127988298Y-85156672D02*
X127900298Y-85068672D01*
X138673700Y-89424400D02*
X138340900Y-89424400D01*
X133180298Y-83320540D02*
X133092298Y-83232540D01*
X128868298Y-85156660D02*
X128780298Y-85068660D01*
X130188298Y-83232528D02*
X130100298Y-83320528D01*
X132740298Y-83320540D02*
X132740298Y-85068672D01*
X126140298Y-85068684D02*
X126140298Y-84282600D01*
X131420298Y-85068672D02*
X131420298Y-83320528D01*
X132740298Y-85068672D02*
X132652298Y-85156672D01*
X124043300Y-84194600D02*
X123687100Y-83838400D01*
X131420298Y-83320528D02*
X131332298Y-83232528D01*
X126140298Y-84282600D02*
X126052298Y-84194600D01*
X135468298Y-83232540D02*
X135380298Y-83320540D01*
X127900298Y-85068672D02*
X127900298Y-83320528D01*
X133708298Y-83232528D02*
X133620298Y-83320528D01*
X128692298Y-83232528D02*
X128428298Y-83232528D01*
X135380298Y-83320540D02*
X135380298Y-85068660D01*
%TO.N,/MCU/SDRAM_DQ2*%
X151137400Y-89566553D02*
X151347400Y-89566553D01*
X151067400Y-89796553D02*
X151067400Y-89636553D01*
X151837400Y-89566553D02*
X152527000Y-89566553D01*
X151767400Y-89796553D02*
X151767400Y-89636553D01*
X150717400Y-89636553D02*
X150717400Y-89796553D01*
X150647400Y-89566553D02*
X150717400Y-89636553D01*
X151067400Y-89636553D02*
X151137400Y-89566553D01*
X151697400Y-89866553D02*
X151767400Y-89796553D01*
X151487400Y-89866553D02*
X151697400Y-89866553D01*
X151347400Y-89566553D02*
X151417400Y-89636553D01*
X150787400Y-89866553D02*
X150997400Y-89866553D01*
X150717400Y-89796553D02*
X150787400Y-89866553D01*
X150997400Y-89866553D02*
X151067400Y-89796553D01*
X151417400Y-89636553D02*
X151417400Y-89796553D01*
X151417400Y-89796553D02*
X151487400Y-89866553D01*
X151767400Y-89636553D02*
X151837400Y-89566553D01*
%TO.N,/MCU/SDRAM_DQ13*%
X143702900Y-103320800D02*
X143702900Y-99460900D01*
X143702900Y-99460900D02*
X143703800Y-99460000D01*
%TO.N,/MCU/SDRAM_DQ6*%
X129382972Y-90424400D02*
X129282972Y-90324400D01*
X135282972Y-88176664D02*
X135182972Y-88076664D01*
X132282972Y-90324400D02*
X132282972Y-88176664D01*
X133382972Y-90424400D02*
X133282972Y-90324400D01*
X134282972Y-88176664D02*
X134182972Y-88076664D01*
X129782972Y-90324400D02*
X129682972Y-90424400D01*
X128182972Y-88076645D02*
X127882972Y-88076645D01*
X130782972Y-88176664D02*
X130782972Y-90324400D01*
X137236200Y-87680800D02*
X137097200Y-87541800D01*
X130382972Y-90424400D02*
X130282972Y-90324400D01*
X131782972Y-90324400D02*
X131682972Y-90424400D01*
X132382972Y-90424400D02*
X132282972Y-90324400D01*
X127882972Y-88076645D02*
X127782972Y-88176645D01*
X138673700Y-90424400D02*
X138024000Y-90424400D01*
X129782972Y-88176664D02*
X129782972Y-90324400D01*
X129682972Y-90424400D02*
X129382972Y-90424400D01*
X132782972Y-90324400D02*
X132682972Y-90424400D01*
X128282972Y-90324400D02*
X128282972Y-88176645D01*
X121287100Y-85933548D02*
X121287100Y-83077000D01*
X132882972Y-88126668D02*
X132782972Y-88226668D01*
X130282972Y-90324400D02*
X130282972Y-88176664D01*
X130682972Y-90424400D02*
X130382972Y-90424400D01*
X131682972Y-90424400D02*
X131382972Y-90424400D01*
X133282972Y-88226668D02*
X133182972Y-88126668D01*
X134182972Y-88076664D02*
X133882972Y-88076664D01*
X129282972Y-90324400D02*
X129282972Y-88176664D01*
X132182972Y-88076664D02*
X131882972Y-88076664D01*
X130282972Y-88176664D02*
X130182972Y-88076664D01*
X136206800Y-87541800D02*
X135966200Y-87782400D01*
X134782972Y-90324400D02*
X134682972Y-90424400D01*
X132282972Y-88176664D02*
X132182972Y-88076664D01*
X128782972Y-88176664D02*
X128782972Y-90324400D01*
X135966200Y-90195400D02*
X135737200Y-90424400D01*
X134382972Y-90424400D02*
X134282972Y-90324400D01*
X126291484Y-90424400D02*
X125777952Y-90424400D01*
X130882972Y-88076664D02*
X130782972Y-88176664D01*
X127782972Y-90324400D02*
X127682972Y-90424400D01*
X134282972Y-90324400D02*
X134282972Y-88176664D01*
X135382972Y-90424400D02*
X135282972Y-90324400D01*
X134782972Y-88176664D02*
X134782972Y-90324400D01*
X132782972Y-88226668D02*
X132782972Y-90324400D01*
X130182972Y-88076664D02*
X129882972Y-88076664D01*
X133782972Y-90324400D02*
X133682972Y-90424400D01*
X131182972Y-88076664D02*
X130882972Y-88076664D01*
X135737200Y-90424400D02*
X135382972Y-90424400D01*
X128782972Y-90324400D02*
X128682972Y-90424400D01*
X128382972Y-90424400D02*
X128282972Y-90324400D01*
X133782972Y-88176664D02*
X133782972Y-90324400D01*
X135282972Y-90324400D02*
X135282972Y-88176664D01*
X128682972Y-90424400D02*
X128382972Y-90424400D01*
X125777952Y-90424400D02*
X121287100Y-85933548D01*
X130782972Y-90324400D02*
X130682972Y-90424400D01*
X134682972Y-90424400D02*
X134382972Y-90424400D01*
X135182972Y-88076664D02*
X134882972Y-88076664D01*
X131782972Y-88176664D02*
X131782972Y-90324400D01*
X133682972Y-90424400D02*
X133382972Y-90424400D01*
X137097200Y-87541800D02*
X136206800Y-87541800D01*
X134882972Y-88076664D02*
X134782972Y-88176664D01*
X133282972Y-90324400D02*
X133282972Y-88226668D01*
X127682972Y-90424400D02*
X126291484Y-90424400D01*
X129182972Y-88076664D02*
X128882972Y-88076664D01*
X127782972Y-88176645D02*
X127782972Y-90324400D01*
X132682972Y-90424400D02*
X132382972Y-90424400D01*
X135966200Y-87782400D02*
X135966200Y-90195400D01*
X131282972Y-90324400D02*
X131282972Y-88176664D01*
X128282972Y-88176645D02*
X128182972Y-88076645D01*
X128882972Y-88076664D02*
X128782972Y-88176664D01*
X129882972Y-88076664D02*
X129782972Y-88176664D01*
X129282972Y-88176664D02*
X129182972Y-88076664D01*
X131382972Y-90424400D02*
X131282972Y-90324400D01*
X133182972Y-88126668D02*
X132882972Y-88126668D01*
X131882972Y-88076664D02*
X131782972Y-88176664D01*
X138024000Y-90424400D02*
X137236200Y-89636600D01*
X131282972Y-88176664D02*
X131182972Y-88076664D01*
X133882972Y-88076664D02*
X133782972Y-88176664D01*
X137236200Y-89636600D02*
X137236200Y-87680800D01*
%TO.N,/MCU/SDRAM_ADD0*%
X151701578Y-82693600D02*
X151605578Y-82597600D01*
X150741578Y-83673108D02*
X150741578Y-82693600D01*
X147326376Y-82797600D02*
X146713871Y-82797600D01*
X154197578Y-82797600D02*
X154101578Y-82893600D01*
X153621578Y-82693600D02*
X153525578Y-82597600D01*
X151125578Y-83769108D02*
X150837578Y-83769108D01*
X154005578Y-83780228D02*
X153717578Y-83780228D01*
X152757578Y-83778055D02*
X152661578Y-83682055D01*
X152565578Y-82597600D02*
X152277578Y-82597600D01*
X152277578Y-82597600D02*
X152181578Y-82693600D01*
X150261578Y-82693600D02*
X150261578Y-83658850D01*
X149877578Y-83754850D02*
X149781578Y-83658850D01*
X150357578Y-82597600D02*
X150261578Y-82693600D01*
X154701100Y-80551493D02*
X154701100Y-82619800D01*
X149685578Y-82590350D02*
X149397578Y-82590350D01*
X150261578Y-83658850D02*
X150165578Y-83754850D01*
X153141578Y-83682055D02*
X153045578Y-83778055D01*
X153525578Y-82597600D02*
X153237578Y-82597600D01*
X153717578Y-83780228D02*
X153621578Y-83684228D01*
X153045578Y-83778055D02*
X152757578Y-83778055D01*
X152181578Y-83678796D02*
X152085578Y-83774796D01*
X154703800Y-80548793D02*
X154701100Y-80551493D01*
X146713871Y-82797600D02*
X140200671Y-76284400D01*
X149397578Y-82590350D02*
X149301578Y-82686350D01*
X149301578Y-82686350D02*
X149301578Y-82701600D01*
X152085578Y-83774796D02*
X151797578Y-83774796D01*
X151221578Y-83673108D02*
X151125578Y-83769108D01*
X140200671Y-76284400D02*
X116193700Y-76284400D01*
X150645578Y-82597600D02*
X150357578Y-82597600D01*
X152661578Y-82693600D02*
X152565578Y-82597600D01*
X152661578Y-83682055D02*
X152661578Y-82693600D01*
X149205578Y-82797600D02*
X147326376Y-82797600D01*
X154701100Y-82619800D02*
X154523300Y-82797600D01*
X154101578Y-83684228D02*
X154005578Y-83780228D01*
X151221578Y-82693600D02*
X151221578Y-83673108D01*
X150837578Y-83769108D02*
X150741578Y-83673108D01*
X150165578Y-83754850D02*
X149877578Y-83754850D01*
X150741578Y-82693600D02*
X150645578Y-82597600D01*
X151701578Y-83678796D02*
X151701578Y-82693600D01*
X149301578Y-82701600D02*
X149205578Y-82797600D01*
X149781578Y-83658850D02*
X149781578Y-82686350D01*
X116193700Y-76284400D02*
X111687100Y-80791000D01*
X154523300Y-82797600D02*
X154197578Y-82797600D01*
X153141578Y-82693600D02*
X153141578Y-83682055D01*
X154101578Y-82893600D02*
X154101578Y-83684228D01*
X153621578Y-83684228D02*
X153621578Y-82693600D01*
X151797578Y-83774796D02*
X151701578Y-83678796D01*
X151605578Y-82597600D02*
X151317578Y-82597600D01*
X153237578Y-82597600D02*
X153141578Y-82693600D01*
X151317578Y-82597600D02*
X151221578Y-82693600D01*
X152181578Y-82693600D02*
X152181578Y-83678796D01*
X149781578Y-82686350D02*
X149685578Y-82590350D01*
%TO.N,/MCU/SDRAM_ADD3*%
X151256278Y-79298575D02*
X151132278Y-79174575D01*
X151132278Y-79174575D02*
X151132278Y-77501421D01*
X148652278Y-77751422D02*
X148528278Y-77627422D01*
X152496278Y-79013000D02*
X152372278Y-78889000D01*
X149272278Y-79174575D02*
X149148278Y-79298575D01*
X150636278Y-77377421D02*
X150512278Y-77501421D01*
X148032278Y-77751422D02*
X148032278Y-78889000D01*
X153024700Y-79013000D02*
X152496278Y-79013000D01*
X150388278Y-79298575D02*
X150016278Y-79298575D01*
X148652278Y-79174575D02*
X148652278Y-77751422D01*
X145386001Y-79013000D02*
X144414193Y-79013000D01*
X153202500Y-78835200D02*
X153024700Y-79013000D01*
X148776278Y-79298575D02*
X148652278Y-79174575D01*
X148156278Y-77627422D02*
X148032278Y-77751422D01*
X114843700Y-75234400D02*
X109287100Y-80791000D01*
X152372278Y-77451420D02*
X152248278Y-77327420D01*
X151008278Y-77377421D02*
X150636278Y-77377421D01*
X151628278Y-79298575D02*
X151256278Y-79298575D01*
X148032278Y-78889000D02*
X147908278Y-79013000D01*
X148528278Y-77627422D02*
X148156278Y-77627422D01*
X147908278Y-79013000D02*
X145386001Y-79013000D01*
X149148278Y-79298575D02*
X148776278Y-79298575D01*
X149396278Y-77327420D02*
X149272278Y-77451420D01*
X151752278Y-77451420D02*
X151752278Y-79174575D01*
X150512278Y-77501421D02*
X150512278Y-79174575D01*
X143752652Y-78351459D02*
X143752652Y-77052252D01*
X153202500Y-78454200D02*
X153202500Y-78835200D01*
X150016278Y-79298575D02*
X149892278Y-79174575D01*
X149272278Y-77451420D02*
X149272278Y-79174575D01*
X144414193Y-79013000D02*
X143752652Y-78351459D01*
X151752278Y-79174575D02*
X151628278Y-79298575D01*
X143752652Y-77052252D02*
X141934800Y-75234400D01*
X141934800Y-75234400D02*
X114843700Y-75234400D01*
X149768278Y-77327420D02*
X149396278Y-77327420D01*
X151132278Y-77501421D02*
X151008278Y-77377421D01*
X150512278Y-79174575D02*
X150388278Y-79298575D01*
X149892278Y-77451420D02*
X149768278Y-77327420D01*
X151876278Y-77327420D02*
X151752278Y-77451420D01*
X152372278Y-78889000D02*
X152372278Y-77451420D01*
X152248278Y-77327420D02*
X151876278Y-77327420D01*
X149892278Y-79174575D02*
X149892278Y-77451420D01*
%TO.N,/MCU/SDRAM_DQ5*%
X130840400Y-85756500D02*
X130738400Y-85654500D01*
X134818400Y-85654500D02*
X134512400Y-85654500D01*
X127678400Y-85654511D02*
X127372400Y-85654511D01*
X127270400Y-88627100D02*
X127168400Y-88729100D01*
X135940400Y-87089800D02*
X135940400Y-85756489D01*
X131860400Y-85756500D02*
X131758400Y-85654500D01*
X128800400Y-85756511D02*
X128698400Y-85654511D01*
X133390400Y-87577098D02*
X133288400Y-87679098D01*
X128290400Y-85756511D02*
X128290400Y-87527108D01*
X131452400Y-85654500D02*
X131350400Y-85756500D01*
X135940400Y-85756489D02*
X135838400Y-85654489D01*
X135328400Y-87629108D02*
X135022400Y-87629108D01*
X133390400Y-85756500D02*
X133390400Y-87577098D01*
X129922400Y-87629108D02*
X129820400Y-87527108D01*
X133492400Y-85654500D02*
X133390400Y-85756500D01*
X131860400Y-87527108D02*
X131860400Y-85756500D01*
X129820400Y-85756511D02*
X129718400Y-85654511D01*
X138318100Y-89924400D02*
X137764900Y-89371200D01*
X126760400Y-85756500D02*
X126658400Y-85654500D01*
X127780400Y-85756511D02*
X127678400Y-85654511D01*
X126862400Y-88729100D02*
X126760400Y-88627100D01*
X127168400Y-88729100D02*
X126862400Y-88729100D01*
X130330400Y-87527108D02*
X130228400Y-87629108D01*
X132982400Y-87679098D02*
X132880400Y-87577098D01*
X127780400Y-87527108D02*
X127780400Y-85756511D01*
X130432400Y-85654500D02*
X130330400Y-85756500D01*
X131350400Y-85756500D02*
X131350400Y-87527108D01*
X127882400Y-87629108D02*
X127780400Y-87527108D01*
X125638400Y-87191800D02*
X125110100Y-87191800D01*
X132268400Y-87629108D02*
X131962400Y-87629108D01*
X130738400Y-85654500D02*
X130432400Y-85654500D01*
X131350400Y-87527108D02*
X131248400Y-87629108D01*
X126148400Y-88729100D02*
X125842400Y-88729100D01*
X129718400Y-85654511D02*
X129412400Y-85654511D01*
X135430400Y-87527108D02*
X135328400Y-87629108D01*
X124803638Y-86885338D02*
X122087100Y-84168800D01*
X125740400Y-88627100D02*
X125740400Y-87293800D01*
X126250400Y-88627100D02*
X126148400Y-88729100D01*
X131962400Y-87629108D02*
X131860400Y-87527108D01*
X134920400Y-87527108D02*
X134920400Y-85756500D01*
X125740400Y-87293800D02*
X125638400Y-87191800D01*
X126352400Y-85654500D02*
X126250400Y-85756500D01*
X132880400Y-87577098D02*
X132880400Y-85756500D01*
X132880400Y-85756500D02*
X132778400Y-85654500D01*
X130942400Y-87629108D02*
X130840400Y-87527108D01*
X130840400Y-87527108D02*
X130840400Y-85756500D01*
X134308400Y-87629108D02*
X134002400Y-87629108D01*
X129820400Y-87527108D02*
X129820400Y-85756511D01*
X127372400Y-85654511D02*
X127270400Y-85756511D01*
X137454500Y-87191800D02*
X136042400Y-87191800D01*
X129208400Y-87629108D02*
X128902400Y-87629108D01*
X131758400Y-85654500D02*
X131452400Y-85654500D01*
X134512400Y-85654500D02*
X134410400Y-85756500D01*
X133798400Y-85654500D02*
X133492400Y-85654500D01*
X125110100Y-87191800D02*
X124803638Y-86885338D01*
X128290400Y-87527108D02*
X128188400Y-87629108D01*
X133900400Y-85756500D02*
X133798400Y-85654500D01*
X131248400Y-87629108D02*
X130942400Y-87629108D01*
X132778400Y-85654500D02*
X132472400Y-85654500D01*
X128902400Y-87629108D02*
X128800400Y-87527108D01*
X128800400Y-87527108D02*
X128800400Y-85756511D01*
X134920400Y-85756500D02*
X134818400Y-85654500D01*
X130330400Y-85756500D02*
X130330400Y-87527108D01*
X133288400Y-87679098D02*
X132982400Y-87679098D01*
X133900400Y-87527108D02*
X133900400Y-85756500D01*
X129310400Y-87527108D02*
X129208400Y-87629108D01*
X122087100Y-84168800D02*
X122087100Y-83077000D01*
X126760400Y-88627100D02*
X126760400Y-85756500D01*
X136042400Y-87191800D02*
X135940400Y-87089800D01*
X126250400Y-85756500D02*
X126250400Y-88627100D01*
X127270400Y-85756511D02*
X127270400Y-88627100D01*
X129412400Y-85654511D02*
X129310400Y-85756511D01*
X132472400Y-85654500D02*
X132370400Y-85756500D01*
X135838400Y-85654489D02*
X135532400Y-85654489D01*
X134002400Y-87629108D02*
X133900400Y-87527108D01*
X135022400Y-87629108D02*
X134920400Y-87527108D01*
X130228400Y-87629108D02*
X129922400Y-87629108D01*
X137764900Y-89371200D02*
X137764900Y-87502200D01*
X126658400Y-85654500D02*
X126352400Y-85654500D01*
X129310400Y-85756511D02*
X129310400Y-87527108D01*
X135430400Y-85756489D02*
X135430400Y-87527108D01*
X132370400Y-85756500D02*
X132370400Y-87527108D01*
X134410400Y-85756500D02*
X134410400Y-87527108D01*
X134410400Y-87527108D02*
X134308400Y-87629108D01*
X128392400Y-85654511D02*
X128290400Y-85756511D01*
X137764900Y-87502200D02*
X137454500Y-87191800D01*
X135532400Y-85654489D02*
X135430400Y-85756489D01*
X128188400Y-87629108D02*
X127882400Y-87629108D01*
X132370400Y-87527108D02*
X132268400Y-87629108D01*
X128698400Y-85654511D02*
X128392400Y-85654511D01*
X125842400Y-88729100D02*
X125740400Y-88627100D01*
%TO.N,/MCU/SDRAM_DQ7*%
X119947051Y-86994234D02*
X119696735Y-86743918D01*
X134781562Y-91924400D02*
X134667562Y-92038400D01*
X123868659Y-90748989D02*
X124654673Y-89962972D01*
X128283562Y-90986303D02*
X127941562Y-90986303D01*
X125489061Y-90630483D02*
X125238746Y-90380168D01*
X126782978Y-91924400D02*
X126073133Y-91214555D01*
X125071868Y-90380168D02*
X124285851Y-91166182D01*
X132387562Y-91100315D02*
X132387562Y-92748497D01*
X122450212Y-89497395D02*
X122199896Y-89247079D01*
X134097562Y-92748485D02*
X134097562Y-91100303D01*
X134667562Y-92748485D02*
X134553562Y-92862485D01*
X133983562Y-90986303D02*
X133641562Y-90986303D01*
X128853562Y-92862497D02*
X128511562Y-92862497D01*
X121317126Y-86458548D02*
X121066811Y-86208233D01*
X123820287Y-88961709D02*
X123569972Y-88711394D01*
X138673700Y-91924400D02*
X138326600Y-91924400D01*
X130791562Y-92862497D02*
X130677562Y-92748497D01*
X120482738Y-85624160D02*
X120198751Y-85340173D01*
X120531111Y-87578319D02*
X120531111Y-87411441D01*
X131817562Y-91100303D02*
X131703562Y-90986303D01*
X119696735Y-86577040D02*
X120482738Y-85791038D01*
X123569972Y-88711394D02*
X123403094Y-88711394D01*
X131931562Y-92862497D02*
X131817562Y-92748497D01*
X131361562Y-90986303D02*
X131247562Y-91100303D01*
X132387562Y-92748497D02*
X132273562Y-92862497D01*
X119687100Y-84828522D02*
X119687100Y-83077000D01*
X121365509Y-88412692D02*
X121365509Y-88245814D01*
X134097562Y-91100303D02*
X133983562Y-90986303D01*
X123403094Y-88711394D02*
X122617090Y-89497395D01*
X121734320Y-87042620D02*
X120948303Y-87828634D01*
X122199896Y-89080201D02*
X122985899Y-88294199D01*
X120948303Y-87828634D02*
X120781427Y-87828635D01*
X129537562Y-92748485D02*
X129537562Y-91100303D01*
X123820286Y-89128585D02*
X123820287Y-88961709D01*
X120781427Y-87828635D02*
X120531111Y-87578319D01*
X125120238Y-92000569D02*
X124953362Y-92000570D01*
X130221562Y-90986303D02*
X130107562Y-91100303D01*
X129993562Y-92862485D02*
X129651562Y-92862485D01*
X120198751Y-85340173D02*
X119687100Y-84828522D01*
X134553562Y-92862485D02*
X134211562Y-92862485D01*
X131247562Y-92748497D02*
X131133562Y-92862497D01*
X123284588Y-90331796D02*
X123034272Y-90081480D01*
X122985899Y-88294199D02*
X122985899Y-88127321D01*
X133527562Y-91100303D02*
X133527562Y-92748497D01*
X120113929Y-86994234D02*
X119947051Y-86994234D01*
X122568707Y-87877007D02*
X121782703Y-88663008D01*
X127827562Y-91100303D02*
X127827562Y-91810400D01*
X127827562Y-91810400D02*
X127713562Y-91924400D01*
X124654673Y-89962972D02*
X124654674Y-89796096D01*
X132957562Y-91100315D02*
X132843562Y-90986315D01*
X122199896Y-89247079D02*
X122199896Y-89080201D01*
X129423562Y-90986303D02*
X129081562Y-90986303D01*
X119696735Y-86743918D02*
X119696735Y-86577040D01*
X123868659Y-90915867D02*
X123868659Y-90748989D01*
X120899933Y-86208233D02*
X120113929Y-86994234D01*
X124703046Y-91750254D02*
X124703046Y-91583376D01*
X130677562Y-92748497D02*
X130677562Y-91100303D01*
X124237481Y-89545781D02*
X123451464Y-90331795D01*
X131817562Y-92748497D02*
X131817562Y-91100303D01*
X131703562Y-90986303D02*
X131361562Y-90986303D01*
X121901198Y-87042620D02*
X121734320Y-87042620D01*
X122151512Y-87292934D02*
X121901198Y-87042620D01*
X120482738Y-85791038D02*
X120482738Y-85624160D01*
X126073133Y-91214555D02*
X125906255Y-91214555D01*
X132501562Y-90986315D02*
X132387562Y-91100315D01*
X122735585Y-87877007D02*
X122568707Y-87877007D01*
X137225000Y-93026000D02*
X136180600Y-93026000D01*
X133641562Y-90986303D02*
X133527562Y-91100303D01*
X128967562Y-92748497D02*
X128853562Y-92862497D01*
X134211562Y-92862485D02*
X134097562Y-92748485D01*
X124285851Y-91166182D02*
X124118975Y-91166183D01*
X121615825Y-88663008D02*
X121365509Y-88412692D01*
X135661400Y-91924400D02*
X134781562Y-91924400D01*
X124703046Y-91583376D02*
X125489060Y-90797359D01*
X123034272Y-90081480D02*
X123034272Y-89914602D01*
X133413562Y-92862497D02*
X133071562Y-92862497D01*
X129651562Y-92862485D02*
X129537562Y-92748485D01*
X128397562Y-92748497D02*
X128397562Y-91100303D01*
X127941562Y-90986303D02*
X127827562Y-91100303D01*
X124953362Y-92000570D02*
X124703046Y-91750254D01*
X121365509Y-88245814D02*
X122151512Y-87459812D01*
X131133562Y-92862497D02*
X130791562Y-92862497D01*
X135813800Y-92659200D02*
X135813800Y-92076800D01*
X130563562Y-90986303D02*
X130221562Y-90986303D01*
X123034272Y-89914602D02*
X123820286Y-89128585D01*
X121782703Y-88663008D02*
X121615825Y-88663008D01*
X124654674Y-89796096D02*
X124404359Y-89545781D01*
X130107562Y-92748485D02*
X129993562Y-92862485D01*
X126999064Y-91924400D02*
X126782978Y-91924400D01*
X130677562Y-91100303D02*
X130563562Y-90986303D01*
X121066811Y-86208233D02*
X120899933Y-86208233D01*
X133527562Y-92748497D02*
X133413562Y-92862497D01*
X136180600Y-93026000D02*
X135813800Y-92659200D01*
X121317125Y-86625424D02*
X121317126Y-86458548D01*
X125906255Y-91214555D02*
X125120238Y-92000569D01*
X132273562Y-92862497D02*
X131931562Y-92862497D01*
X132957562Y-92748497D02*
X132957562Y-91100315D01*
X135813800Y-92076800D02*
X135661400Y-91924400D01*
X129537562Y-91100303D02*
X129423562Y-90986303D01*
X128397562Y-91100303D02*
X128283562Y-90986303D01*
X122151512Y-87459812D02*
X122151512Y-87292934D01*
X132843562Y-90986315D02*
X132501562Y-90986315D01*
X120531111Y-87411441D02*
X121317125Y-86625424D01*
X138326600Y-91924400D02*
X137225000Y-93026000D01*
X124118975Y-91166183D02*
X123868659Y-90915867D01*
X130107562Y-91100303D02*
X130107562Y-92748485D01*
X127713562Y-91924400D02*
X126999064Y-91924400D01*
X125489060Y-90797359D02*
X125489061Y-90630483D01*
X122617090Y-89497395D02*
X122450212Y-89497395D01*
X133071562Y-92862497D02*
X132957562Y-92748497D01*
X134667562Y-92038400D02*
X134667562Y-92748485D01*
X129081562Y-90986303D02*
X128967562Y-91100303D01*
X128967562Y-91100303D02*
X128967562Y-92748497D01*
X128511562Y-92862497D02*
X128397562Y-92748497D01*
X122985899Y-88127321D02*
X122735585Y-87877007D01*
X131247562Y-91100303D02*
X131247562Y-92748497D01*
X123451464Y-90331795D02*
X123284588Y-90331796D01*
X124404359Y-89545781D02*
X124237481Y-89545781D01*
X125238746Y-90380168D02*
X125071868Y-90380168D01*
%TO.N,/MCU/SDRAM_DQ1*%
X148331376Y-89116511D02*
X148331376Y-89215506D01*
X148232381Y-88621537D02*
X148331376Y-88621537D01*
X148479869Y-88473045D02*
X148578864Y-88473045D01*
X148083888Y-88374049D02*
X148083888Y-88473044D01*
X148331376Y-88621537D02*
X148479869Y-88473045D01*
X148083888Y-88473044D02*
X148232381Y-88621537D01*
X148974844Y-88968020D02*
X149073839Y-88968020D01*
X148727355Y-88621536D02*
X148727355Y-88720531D01*
X149073839Y-88968020D02*
X149466804Y-89360985D01*
X148479869Y-89363999D02*
X148578864Y-89363999D01*
X148578864Y-88473045D02*
X148727355Y-88621536D01*
X148727355Y-88720531D02*
X148331376Y-89116511D01*
X148578864Y-89363999D02*
X148974844Y-88968020D01*
X148331376Y-89215506D02*
X148479869Y-89363999D01*
X148232380Y-88225556D02*
X148083888Y-88374049D01*
X148232380Y-88126561D02*
X148232380Y-88225556D01*
%TO.N,/MCU/SDRAM_DQ3*%
X157040399Y-90582043D02*
X156873521Y-90582043D01*
X124487100Y-79373300D02*
X124487100Y-80816400D01*
X155621941Y-89330462D02*
X155621941Y-89163585D01*
X158794982Y-91864700D02*
X158676982Y-91982700D01*
X154066519Y-89884619D02*
X153398453Y-89216553D01*
X157606300Y-93424400D02*
X157153752Y-92971852D01*
X152050453Y-89098553D02*
X151932453Y-89216553D01*
X151342453Y-88106829D02*
X150988453Y-88106829D01*
X154900906Y-90719006D02*
X154650591Y-90468691D01*
X152640453Y-87724856D02*
X152522453Y-87606856D01*
X155067783Y-90719006D02*
X154900906Y-90719006D01*
X155621941Y-89163585D02*
X155371625Y-88913269D01*
X150988453Y-88106829D02*
X150870453Y-88224829D01*
X151460453Y-89098553D02*
X151460453Y-88224829D01*
X151460453Y-88224829D02*
X151342453Y-88106829D01*
X150752453Y-89216553D02*
X150312321Y-89216553D01*
X156873521Y-90582043D02*
X155902170Y-91553393D01*
X157153752Y-92971852D02*
X157153752Y-92804974D01*
X155204747Y-88913269D02*
X154233396Y-89884619D01*
X156456328Y-90164849D02*
X156456328Y-89997972D01*
X159984300Y-93424400D02*
X159384982Y-93424400D01*
X157877619Y-92081106D02*
X157877619Y-91914229D01*
X151932453Y-89216553D02*
X151578453Y-89216553D01*
X155902170Y-91553393D02*
X155735293Y-91553393D01*
X156319365Y-91970587D02*
X157290715Y-90999236D01*
X157877619Y-91914229D02*
X157627303Y-91663913D01*
X159148982Y-91864700D02*
X158794982Y-91864700D01*
X157153752Y-92804974D02*
X157877619Y-92081106D01*
X155484978Y-91303078D02*
X155484978Y-91136200D01*
X158676982Y-91982700D02*
X158676982Y-93306400D01*
X155484978Y-91136200D02*
X156456328Y-90164849D01*
X156569680Y-92387780D02*
X156319365Y-92137465D01*
X150870453Y-89098553D02*
X150752453Y-89216553D01*
X157290715Y-90999236D02*
X157290715Y-90832359D01*
X159266982Y-93306400D02*
X159266982Y-91982700D01*
X152050453Y-87724856D02*
X152050453Y-89098553D01*
X158676982Y-93306400D02*
X158558982Y-93424400D01*
X156039134Y-89747656D02*
X155067783Y-90719006D01*
X157290715Y-90832359D02*
X157040399Y-90582043D01*
X139130168Y-78034400D02*
X125826000Y-78034400D01*
X159266982Y-91982700D02*
X159148982Y-91864700D01*
X156319365Y-92137465D02*
X156319365Y-91970587D01*
X150312321Y-89216553D02*
X149050116Y-87954348D01*
X155371625Y-88913269D02*
X155204747Y-88913269D01*
X157627303Y-91663913D02*
X157460425Y-91663913D01*
X153398453Y-89216553D02*
X152758453Y-89216553D01*
X156456328Y-89997972D02*
X156206012Y-89747656D01*
X125826000Y-78034400D02*
X124487100Y-79373300D01*
X149050116Y-87954348D02*
X139130168Y-78034400D01*
X152522453Y-87606856D02*
X152168453Y-87606856D01*
X151578453Y-89216553D02*
X151460453Y-89098553D01*
X157460425Y-91663913D02*
X156736557Y-92387780D01*
X152640453Y-89098553D02*
X152640453Y-87724856D01*
X156206012Y-89747656D02*
X156039134Y-89747656D01*
X158558982Y-93424400D02*
X157606300Y-93424400D01*
X154233396Y-89884619D02*
X154066519Y-89884619D01*
X154650591Y-90468691D02*
X154650591Y-90301813D01*
X155735293Y-91553393D02*
X155484978Y-91303078D01*
X156736557Y-92387780D02*
X156569680Y-92387780D01*
X154650591Y-90301813D02*
X155621941Y-89330462D01*
X159384982Y-93424400D02*
X159266982Y-93306400D01*
X150870453Y-88224829D02*
X150870453Y-89098553D01*
X152758453Y-89216553D02*
X152640453Y-89098553D01*
X152168453Y-87606856D02*
X152050453Y-87724856D01*
%TO.N,/MCU/SDRAM_DQ14*%
X144203800Y-99739400D02*
X144203800Y-102216198D01*
%TO.N,/MCU/SDRAM_ADD2*%
X140490619Y-75584400D02*
X115293700Y-75584400D01*
X151667286Y-79719273D02*
X151301286Y-79719273D01*
X146299286Y-79841273D02*
X146299286Y-80745200D01*
X147397286Y-80867200D02*
X147031286Y-80867200D01*
X146421286Y-79719273D02*
X146299286Y-79841273D01*
X146909286Y-79841273D02*
X146787286Y-79719273D01*
X148617286Y-80867200D02*
X148251286Y-80867200D01*
X145773419Y-80867200D02*
X145136381Y-80230162D01*
X151789286Y-80745200D02*
X151789286Y-79841273D01*
X149959286Y-79841273D02*
X149959286Y-80745200D01*
X150081286Y-79719273D02*
X149959286Y-79841273D01*
X153532700Y-80867200D02*
X153131286Y-80867200D01*
X149837286Y-80867200D02*
X149471286Y-80867200D01*
X148129286Y-79841256D02*
X148007286Y-79719256D01*
X149349286Y-79841273D02*
X149227286Y-79719273D01*
X151911286Y-80867200D02*
X151789286Y-80745200D01*
X146787286Y-79719273D02*
X146421286Y-79719273D01*
X146909286Y-80745200D02*
X146909286Y-79841273D01*
X147519286Y-79841256D02*
X147519286Y-80745200D01*
X151057286Y-80867200D02*
X150691286Y-80867200D01*
X149227286Y-79719273D02*
X148861286Y-79719273D01*
X150569286Y-79841273D02*
X150447286Y-79719273D01*
X148739286Y-79841273D02*
X148739286Y-80745200D01*
X148007286Y-79719256D02*
X147641286Y-79719256D01*
X150569286Y-80745200D02*
X150569286Y-79841273D01*
X152277286Y-80867200D02*
X151911286Y-80867200D01*
X152399286Y-79841273D02*
X152399286Y-80745200D01*
X148861286Y-79719273D02*
X148739286Y-79841273D01*
X148739286Y-80745200D02*
X148617286Y-80867200D01*
X147641286Y-79719256D02*
X147519286Y-79841256D01*
X148251286Y-80867200D02*
X148129286Y-80745200D01*
X151179286Y-80745200D02*
X151057286Y-80867200D01*
X151179286Y-79841273D02*
X151179286Y-80745200D01*
X149959286Y-80745200D02*
X149837286Y-80867200D01*
X115293700Y-75584400D02*
X110087100Y-80791000D01*
X150447286Y-79719273D02*
X150081286Y-79719273D01*
X152399286Y-80745200D02*
X152277286Y-80867200D01*
X152887286Y-79719273D02*
X152521286Y-79719273D01*
X153685100Y-80714800D02*
X153532700Y-80867200D01*
X153685100Y-78124000D02*
X153685100Y-80714800D01*
X148129286Y-80745200D02*
X148129286Y-79841256D01*
X152521286Y-79719273D02*
X152399286Y-79841273D01*
X146177286Y-80867200D02*
X145773419Y-80867200D01*
X149349286Y-80745200D02*
X149349286Y-79841273D01*
X153009286Y-79841273D02*
X152887286Y-79719273D01*
X146299286Y-80745200D02*
X146177286Y-80867200D01*
X147519286Y-80745200D02*
X147397286Y-80867200D01*
X153131286Y-80867200D02*
X153009286Y-80745200D01*
X151789286Y-79841273D02*
X151667286Y-79719273D01*
X145136381Y-80230162D02*
X140490619Y-75584400D01*
X147031286Y-80867200D02*
X146909286Y-80745200D01*
X151301286Y-79719273D02*
X151179286Y-79841273D01*
X149471286Y-80867200D02*
X149349286Y-80745200D01*
X150691286Y-80867200D02*
X150569286Y-80745200D01*
X153009286Y-80745200D02*
X153009286Y-79841273D01*
%TO.N,/MCU/SDRAM_ADD1*%
X153734823Y-81217200D02*
X153628823Y-81323200D01*
X148434823Y-81217200D02*
X148328823Y-81323200D01*
X152144823Y-82209679D02*
X152038823Y-82103679D01*
X151084823Y-82209679D02*
X150978823Y-82103679D01*
X153628823Y-81323200D02*
X153628823Y-82103679D01*
X153098823Y-82103679D02*
X153098823Y-81323200D01*
X150024823Y-82209679D02*
X149918823Y-82103679D01*
X148964823Y-82209679D02*
X148858823Y-82103679D01*
X147162823Y-82209703D02*
X146844823Y-82209703D01*
X149282823Y-82209679D02*
X148964823Y-82209679D01*
X148858823Y-82103679D02*
X148858823Y-81323200D01*
X148328823Y-81323200D02*
X148328823Y-82103691D01*
X149494823Y-81217200D02*
X149388823Y-81323200D01*
X148328823Y-82103691D02*
X148222823Y-82209691D01*
X147904823Y-82209691D02*
X147798823Y-82103691D01*
X146738823Y-82103703D02*
X146738823Y-81323200D01*
X149388823Y-81323200D02*
X149388823Y-82103679D01*
X151932823Y-81217200D02*
X151614823Y-81217200D01*
X140345645Y-75934400D02*
X115743700Y-75934400D01*
X149388823Y-82103679D02*
X149282823Y-82209679D01*
X152038823Y-82103679D02*
X152038823Y-81323200D01*
X151508823Y-82103679D02*
X151402823Y-82209679D01*
X151508823Y-81323200D02*
X151508823Y-82103679D01*
X146738823Y-81323200D02*
X146632823Y-81217200D01*
X152568823Y-82103679D02*
X152462823Y-82209679D01*
X152674823Y-81217200D02*
X152568823Y-81323200D01*
X152992823Y-81217200D02*
X152674823Y-81217200D01*
X115743700Y-75934400D02*
X110887100Y-80791000D01*
X147268823Y-81323200D02*
X147268823Y-82103703D01*
X149918823Y-82103679D02*
X149918823Y-81323200D01*
X146632823Y-81217200D02*
X146204547Y-81217200D01*
X146844823Y-82209703D02*
X146738823Y-82103703D01*
X150872823Y-81217200D02*
X150554823Y-81217200D01*
X146204547Y-81217200D02*
X145628445Y-81217200D01*
X153204823Y-82209679D02*
X153098823Y-82103679D01*
X150342823Y-82209679D02*
X150024823Y-82209679D01*
X152568823Y-81323200D02*
X152568823Y-82103679D01*
X148752823Y-81217200D02*
X148434823Y-81217200D01*
X150554823Y-81217200D02*
X150448823Y-81323200D01*
X153628823Y-82103679D02*
X153522823Y-82209679D01*
X147798823Y-81323200D02*
X147692823Y-81217200D01*
X153098823Y-81323200D02*
X152992823Y-81217200D01*
X150448823Y-82103679D02*
X150342823Y-82209679D01*
X150448823Y-81323200D02*
X150448823Y-82103679D01*
X148858823Y-81323200D02*
X148752823Y-81217200D01*
X152038823Y-81323200D02*
X151932823Y-81217200D01*
X150978823Y-81323200D02*
X150872823Y-81217200D01*
X145628445Y-81217200D02*
X140345645Y-75934400D01*
X151614823Y-81217200D02*
X151508823Y-81323200D01*
X151402823Y-82209679D02*
X151084823Y-82209679D01*
X152462823Y-82209679D02*
X152144823Y-82209679D01*
X147692823Y-81217200D02*
X147374823Y-81217200D01*
X150978823Y-82103679D02*
X150978823Y-81323200D01*
X153522823Y-82209679D02*
X153204823Y-82209679D01*
X154203800Y-81044093D02*
X154030693Y-81217200D01*
X149812823Y-81217200D02*
X149494823Y-81217200D01*
X147268823Y-82103703D02*
X147162823Y-82209703D01*
X147374823Y-81217200D02*
X147268823Y-81323200D01*
X147798823Y-82103691D02*
X147798823Y-81323200D01*
X148222823Y-82209691D02*
X147904823Y-82209691D01*
X149918823Y-81323200D02*
X149812823Y-81217200D01*
X154030693Y-81217200D02*
X153734823Y-81217200D01*
%TO.N,/MCU/SD_DAT3*%
X168369400Y-102575000D02*
X166827200Y-102575000D01*
%TO.N,/MCU/SD_CLK*%
X161061400Y-92672226D02*
X161061400Y-97066426D01*
X170069400Y-101141629D02*
X170069400Y-102658201D01*
X152753800Y-86470402D02*
X154859576Y-86470402D01*
X169600771Y-100673000D02*
X170069400Y-101141629D01*
X170069400Y-102658201D02*
X166852600Y-105875000D01*
X161061400Y-97066426D02*
X164667974Y-100673000D01*
X164667974Y-100673000D02*
X169600771Y-100673000D01*
X154859576Y-86470402D02*
X161061400Y-92672226D01*
%TO.N,/MCU/SD_CMD*%
X152753800Y-87020400D02*
X154914600Y-87020400D01*
X164523000Y-101023000D02*
X169455797Y-101023000D01*
X169719400Y-101286603D02*
X169719400Y-102513226D01*
X169719400Y-102513226D02*
X168557626Y-103675000D01*
X160711400Y-92817200D02*
X160711400Y-97211400D01*
X168557626Y-103675000D02*
X166827200Y-103675000D01*
X160711400Y-97211400D02*
X164523000Y-101023000D01*
X169455797Y-101023000D02*
X169719400Y-101286603D01*
X154914600Y-87020400D02*
X160711400Y-92817200D01*
%TO.N,/MCU/~{NOR_CS}*%
X167259000Y-94919800D02*
X168605200Y-93573600D01*
X168605200Y-93573600D02*
X176081000Y-93573600D01*
X162229800Y-94919800D02*
X167259000Y-94919800D01*
%TO.N,/MCU/NOR_CLK*%
X152641200Y-85852000D02*
X160197800Y-85852000D01*
X177859000Y-83972400D02*
X178621000Y-84734400D01*
X160197800Y-85852000D02*
X162077400Y-83972400D01*
X162077400Y-83972400D02*
X177859000Y-83972400D01*
X150241000Y-88252200D02*
X152641200Y-85852000D01*
%TO.N,/MCU/LED_0*%
X161201000Y-72618600D02*
X161201000Y-58038774D01*
X161467800Y-72885400D02*
X161201000Y-72618600D01*
X162800974Y-56438800D02*
X167906066Y-56438800D01*
X161201000Y-58038774D02*
X162800974Y-56438800D01*
X167906066Y-56438800D02*
X169353866Y-54991000D01*
X161467800Y-73394372D02*
X161467800Y-72885400D01*
X160877786Y-73984386D02*
X161467800Y-73394372D01*
%TO.N,/MCU/LED_1*%
X160851000Y-73355200D02*
X160851000Y-57893800D01*
X162382200Y-56362600D02*
X162382200Y-54991000D01*
X160851000Y-57893800D02*
X162382200Y-56362600D01*
%TO.N,/IO/USART1_RX*%
X143205200Y-101269800D02*
X139801600Y-104673400D01*
X135636000Y-104673400D02*
X133654800Y-106654600D01*
X133654800Y-106654600D02*
X133654800Y-114350800D01*
X139801600Y-104673400D02*
X135636000Y-104673400D01*
X135788400Y-116484400D02*
X147853400Y-116484400D01*
X148615400Y-117246400D02*
X148615400Y-118160800D01*
X133654800Y-114350800D02*
X135788400Y-116484400D01*
X143205200Y-99745800D02*
X143205200Y-101269800D01*
X147853400Y-116484400D02*
X148615400Y-117246400D01*
%TO.N,/IO/USART1_TX*%
X139656626Y-104323400D02*
X135491026Y-104323400D01*
X145790400Y-116834400D02*
X148615400Y-119659400D01*
X148615400Y-119659400D02*
X148615400Y-122047000D01*
X135491026Y-104323400D02*
X133299200Y-106515226D01*
X133299200Y-106515226D02*
X133299200Y-114503200D01*
X142706617Y-99415412D02*
X142706617Y-101273409D01*
X142706617Y-101273409D02*
X139656626Y-104323400D01*
X135630400Y-116834400D02*
X145790400Y-116834400D01*
X133299200Y-114503200D02*
X135630400Y-116834400D01*
%TD*%
M02*
