M48
; DRILL file {KiCad 8.0.1} date 2024-05-16T14:55:50+0700
; FORMAT={-:-/ absolute / inch / decimal}
; #@! TF.CreationDate,2024-05-16T14:55:50+07:00
; #@! TF.GenerationSoftware,Kicad,Pcbnew,8.0.1
; #@! TF.FileFunction,Plated,1,6,PTH
FMAT,2
INCH
; #@! TA.AperFunction,Plated,PTH,ViaDrill
T1C0.0079
; #@! TA.AperFunction,Plated,PTH,ViaDrill
T2C0.0157
; #@! TA.AperFunction,Plated,PTH,ComponentDrill
T3C0.0197
; #@! TA.AperFunction,Plated,PTH,ComponentDrill
T4C0.0236
; #@! TA.AperFunction,Plated,PTH,ComponentDrill
T5C0.1260
%
G90
G05
T1
X4.246Y-3.155
X4.271Y-3.09
X4.271Y-3.724
X4.3026Y-3.6337
X4.3026Y-3.1807
X4.303Y-2.582
X4.303Y-2.808
X4.3341Y-3.1807
X4.3346Y-3.7267
X4.3656Y-3.1807
X4.3971Y-3.1807
X4.4286Y-3.2707
X4.4601Y-3.2707
X4.484Y-4.059
X4.4916Y-3.2707
X4.5231Y-3.1807
X4.526Y-4.059
X4.543Y-3.839
X4.543Y-4.293
X4.543Y-4.519
X4.55Y-3.894
X4.552Y-4.122
X4.553Y-4.347
X4.553Y-4.574
X4.5546Y-3.6347
X4.5861Y-3.1807
X4.5861Y-3.7237
X4.6176Y-3.1807
X4.6176Y-3.6347
X4.6491Y-3.1807
X4.693Y-3.787
X4.707Y-3.117
X4.707Y-3.155
X4.7121Y-3.2707
X4.731Y-3.786
X4.746Y-2.804
X4.772Y-3.117
X4.7751Y-3.2707
X4.78Y-2.603
X4.801Y-2.7057
X4.805Y-2.7451
X4.8066Y-3.2707
X4.81Y-3.117
X4.845Y-3.873
X4.866Y-3.786
X4.8696Y-3.2707
X4.872Y-2.793
X4.877Y-3.873
X4.898Y-2.686
X4.9011Y-3.1817
X4.904Y-3.786
X4.961Y-3.117
X4.964Y-4.179
X4.9641Y-3.1807
X4.9956Y-3.1807
X4.999Y-3.117
X5.027Y-3.722
X5.0585Y-3.1807
X5.062Y-3.117
X5.09Y-3.722
X5.1126Y-3.1355
X5.287Y-2.9167
X5.355Y-3.864
X5.379Y-3.106
X5.379Y-3.365
X5.379Y-3.403
X5.379Y-3.571
X5.379Y-3.609
X5.38Y-3.144
X5.3916Y-2.3156
X5.3966Y-3.2155
X5.4034Y-2.4475
X5.406Y-3.856
X5.4069Y-2.9167
X5.4212Y-2.4121
X5.425Y-4.919
X5.428Y-3.7962
X5.439Y-2.3943
X5.4456Y-3.5403
X5.4507Y-2.3589
X5.456Y-3.1063
X5.4566Y-2.4298
X5.4596Y-3.5206
X5.4596Y-3.56
X5.4596Y-3.6191
X5.4704Y-2.3373
X5.4743Y-2.3766
X5.4901Y-2.2939
X5.492Y-2.4652
X5.509Y-2.9167
X5.5476Y-3.2647
X5.5476Y-3.4813
X5.5491Y-2.3766
X5.55Y-2.87
X5.56Y-3.792
X5.565Y-3.829
X5.5668Y-2.3943
X5.5688Y-2.0599
X5.57Y-3.3415
X5.579Y-2.991
X5.5845Y-2.4121
X5.5986Y-3.829
X5.6023Y-2.4298
X5.6082Y-2.0072
X5.6184Y-3.914
X5.62Y-2.4475
X5.6211Y-3.7175
X5.6278Y-1.9718
X5.6296Y-3.7372
X5.6376Y-3.1657
X5.6377Y-2.4652
X5.638Y-3.927
X5.639Y-2.843
X5.6576Y-4.0677
X5.6576Y-3.9157
X5.6652Y-2.2939
X5.6652Y-2.3156
X5.6652Y-2.3373
X5.6652Y-2.3589
X5.6672Y-1.9541
X5.6773Y-3.9267
X5.6773Y-4.0243
X5.6869Y-2.07
X5.693Y-4.919
X5.713Y-4.103
X5.7263Y-2.0249
X5.7364Y-3.067
X5.7364Y-3.092
X5.738Y-2.9579
X5.739Y-2.92
X5.742Y-2.745
X5.742Y-2.7702
X5.742Y-2.7955
X5.742Y-2.8207
X5.742Y-2.846
X5.745Y-4.103
X5.746Y-2.1419
X5.752Y-2.882
X5.765Y-2.73
X5.7656Y-2.1539
X5.767Y-3.977
X5.77Y-2.776
X5.7853Y-2.0422
X5.7953Y-2.73
X5.796Y-3.075
X5.804Y-3.977
X5.805Y-1.9364
X5.8151Y-3.8277
X5.8255Y-2.73
X5.8348Y-3.8127
X5.851Y-4.652
X5.851Y-4.805
X5.8545Y-3.8277
X5.8557Y-2.73
X5.8742Y-3.8127
X5.881Y-2.832
X5.8838Y-1.9895
X5.886Y-2.73
X5.8939Y-2.96
X5.8939Y-3.9157
X5.897Y-2.882
X5.901Y-4.806
X5.906Y-2.745
X5.906Y-2.7702
X5.906Y-2.7955
X5.906Y-2.8207
X5.906Y-2.846
X5.9135Y-3.9267
X5.915Y-3.4745
X5.9726Y-3.9157
X5.977Y-2.924
X5.983Y-3.977
X5.9923Y-2.9877
X6.012Y-2.9727
X6.0139Y-3.4043
X6.0139Y-3.426
X6.021Y-3.977
X6.0215Y-2.1419
X6.0215Y-2.2515
X6.025Y-2.939
X6.029Y-2.859
X6.0316Y-3.0887
X6.0506Y-3.0757
X6.051Y-4.806
X6.071Y-3.1907
X6.0907Y-3.1712
X6.0912Y-2.2838
X6.101Y-4.806
X6.1104Y-3.098
X6.1301Y-3.082
X6.1498Y-3.098
X6.1694Y-3.082
X6.172Y-2.921
X6.185Y-2.833
X6.1891Y-3.098
X6.2088Y-3.082
X6.21Y-2.921
X6.225Y-3.273
X6.2275Y-3.3215
X6.2285Y-3.098
X6.229Y-3.829
X6.239Y-3.976
X6.2482Y-3.2733
X6.258Y-4.121
X6.277Y-3.977
X6.2836Y-3.6978
X6.2876Y-3.1466
X6.2986Y-3.6781
X6.2996Y-3.1663
X6.2996Y-3.3435
X6.316Y-4.405
X6.3327Y-2.888
X6.3338Y-2.9128
X6.335Y-4.826
X6.3377Y-4.405
X6.387Y-3.4025
X6.387Y-3.54
X6.387Y-3.737
X6.388Y-3.2254
X6.393Y-2.165
X6.407Y-4.125
X6.412Y-4.336
X6.413Y-4.255
X6.418Y-3.647
X6.419Y-3.044
X6.419Y-3.621
X6.439Y-3.354
X6.439Y-3.392
X6.439Y-3.551
X6.439Y-3.589
X6.445Y-3.107
X6.47Y-4.151
X6.507Y-3.934
X6.568Y-3.995
X6.568Y-4.0384
X6.568Y-4.0817
X6.569Y-4.1683
X6.61Y-2.636
X6.61Y-2.735
X6.61Y-2.834
X6.6287Y-4.0384
X6.6641Y-3.995
X6.6675Y-2.165
X6.699Y-4.353
X6.783Y-2.792
X6.825Y-3.362
X6.825Y-3.4
X6.847Y-3.5895
X6.848Y-3.207
X6.848Y-3.248
X6.849Y-2.631
X6.849Y-2.668
X6.849Y-2.965
X6.849Y-3.003
X6.853Y-2.505
X6.853Y-2.553
X6.867Y-4.852
X6.928Y-4.373
X6.9323Y-3.684
X6.9823Y-3.203
X6.9823Y-3.389
X6.9823Y-3.629
X7.0323Y-3.011
X7.0323Y-3.336
X7.0323Y-3.629
X7.0349Y-2.684
X7.052Y-4.374
X7.0823Y-2.921
X7.0823Y-3.389
X7.0823Y-3.684
X7.083Y-3.288
X7.0849Y-2.684
X7.085Y-2.873
X7.089Y-3.841
X7.094Y-2.523
X7.095Y-2.232
T2
X4.547Y-2.304
X4.548Y-2.177
X4.548Y-2.431
X4.687Y-2.56
X4.7766Y-2.2773
X4.907Y-2.725
X5.051Y-2.118
X5.051Y-2.17
X5.051Y-2.222
X5.069Y-1.947
X5.0996Y-2.3523
X5.111Y-4.488
X5.1176Y-2.3003
X5.132Y-1.947
X5.2Y-2.3
X5.3333Y-4.2983
X5.352Y-2.1679
X5.3523Y-2.0519
X5.44Y-4.462
X5.4593Y-4.3033
X5.476Y-4.462
X5.5791Y-4.649
X5.5885Y-2.1499
X5.6402Y-4.649
X5.684Y-4.454
X5.684Y-4.489
X5.7043Y-4.3013
X5.7653Y-4.3213
X5.805Y-2.1629
X5.8253Y-4.3003
X5.9428Y-2.1999
X5.983Y-2.0579
X6.001Y-4.643
X6.051Y-4.643
X6.0596Y-2.1509
X6.101Y-4.643
X6.151Y-4.937
X6.4441Y-4.6571
X6.445Y-1.96
X6.4781Y-4.6571
X6.483Y-4.2116
X6.5281Y-4.6051
X6.5281Y-4.6391
X6.5691Y-4.5471
X6.612Y-1.96
X6.7181Y-4.5391
X6.7181Y-4.5731
X6.7461Y-4.6571
X6.762Y-2.3766
X6.7801Y-4.6571
X6.836Y-2.3392
X6.886Y-4.583
X6.968Y-4.585
X6.9881Y-2.314
X7.0073Y-3.5095
T3
X4.2204Y-2.0371
X4.2204Y-4.8402
X4.248Y-1.9702
X4.248Y-2.1039
X4.248Y-4.7734
X4.248Y-4.907
X4.3149Y-1.9426
X4.3149Y-2.1315
X4.3149Y-4.7457
X4.3149Y-4.9347
X4.3817Y-1.9702
X4.3817Y-2.1039
X4.3817Y-4.7734
X4.3817Y-4.907
X4.4093Y-2.0371
X4.4093Y-4.8402
X6.9448Y-2.0371
X6.9448Y-4.8402
X6.9725Y-1.9702
X6.9725Y-2.1039
X6.9725Y-4.7734
X6.9725Y-4.907
X7.0393Y-1.9426
X7.0393Y-2.1315
X7.0393Y-4.7457
X7.0393Y-4.9347
X7.1061Y-1.9702
X7.1061Y-2.1039
X7.1061Y-4.7734
X7.1061Y-4.907
X7.1338Y-2.0371
X7.1338Y-4.8402
T5
X4.3149Y-2.0371
X4.3149Y-4.8402
X7.0393Y-2.0371
X7.0393Y-4.8402
T4
G00X6.443Y-4.7196
M15
G01X6.443Y-4.7629
M16
G05
G00X6.443Y-4.8908
M15
G01X6.443Y-4.9223
M16
G05
G00X6.7831Y-4.7196
M15
G01X6.7831Y-4.7629
M16
G05
G00X6.7831Y-4.8908
M15
G01X6.7831Y-4.9223
M16
G05
M30
