%TF.GenerationSoftware,KiCad,Pcbnew,8.0.1*%
%TF.CreationDate,2024-05-16T14:55:54+07:00*%
%TF.ProjectId,H743_LCD_dev,48373433-5f4c-4434-945f-6465762e6b69,rev?*%
%TF.SameCoordinates,Original*%
%TF.FileFunction,Soldermask,Bot*%
%TF.FilePolarity,Negative*%
%FSLAX46Y46*%
G04 Gerber Fmt 4.6, Leading zero omitted, Abs format (unit mm)*
G04 Created by KiCad (PCBNEW 8.0.1) date 2024-05-16 14:55:54*
%MOMM*%
%LPD*%
G01*
G04 APERTURE LIST*
%ADD10C,0.800000*%
%ADD11C,6.400000*%
%ADD12C,0.650000*%
%ADD13O,1.000000X2.100000*%
%ADD14O,1.000000X1.800000*%
G04 APERTURE END LIST*
D10*
%TO.C,H3*%
X181197300Y-122941100D03*
X180494356Y-124638156D03*
X180494356Y-121244044D03*
X178797300Y-125341100D03*
D11*
X178797300Y-122941100D03*
D10*
X178797300Y-120541100D03*
X177100244Y-124638156D03*
X177100244Y-121244044D03*
X176397300Y-122941100D03*
%TD*%
%TO.C,H4*%
X111997300Y-122941100D03*
X111294356Y-124638156D03*
X111294356Y-121244044D03*
X109597300Y-125341100D03*
D11*
X109597300Y-122941100D03*
D10*
X109597300Y-120541100D03*
X107900244Y-124638156D03*
X107900244Y-121244044D03*
X107197300Y-122941100D03*
%TD*%
D12*
%TO.C,J4*%
X165081700Y-120946900D03*
X170861700Y-120946900D03*
D13*
X163651700Y-120426900D03*
D14*
X163651700Y-124626900D03*
D13*
X172291700Y-120426900D03*
D14*
X172291700Y-124626900D03*
%TD*%
D10*
%TO.C,H1*%
X111997300Y-51741100D03*
X111294356Y-53438156D03*
X111294356Y-50044044D03*
X109597300Y-54141100D03*
D11*
X109597300Y-51741100D03*
D10*
X109597300Y-49341100D03*
X107900244Y-53438156D03*
X107900244Y-50044044D03*
X107197300Y-51741100D03*
%TD*%
%TO.C,H2*%
X181197300Y-51741100D03*
X180494356Y-53438156D03*
X180494356Y-50044044D03*
X178797300Y-54141100D03*
D11*
X178797300Y-51741100D03*
D10*
X178797300Y-49341100D03*
X177100244Y-53438156D03*
X177100244Y-50044044D03*
X176397300Y-51741100D03*
%TD*%
G36*
X107969239Y-55848885D02*
G01*
X108014994Y-55901689D01*
X108026200Y-55953200D01*
X108026200Y-63198200D01*
X108006515Y-63265239D01*
X107953711Y-63310994D01*
X107902200Y-63322200D01*
X106448400Y-63322200D01*
X106381361Y-63302515D01*
X106335606Y-63249711D01*
X106324400Y-63198200D01*
X106324400Y-55953200D01*
X106344085Y-55886161D01*
X106396889Y-55840406D01*
X106448400Y-55829200D01*
X107902200Y-55829200D01*
X107969239Y-55848885D01*
G37*
M02*
