%TF.GenerationSoftware,KiCad,Pcbnew,8.0.1*%
%TF.CreationDate,2024-05-14T09:23:24+07:00*%
%TF.ProjectId,H743_LCD_dev,48373433-5f4c-4434-945f-6465762e6b69,rev?*%
%TF.SameCoordinates,Original*%
%TF.FileFunction,Copper,L6,Bot*%
%TF.FilePolarity,Positive*%
%FSLAX46Y46*%
G04 Gerber Fmt 4.6, Leading zero omitted, Abs format (unit mm)*
G04 Created by KiCad (PCBNEW 8.0.1) date 2024-05-14 09:23:24*
%MOMM*%
%LPD*%
G01*
G04 APERTURE LIST*
%ADD10C,0.250000*%
%TA.AperFunction,NonConductor*%
%ADD11C,0.250000*%
%TD*%
%TA.AperFunction,ComponentPad*%
%ADD12C,0.800000*%
%TD*%
%TA.AperFunction,ComponentPad*%
%ADD13C,6.400000*%
%TD*%
%TA.AperFunction,ComponentPad*%
%ADD14O,1.000000X2.100000*%
%TD*%
%TA.AperFunction,ComponentPad*%
%ADD15O,1.000000X1.800000*%
%TD*%
%TA.AperFunction,ViaPad*%
%ADD16C,0.800000*%
%TD*%
%TA.AperFunction,ViaPad*%
%ADD17C,0.350000*%
%TD*%
%TA.AperFunction,Conductor*%
%ADD18C,0.150000*%
%TD*%
G04 APERTURE END LIST*
D10*
D11*
X107713780Y-62491060D02*
X107713780Y-62681536D01*
X107713780Y-62681536D02*
X107666161Y-62776774D01*
X107666161Y-62776774D02*
X107618542Y-62824393D01*
X107618542Y-62824393D02*
X107475685Y-62919631D01*
X107475685Y-62919631D02*
X107285209Y-62967250D01*
X107285209Y-62967250D02*
X106904257Y-62967250D01*
X106904257Y-62967250D02*
X106809019Y-62919631D01*
X106809019Y-62919631D02*
X106761400Y-62872012D01*
X106761400Y-62872012D02*
X106713780Y-62776774D01*
X106713780Y-62776774D02*
X106713780Y-62586298D01*
X106713780Y-62586298D02*
X106761400Y-62491060D01*
X106761400Y-62491060D02*
X106809019Y-62443441D01*
X106809019Y-62443441D02*
X106904257Y-62395822D01*
X106904257Y-62395822D02*
X107142352Y-62395822D01*
X107142352Y-62395822D02*
X107237590Y-62443441D01*
X107237590Y-62443441D02*
X107285209Y-62491060D01*
X107285209Y-62491060D02*
X107332828Y-62586298D01*
X107332828Y-62586298D02*
X107332828Y-62776774D01*
X107332828Y-62776774D02*
X107285209Y-62872012D01*
X107285209Y-62872012D02*
X107237590Y-62919631D01*
X107237590Y-62919631D02*
X107142352Y-62967250D01*
D12*
%TO.P,H3,1,1*%
%TO.N,GND*%
X181197300Y-122941100D03*
X180494356Y-124638156D03*
X180494356Y-121244044D03*
X178797300Y-125341100D03*
D13*
X178797300Y-122941100D03*
D12*
X178797300Y-120541100D03*
X177100244Y-124638156D03*
X177100244Y-121244044D03*
X176397300Y-122941100D03*
%TD*%
%TO.P,H4,1,1*%
%TO.N,GND*%
X111997300Y-122941100D03*
X111294356Y-124638156D03*
X111294356Y-121244044D03*
X109597300Y-125341100D03*
D13*
X109597300Y-122941100D03*
D12*
X109597300Y-120541100D03*
X107900244Y-124638156D03*
X107900244Y-121244044D03*
X107197300Y-122941100D03*
%TD*%
D14*
%TO.P,J4,S1,SHIELD*%
%TO.N,Net-(J4-SHIELD)*%
X163651700Y-120426900D03*
D15*
X163651700Y-124626900D03*
D14*
X172291700Y-120426900D03*
D15*
X172291700Y-124626900D03*
%TD*%
D12*
%TO.P,H1,1,1*%
%TO.N,GND*%
X111997300Y-51741100D03*
X111294356Y-53438156D03*
X111294356Y-50044044D03*
X109597300Y-54141100D03*
D13*
X109597300Y-51741100D03*
D12*
X109597300Y-49341100D03*
X107900244Y-53438156D03*
X107900244Y-50044044D03*
X107197300Y-51741100D03*
%TD*%
%TO.P,H2,1,1*%
%TO.N,GND*%
X181197300Y-51741100D03*
X180494356Y-53438156D03*
X180494356Y-50044044D03*
X178797300Y-54141100D03*
D13*
X178797300Y-51741100D03*
D12*
X178797300Y-49341100D03*
X177100244Y-53438156D03*
X177100244Y-50044044D03*
X176397300Y-51741100D03*
%TD*%
D16*
%TO.N,GND*%
X176987200Y-116459000D03*
X174904400Y-116408200D03*
D17*
X129286000Y-94538800D03*
X123596400Y-96164400D03*
X165277800Y-99923600D03*
X145846800Y-71005700D03*
X157734000Y-74193400D03*
X149783800Y-73202800D03*
X136626600Y-85471000D03*
X121945400Y-68725900D03*
X174421800Y-123240800D03*
X179891000Y-93573600D03*
D16*
X127660400Y-57810400D03*
D17*
X146481800Y-101015800D03*
X128574800Y-79171800D03*
X147967700Y-69342000D03*
X126009400Y-79171800D03*
X145846800Y-71647050D03*
D16*
X172213500Y-118289300D03*
D17*
X150012400Y-72288400D03*
X149377400Y-71932800D03*
D16*
X120853200Y-49961800D03*
D17*
X147199350Y-69342000D03*
X160909000Y-122580400D03*
X146558000Y-70510400D03*
D16*
X153913085Y-56134000D03*
X130835400Y-54864000D03*
X177986000Y-89140400D03*
D17*
X157099000Y-71958200D03*
X180060600Y-97561400D03*
X145846800Y-72288400D03*
X136626600Y-90703400D03*
D16*
X124587000Y-49936400D03*
D17*
X163550600Y-91160600D03*
D16*
X128828800Y-49961800D03*
D17*
X146431000Y-69342000D03*
X145846800Y-69723000D03*
X144195800Y-77952600D03*
X153136600Y-72618600D03*
X108483400Y-78486000D03*
X115392200Y-97510600D03*
X146100800Y-73202800D03*
X109296200Y-65582800D03*
D16*
X146439600Y-109760000D03*
D17*
X158953200Y-104673400D03*
D16*
X150947300Y-57378600D03*
D17*
X121208800Y-79171800D03*
D16*
X147447000Y-56438800D03*
D17*
X121412000Y-66116200D03*
D16*
X138667200Y-109302800D03*
D17*
X175971200Y-111074200D03*
X153035000Y-74650600D03*
D16*
X135947300Y-53619400D03*
D17*
X114960400Y-103098600D03*
X136626600Y-78892400D03*
D16*
X166854100Y-115495300D03*
D17*
X150012400Y-70364350D03*
X150012400Y-69723000D03*
X108483400Y-94589600D03*
X127685800Y-94538800D03*
X137312400Y-97942400D03*
X119557800Y-79171800D03*
D16*
X135466800Y-109175800D03*
D17*
X148736050Y-69342000D03*
X150012400Y-71005700D03*
D16*
X144890200Y-109252000D03*
D17*
X150012400Y-71647050D03*
X163042600Y-77317600D03*
X149504400Y-69342000D03*
D16*
X164542700Y-118289300D03*
D17*
X170154600Y-110566200D03*
X179120800Y-111099600D03*
X173355000Y-86360000D03*
X151968200Y-101015800D03*
X136017000Y-98145600D03*
X158470600Y-100990400D03*
X109296200Y-71323200D03*
X115392200Y-109042200D03*
X163550600Y-86156800D03*
X145846800Y-70364350D03*
D16*
X141947300Y-56108600D03*
D17*
X115392200Y-114782600D03*
X145770600Y-74168000D03*
X162737800Y-104775000D03*
X140970000Y-72898000D03*
D16*
X163679100Y-118289300D03*
X171349900Y-118289300D03*
X147963600Y-109226600D03*
D17*
X119202200Y-96189800D03*
D16*
X164668200Y-106975000D03*
D17*
X123748800Y-70942200D03*
%TO.N,Net-(C34-Pad1)*%
X141097000Y-96443800D03*
X158216600Y-97256600D03*
D16*
%TO.N,VDD*%
X144356800Y-113976400D03*
X120624600Y-53263800D03*
X124637800Y-69215000D03*
X120624600Y-51333400D03*
X120624600Y-52298600D03*
X119049800Y-65024000D03*
X143493200Y-113976400D03*
%TO.N,+3V3*%
X135940800Y-56565800D03*
D17*
X143230600Y-72212200D03*
X139928600Y-74084400D03*
X107848400Y-80137000D03*
X173355000Y-85394800D03*
X113893600Y-103098600D03*
X122174000Y-79171800D03*
X126974600Y-79171800D03*
X136626600Y-86436200D03*
X156768800Y-74218800D03*
X136652000Y-79857600D03*
X120167400Y-96164400D03*
X124561600Y-96164400D03*
X163703000Y-78917800D03*
X162890200Y-108077000D03*
X164338000Y-105435400D03*
D16*
X138665900Y-113189000D03*
D17*
X173913800Y-91173400D03*
X136626600Y-91668600D03*
D16*
X138665900Y-114052600D03*
D17*
X147421600Y-101015800D03*
X144500600Y-75133200D03*
X129859626Y-79642399D03*
X119557800Y-80137000D03*
X163550600Y-85191600D03*
X137871200Y-96424400D03*
X163550600Y-90195400D03*
X162864800Y-110134400D03*
D16*
X151942800Y-53390800D03*
D17*
X159435800Y-101015800D03*
X152933400Y-101015800D03*
X151815800Y-74269600D03*
%TO.N,/LCD/LCD_SPI_DAT*%
X138447300Y-61416209D03*
X143897300Y-61416209D03*
%TO.N,/MCU/PC0*%
X143194900Y-80410000D03*
X117287100Y-80791000D03*
%TO.N,/LCD/LCD_SPI_CLK*%
X143897300Y-60866206D03*
X138947300Y-60866206D03*
%TO.N,/LCD/LCD_TP_RST*%
X152947300Y-55905400D03*
X152947300Y-58687073D03*
%TO.N,/LCD/LCD_SPI_CS*%
X139447300Y-59766200D03*
X143897300Y-59766200D03*
%TO.N,/LCD/LCD_R4*%
X138597300Y-63216209D03*
X142297300Y-63216209D03*
%TO.N,/LCD/LCD_R5*%
X149447300Y-52033600D03*
X157203800Y-78689200D03*
%TO.N,/LCD/LCD_RESET*%
X143897300Y-60316203D03*
X136947300Y-60316203D03*
%TO.N,/MCU/I2S_WS*%
X137334073Y-74085202D03*
X134289800Y-74084400D03*
%TO.N,/MCU/PC4*%
X114887100Y-80791000D03*
X137073500Y-81674400D03*
%TO.N,/MCU/PC5*%
X115687100Y-92322600D03*
X140908900Y-82924400D03*
%TO.N,/LCD/LCD_G4*%
X145947300Y-55905400D03*
X142774900Y-94924400D03*
%TO.N,/LCD/LCD_G7*%
X158703800Y-78282800D03*
X147447300Y-50683600D03*
%TO.N,/LCD/LCD_R6*%
X142747300Y-63666209D03*
X137247300Y-63666209D03*
%TO.N,/MCU/I2S_SDO*%
X122047000Y-69725900D03*
X158757200Y-84048600D03*
%TO.N,/MCU/PG4*%
X149703800Y-99460000D03*
X114087100Y-83077000D03*
%TO.N,/MCU/PG5*%
X113287100Y-83077000D03*
X150203800Y-99739400D03*
%TO.N,/MCU/PG8*%
X151703800Y-99460000D03*
X116487100Y-94583200D03*
%TO.N,/LCD/LCD_B6*%
X143947300Y-51133600D03*
X158203800Y-78689200D03*
%TO.N,/LCD/HSYNC*%
X155203800Y-78689200D03*
X141447300Y-53822600D03*
%TO.N,/LCD/LCD_B7*%
X154588085Y-57611200D03*
X144447300Y-53822600D03*
%TO.N,/LCD/LCD_B4*%
X142947300Y-51583600D03*
X157703800Y-78282800D03*
%TO.N,/LCD/LCD_G5*%
X142991557Y-95424400D03*
X146447300Y-56210200D03*
%TO.N,/LCD/LCD_B3*%
X156703800Y-78282800D03*
X142447300Y-52483600D03*
%TO.N,/MCU/I2S_SD_MODE*%
X124409200Y-68224400D03*
X141478000Y-84874400D03*
%TO.N,/MCU/I2S_CK*%
X120548400Y-71221600D03*
X159207200Y-84474400D03*
%TO.N,/MCU/PG15*%
X160009700Y-84924400D03*
X116487100Y-80791000D03*
%TO.N,/MCU/PE0*%
X118087100Y-80791000D03*
X160009700Y-80424400D03*
%TO.N,/MCU/PE1*%
X117287100Y-92322600D03*
X159704900Y-79924400D03*
%TO.N,/LCD/VSYNC*%
X139047300Y-61866209D03*
X140947300Y-61866209D03*
%TO.N,/LCD/LCD_G2*%
X138150600Y-62316209D03*
X141397300Y-62316209D03*
%TO.N,/LCD/LCD_G6*%
X146947300Y-53372600D03*
X155703800Y-78282800D03*
%TO.N,/LCD/LCD_G3*%
X156203800Y-78689200D03*
X145447300Y-52933600D03*
%TO.N,/LCD/LCD_R7*%
X139497300Y-64116209D03*
X143197300Y-64116209D03*
%TO.N,/LCD/LCD_R3*%
X141847300Y-62766209D03*
X137697300Y-62766209D03*
D16*
%TO.N,VBUS*%
X170638700Y-116155700D03*
X170638700Y-115292100D03*
X165812700Y-117832100D03*
X165812700Y-116968500D03*
D17*
%TO.N,/LCD/LCD_BLK*%
X149703800Y-75184000D03*
X130657600Y-53846000D03*
%TO.N,/MCU/NRST*%
X115570000Y-98907600D03*
X147218400Y-78105000D03*
%TO.N,/MCU/BOOT0*%
X115620800Y-104698800D03*
X162255200Y-81924400D03*
%TO.N,/MCU/SD_DAT2*%
X166827200Y-101473000D03*
X169269400Y-101473000D03*
%TO.N,/MCU/SDRAM_ADD10*%
X112487100Y-83077000D03*
X140908900Y-88424400D03*
%TO.N,/MCU/SDRAM_DQ4*%
X138673700Y-89424400D03*
X123687100Y-83077000D03*
%TO.N,/MCU/SDRAM_DQ2*%
X126087100Y-80791000D03*
X159603300Y-93924400D03*
%TO.N,/MCU/SDRAM_DQ13*%
X143702900Y-103320800D03*
X143703800Y-99460000D03*
%TO.N,/MCU/SDRAM_DQ6*%
X138673700Y-90424400D03*
X121287100Y-83077000D03*
%TO.N,/MCU/SDRAM_ADD0*%
X111687100Y-80791000D03*
X154703800Y-80548793D03*
%TO.N,/MCU/SDRAM_DQ0*%
X147703800Y-97224800D03*
X128487100Y-80791000D03*
%TO.N,/MCU/SDRAM_ADD3*%
X109287100Y-80791000D03*
X153202500Y-78454200D03*
%TO.N,/MCU/SDRAM_DQ5*%
X138318100Y-89924400D03*
X122087100Y-83077000D03*
%TO.N,/MCU/SDRAM_DQ7*%
X119687100Y-83077000D03*
X138673700Y-91924400D03*
%TO.N,/MCU/SDRAM_DQ1*%
X148203800Y-96843800D03*
X126887100Y-80791000D03*
%TO.N,/MCU/SDRAM_DQ3*%
X159984300Y-93424400D03*
X124487100Y-80816400D03*
%TO.N,/MCU/SDRAM_DQ14*%
X144203800Y-99739400D03*
X144203800Y-102216198D03*
%TO.N,/MCU/SDRAM_ADD5*%
X110098700Y-94659400D03*
X152203800Y-75888800D03*
%TO.N,/MCU/SDRAM_ADD2*%
X153685100Y-78124000D03*
X110087100Y-80791000D03*
%TO.N,/MCU/SDRAM_ADD1*%
X154203800Y-81044093D03*
X110887100Y-80791000D03*
%TO.N,/MCU/SDRAM_ADD4*%
X109285900Y-92297200D03*
X152703800Y-75507800D03*
%TO.N,/MCU/SD_DAT3*%
X166827200Y-102575000D03*
X168369400Y-102575000D03*
%TO.N,/MCU/SD_CLK*%
X152753800Y-86470402D03*
X166852600Y-105875000D03*
%TO.N,/MCU/SD_CMD*%
X166827200Y-103675000D03*
X152753800Y-87020400D03*
%TO.N,/MCU/~{NOR_CS}*%
X162229800Y-94919800D03*
X176081000Y-93573600D03*
%TO.N,/MCU/NOR_D3*%
X162229800Y-86424400D03*
X177351000Y-86080600D03*
%TO.N,/MCU/NOR_D2*%
X162229800Y-89916000D03*
X178621000Y-92176600D03*
%TO.N,/MCU/NOR_CLK*%
X178621000Y-84734400D03*
X150241000Y-88252200D03*
%TO.N,/MCU/NOR_D0*%
X163017200Y-92633800D03*
X179891000Y-86080600D03*
%TO.N,/MCU/NOR_D1*%
X177351000Y-92176600D03*
X163042600Y-91973400D03*
%TD*%
D18*
%TO.N,/LCD/LCD_SPI_DAT*%
X138447300Y-61416209D02*
X143897300Y-61416209D01*
%TO.N,/MCU/PC0*%
X119510000Y-76984400D02*
X117287100Y-79207300D01*
X143194900Y-80410000D02*
X139769300Y-76984400D01*
X117287100Y-79207300D02*
X117287100Y-80791000D01*
X139769300Y-76984400D02*
X119510000Y-76984400D01*
%TO.N,/LCD/LCD_SPI_CLK*%
X138947300Y-60866206D02*
X143897300Y-60866206D01*
%TO.N,/LCD/LCD_TP_RST*%
X152947300Y-58687073D02*
X152947300Y-55905400D01*
%TO.N,/LCD/LCD_SPI_CS*%
X143897300Y-59766200D02*
X139447300Y-59766200D01*
%TO.N,/LCD/LCD_R4*%
X142297300Y-63216209D02*
X138597300Y-63216209D01*
%TO.N,/LCD/LCD_R5*%
X150515100Y-50965800D02*
X149447300Y-52033600D01*
X157203800Y-77453774D02*
X159105600Y-75551974D01*
X159105600Y-75551974D02*
X159105600Y-56526722D01*
X157203800Y-78689200D02*
X157203800Y-77453774D01*
X159105600Y-56526722D02*
X153544678Y-50965800D01*
X153544678Y-50965800D02*
X150515100Y-50965800D01*
%TO.N,/LCD/LCD_RESET*%
X143897300Y-60316203D02*
X136947300Y-60316203D01*
%TO.N,/MCU/I2S_WS*%
X137334073Y-74085202D02*
X134290602Y-74085202D01*
X134290602Y-74085202D02*
X134289800Y-74084400D01*
%TO.N,/MCU/PC4*%
X115770500Y-81674400D02*
X114887100Y-80791000D01*
X137073500Y-81674400D02*
X115770500Y-81674400D01*
%TO.N,/MCU/PC5*%
X117090500Y-93726000D02*
X145449100Y-93726000D01*
X146553800Y-88569300D02*
X140908900Y-82924400D01*
X146553800Y-92621300D02*
X146553800Y-88569300D01*
X115687100Y-92322600D02*
X117090500Y-93726000D01*
X145449100Y-93726000D02*
X146553800Y-92621300D01*
%TO.N,/LCD/LCD_G7*%
X160401000Y-56337200D02*
X153979600Y-49915800D01*
X148215100Y-49915800D02*
X147447300Y-50683600D01*
X160401000Y-75741496D02*
X160401000Y-56337200D01*
X158703800Y-77438696D02*
X160401000Y-75741496D01*
X153979600Y-49915800D02*
X148215100Y-49915800D01*
X158703800Y-78282800D02*
X158703800Y-77438696D01*
%TO.N,/LCD/LCD_R6*%
X137247300Y-63666209D02*
X142747300Y-63666209D01*
%TO.N,/MCU/I2S_SDO*%
X152336826Y-68707000D02*
X154135100Y-70505274D01*
X160502600Y-79832200D02*
X160502600Y-82303200D01*
X122047000Y-69725900D02*
X123548500Y-69725900D01*
X134924800Y-71932800D02*
X138150600Y-68707000D01*
X158546800Y-80187800D02*
X159260200Y-79474400D01*
X160502600Y-82303200D02*
X158757200Y-84048600D01*
X138150600Y-68707000D02*
X152336826Y-68707000D01*
X154135100Y-70505274D02*
X154135100Y-79306700D01*
X154135100Y-79306700D02*
X155016200Y-80187800D01*
X155016200Y-80187800D02*
X158546800Y-80187800D01*
X160144800Y-79474400D02*
X160502600Y-79832200D01*
X125755400Y-71932800D02*
X134924800Y-71932800D01*
X123548500Y-69725900D02*
X125755400Y-71932800D01*
X159260200Y-79474400D02*
X160144800Y-79474400D01*
%TO.N,/MCU/PG4*%
X115331100Y-83077000D02*
X114087100Y-83077000D01*
X148431200Y-99460000D02*
X147253800Y-98282600D01*
X147253800Y-88137928D02*
X141240271Y-82124400D01*
X141240271Y-82124400D02*
X116283700Y-82124400D01*
X149703800Y-99460000D02*
X148431200Y-99460000D01*
X147253800Y-98282600D02*
X147253800Y-88137928D01*
X116283700Y-82124400D02*
X115331100Y-83077000D01*
%TO.N,/MCU/PG5*%
X150203800Y-99739400D02*
X149943400Y-99999800D01*
X148476026Y-99999800D02*
X146903800Y-98427574D01*
X113871300Y-83661200D02*
X113287100Y-83077000D01*
X149943400Y-99999800D02*
X148476026Y-99999800D01*
X115241874Y-83661200D02*
X113871300Y-83661200D01*
X141095297Y-82474400D02*
X116428674Y-82474400D01*
X146903800Y-88282903D02*
X141095297Y-82474400D01*
X146903800Y-98427574D02*
X146903800Y-88282903D01*
X116428674Y-82474400D02*
X115241874Y-83661200D01*
%TO.N,/MCU/PG8*%
X147161910Y-99416026D02*
X146658313Y-99919624D01*
X146658313Y-100052560D02*
X147077098Y-100471346D01*
X145521130Y-100259191D02*
X145654066Y-100259191D01*
X145203240Y-97253693D02*
X145203240Y-97386629D01*
X143873893Y-96057264D02*
X142663014Y-97268139D01*
X145867918Y-97918371D02*
X145867918Y-98051307D01*
X142862418Y-97600479D02*
X142995354Y-97600479D01*
X150181800Y-100558600D02*
X150556943Y-100558600D01*
X150001800Y-100358600D02*
X150091800Y-100448600D01*
X144657057Y-99262164D02*
X144657057Y-99395100D01*
X145321726Y-100059787D02*
X145521130Y-100259191D01*
X142869646Y-96263894D02*
X143002582Y-96263894D01*
X150091800Y-100448600D02*
X150091800Y-100468600D01*
X147164352Y-100558600D02*
X147751800Y-100558600D01*
X146829568Y-99083685D02*
X146962506Y-99083686D01*
X143992370Y-98730431D02*
X144191774Y-98929835D01*
X144538562Y-96589015D02*
X144538562Y-96721951D01*
X150605200Y-100558600D02*
X151703800Y-99460000D01*
X147931800Y-100258600D02*
X148201800Y-100258600D01*
X146962506Y-99083686D02*
X147161910Y-99283090D01*
X142179552Y-95573800D02*
X142869646Y-96263894D01*
X146200254Y-98383643D02*
X146333192Y-98383645D01*
X142995354Y-97600479D02*
X144206220Y-96389609D01*
X144989397Y-99594504D02*
X146200254Y-98383643D01*
X144206220Y-96389609D02*
X144339158Y-96389611D01*
X145668514Y-97718967D02*
X145867918Y-97918371D01*
X145203240Y-97386629D02*
X143992370Y-98597495D01*
X145654066Y-100259191D02*
X146829568Y-99083685D01*
X147841800Y-100468600D02*
X147841800Y-100348600D01*
X143674489Y-95724924D02*
X143873893Y-95924328D01*
X149551800Y-101558600D02*
X149641800Y-101468600D01*
X116487100Y-94977200D02*
X117083700Y-95573800D01*
X143327701Y-98065744D02*
X143527105Y-98265148D01*
X149191800Y-100448600D02*
X149191800Y-101468600D01*
X149641800Y-101468600D02*
X149641800Y-100448600D01*
X149191800Y-101468600D02*
X149281800Y-101558600D01*
X149281800Y-101558600D02*
X149551800Y-101558600D01*
X148291800Y-101468600D02*
X148381800Y-101558600D01*
X144324710Y-98929835D02*
X145535576Y-97718965D01*
X145321726Y-99926851D02*
X145321726Y-100059787D01*
X116487100Y-94583200D02*
X116487100Y-94977200D01*
X143660041Y-98265148D02*
X144870898Y-97054287D01*
X147751800Y-100558600D02*
X147841800Y-100468600D01*
X147161910Y-99283090D02*
X147161910Y-99416026D01*
X143541553Y-95724924D02*
X143674489Y-95724924D01*
X148381800Y-101558600D02*
X148651800Y-101558600D01*
X148741800Y-101468600D02*
X148741800Y-100448600D01*
X144191774Y-98929835D02*
X144324710Y-98929835D01*
X150556943Y-100558600D02*
X150605200Y-100558600D01*
X146333192Y-98383645D02*
X146532596Y-98583049D01*
X144856461Y-99594504D02*
X144989397Y-99594504D01*
X149101800Y-100358600D02*
X149191800Y-100448600D01*
X145535576Y-97718965D02*
X145668514Y-97718967D01*
X146532596Y-98715985D02*
X145321726Y-99926851D01*
X148831800Y-100358600D02*
X149101800Y-100358600D01*
X148291800Y-100348600D02*
X148291800Y-101468600D01*
X144870898Y-97054287D02*
X145003836Y-97054289D01*
X144657057Y-99395100D02*
X144856461Y-99594504D01*
X146658313Y-99919624D02*
X146658313Y-100052560D01*
X144538562Y-96721951D02*
X143327701Y-97932808D01*
X143002582Y-96263894D02*
X143541553Y-95724924D01*
X149731800Y-100358600D02*
X150001800Y-100358600D01*
X145003836Y-97054289D02*
X145203240Y-97253693D01*
X148651800Y-101558600D02*
X148741800Y-101468600D01*
X147841800Y-100348600D02*
X147931800Y-100258600D01*
X150091800Y-100468600D02*
X150181800Y-100558600D01*
X148201800Y-100258600D02*
X148291800Y-100348600D01*
X143873893Y-95924328D02*
X143873893Y-96057264D01*
X142663014Y-97401075D02*
X142862418Y-97600479D01*
X117083700Y-95573800D02*
X142179552Y-95573800D01*
X143327701Y-97932808D02*
X143327701Y-98065744D01*
X145867918Y-98051307D02*
X144657057Y-99262164D01*
X146532596Y-98583049D02*
X146532596Y-98715985D01*
X149641800Y-100448600D02*
X149731800Y-100358600D01*
X147077098Y-100471346D02*
X147164352Y-100558600D01*
X144339158Y-96389611D02*
X144538562Y-96589015D01*
X143992370Y-98597495D02*
X143992370Y-98730431D01*
X148741800Y-100448600D02*
X148831800Y-100358600D01*
X142663014Y-97268139D02*
X142663014Y-97401075D01*
X143527105Y-98265148D02*
X143660041Y-98265148D01*
%TO.N,/LCD/LCD_B6*%
X158203800Y-78689200D02*
X158203800Y-77443722D01*
X144458700Y-50622200D02*
X143947300Y-51133600D01*
X149357352Y-51133600D02*
X147260903Y-51133600D01*
X150225152Y-50265800D02*
X149357352Y-51133600D01*
X153834626Y-50265800D02*
X150225152Y-50265800D01*
X159969200Y-75678322D02*
X159969200Y-56400374D01*
X146749503Y-50622200D02*
X144458700Y-50622200D01*
X159969200Y-56400374D02*
X153834626Y-50265800D01*
X147260903Y-51133600D02*
X146749503Y-50622200D01*
X158203800Y-77443722D02*
X159969200Y-75678322D01*
%TO.N,/LCD/HSYNC*%
X155203800Y-54604818D02*
X152964782Y-52365800D01*
X142051300Y-53218600D02*
X141447300Y-53822600D01*
X145095904Y-53218600D02*
X142051300Y-53218600D01*
X152964782Y-52365800D02*
X151236419Y-52365800D01*
X145699904Y-53822600D02*
X145095904Y-53218600D01*
X151236419Y-52365800D02*
X149779619Y-53822600D01*
X149779619Y-53822600D02*
X145699904Y-53822600D01*
X155203800Y-78689200D02*
X155203800Y-54604818D01*
%TO.N,/LCD/LCD_B7*%
X151381393Y-52715800D02*
X149924593Y-54172600D01*
X144701300Y-53568600D02*
X144447300Y-53822600D01*
X154588085Y-57611200D02*
X154588085Y-54484077D01*
X144950929Y-53568600D02*
X144701300Y-53568600D01*
X154588085Y-54484077D02*
X152819808Y-52715800D01*
X152819808Y-52715800D02*
X151381393Y-52715800D01*
X149924593Y-54172600D02*
X145554929Y-54172600D01*
X145554929Y-54172600D02*
X144950929Y-53568600D01*
%TO.N,/LCD/LCD_B4*%
X153689652Y-50615800D02*
X150370126Y-50615800D01*
X159619200Y-56545348D02*
X153689652Y-50615800D01*
X159619200Y-75533348D02*
X159619200Y-56545348D01*
X157703800Y-77448748D02*
X159619200Y-75533348D01*
X149402326Y-51583600D02*
X142947300Y-51583600D01*
X150370126Y-50615800D02*
X149402326Y-51583600D01*
X157703800Y-78282800D02*
X157703800Y-77448748D01*
%TO.N,/LCD/LCD_B3*%
X148810903Y-52033600D02*
X142897300Y-52033600D01*
X158755600Y-75407000D02*
X158755600Y-56671696D01*
X158755600Y-56671696D02*
X153399704Y-51315800D01*
X149633696Y-52483600D02*
X149260903Y-52483600D01*
X149260903Y-52483600D02*
X148810903Y-52033600D01*
X156703800Y-77458800D02*
X158755600Y-75407000D01*
X156703800Y-78282800D02*
X156703800Y-77458800D01*
X153399704Y-51315800D02*
X150801496Y-51315800D01*
X142897300Y-52033600D02*
X142447300Y-52483600D01*
X150801496Y-51315800D02*
X149633696Y-52483600D01*
%TO.N,/MCU/I2S_CK*%
X158338000Y-79837800D02*
X155161174Y-79837800D01*
X155161174Y-79837800D02*
X154485100Y-79161726D01*
X160852600Y-79687226D02*
X160289774Y-79124400D01*
X152481800Y-68357000D02*
X138005625Y-68357000D01*
X125900374Y-71582800D02*
X123593474Y-69275900D01*
X123593474Y-69275900D02*
X120970100Y-69275900D01*
X138005625Y-68357000D02*
X134779826Y-71582800D01*
X154485100Y-79161726D02*
X154485100Y-70360300D01*
X159207200Y-84474400D02*
X160852600Y-82829000D01*
X159051400Y-79124400D02*
X158338000Y-79837800D01*
X120970100Y-69275900D02*
X120548400Y-69697600D01*
X154485100Y-70360300D02*
X152481800Y-68357000D01*
X160289774Y-79124400D02*
X159051400Y-79124400D01*
X134779826Y-71582800D02*
X125900374Y-71582800D01*
X120548400Y-69697600D02*
X120548400Y-71221600D01*
X160852600Y-82829000D02*
X160852600Y-79687226D01*
%TO.N,/MCU/PG15*%
X116937100Y-81241000D02*
X116487100Y-80791000D01*
X139275142Y-77684400D02*
X120105400Y-77684400D01*
X118273497Y-81241000D02*
X116937100Y-81241000D01*
X146515141Y-84924400D02*
X139275142Y-77684400D01*
X160009700Y-84924400D02*
X146515141Y-84924400D01*
X118537100Y-80977397D02*
X118273497Y-81241000D01*
X120105400Y-77684400D02*
X118537100Y-79252700D01*
X118537100Y-79252700D02*
X118537100Y-80977397D01*
%TO.N,/MCU/PE0*%
X146722903Y-84574400D02*
X139482903Y-77334400D01*
X155859700Y-84574400D02*
X146722903Y-84574400D01*
X118087100Y-78902274D02*
X118087100Y-80791000D01*
X139482903Y-77334400D02*
X119654974Y-77334400D01*
X160009700Y-80424400D02*
X155859700Y-84574400D01*
X119654974Y-77334400D02*
X118087100Y-78902274D01*
%TO.N,/MCU/PE1*%
X117658900Y-76634400D02*
X112037100Y-82256200D01*
X112037100Y-89943000D02*
X113966700Y-91872600D01*
X147645697Y-84224400D02*
X140055697Y-76634400D01*
X155404900Y-84224400D02*
X147645697Y-84224400D01*
X140055697Y-76634400D02*
X117658900Y-76634400D01*
X116837100Y-91872600D02*
X117287100Y-92322600D01*
X159704900Y-79924400D02*
X155404900Y-84224400D01*
X112037100Y-82256200D02*
X112037100Y-89943000D01*
X113966700Y-91872600D02*
X116837100Y-91872600D01*
%TO.N,/LCD/VSYNC*%
X140947300Y-61866209D02*
X139047300Y-61866209D01*
%TO.N,/LCD/LCD_G2*%
X141397300Y-62316209D02*
X138150600Y-62316209D01*
%TO.N,/LCD/LCD_G6*%
X155703800Y-78282800D02*
X155703800Y-54609844D01*
X147586300Y-52733600D02*
X146947300Y-53372600D01*
X148520955Y-52733600D02*
X147586300Y-52733600D01*
X153109756Y-52015800D02*
X151091445Y-52015800D01*
X149923644Y-53183600D02*
X148970955Y-53183600D01*
X155703800Y-54609844D02*
X153109756Y-52015800D01*
X151091445Y-52015800D02*
X149923644Y-53183600D01*
X148970955Y-53183600D02*
X148520955Y-52733600D01*
%TO.N,/LCD/LCD_G3*%
X156190200Y-54601270D02*
X153254730Y-51665800D01*
X153254730Y-51665800D02*
X150946471Y-51665800D01*
X156190200Y-78675600D02*
X156190200Y-54601270D01*
X148665929Y-52383600D02*
X145997300Y-52383600D01*
X149778670Y-52833600D02*
X149115929Y-52833600D01*
X150946471Y-51665800D02*
X149778670Y-52833600D01*
X145997300Y-52383600D02*
X145447300Y-52933600D01*
X149115929Y-52833600D02*
X148665929Y-52383600D01*
X156203800Y-78689200D02*
X156190200Y-78675600D01*
%TO.N,/LCD/LCD_R7*%
X143197300Y-64116209D02*
X139497300Y-64116209D01*
%TO.N,/LCD/LCD_R3*%
X137697300Y-62766209D02*
X141847300Y-62766209D01*
%TO.N,/MCU/SD_DAT2*%
X169269400Y-101473000D02*
X166827200Y-101473000D01*
%TO.N,/MCU/SDRAM_ADD10*%
X145650446Y-89783104D02*
X145552446Y-89685104D01*
X142513740Y-89685104D02*
X142415740Y-89587104D01*
X143935100Y-89195104D02*
X144033100Y-89097104D01*
X145552446Y-90175104D02*
X145650446Y-90077104D01*
X142415754Y-90567104D02*
X142415754Y-90273104D01*
X142513754Y-91155104D02*
X145552460Y-91155104D01*
X112487100Y-83077000D02*
X112487100Y-89898026D01*
X142513754Y-91645104D02*
X142415754Y-91547104D01*
X112487100Y-89898026D02*
X114111674Y-91522600D01*
X114111674Y-91522600D02*
X117123497Y-91522600D01*
X142415740Y-89587104D02*
X142415740Y-89293104D01*
X142513740Y-89195104D02*
X143935100Y-89195104D01*
X145650460Y-90763104D02*
X145552460Y-90665104D01*
X143868700Y-88424400D02*
X140908900Y-88424400D01*
X144033100Y-92297200D02*
X144033100Y-91743104D01*
X143935100Y-91645104D02*
X142513754Y-91645104D01*
X142415754Y-90273104D02*
X142513754Y-90175104D01*
X144033100Y-88588800D02*
X143880719Y-88436419D01*
X145552460Y-91155104D02*
X145650460Y-91057104D01*
X145552446Y-89685104D02*
X142513740Y-89685104D01*
X142513754Y-90665104D02*
X142415754Y-90567104D01*
X144033100Y-89097104D02*
X144033100Y-88588800D01*
X144033100Y-91743104D02*
X143935100Y-91645104D01*
X142513754Y-90175104D02*
X145552446Y-90175104D01*
X145650446Y-90077104D02*
X145650446Y-89783104D01*
X145552460Y-90665104D02*
X142513754Y-90665104D01*
X142415754Y-91547104D02*
X142415754Y-91253104D01*
X143880719Y-88436419D02*
X143868700Y-88424400D01*
X145650460Y-91057104D02*
X145650460Y-90763104D01*
X118976897Y-93376000D02*
X142954300Y-93376000D01*
X142415740Y-89293104D02*
X142513740Y-89195104D01*
X142415754Y-91253104D02*
X142513754Y-91155104D01*
X117123497Y-91522600D02*
X118976897Y-93376000D01*
X142954300Y-93376000D02*
X144033100Y-92297200D01*
%TO.N,/MCU/SDRAM_DQ4*%
X134500298Y-83320528D02*
X134500298Y-85068672D01*
X127460298Y-83320528D02*
X127460298Y-85068672D01*
X127108298Y-85156672D02*
X127020298Y-85068672D01*
X129308298Y-83232528D02*
X129220298Y-83320528D01*
X128780298Y-85068660D02*
X128780298Y-83320528D01*
X135292298Y-85156660D02*
X135028298Y-85156660D01*
X131068298Y-83232528D02*
X130980298Y-83320528D01*
X134852298Y-83232528D02*
X134588298Y-83232528D01*
X133620298Y-85068672D02*
X133532298Y-85156672D01*
X130540298Y-85068660D02*
X130540298Y-83320528D01*
X135908298Y-85156660D02*
X135820298Y-85068660D01*
X128340298Y-83320528D02*
X128340298Y-85068672D01*
X126228298Y-85156684D02*
X126140298Y-85068684D01*
X127548298Y-83232528D02*
X127460298Y-83320528D01*
X134940298Y-85068660D02*
X134940298Y-83320528D01*
X127460298Y-85068672D02*
X127372298Y-85156672D01*
X132388298Y-85156672D02*
X132300298Y-85068672D01*
X131948298Y-83232528D02*
X131860298Y-83320528D01*
X131860298Y-85068672D02*
X131772298Y-85156672D01*
X126052298Y-84194600D02*
X125437160Y-84194600D01*
X127812298Y-83232528D02*
X127548298Y-83232528D01*
X133620298Y-83320528D02*
X133620298Y-85068672D01*
X132828298Y-83232540D02*
X132740298Y-83320540D01*
X131332298Y-83232528D02*
X131068298Y-83232528D01*
X127900298Y-83320528D02*
X127812298Y-83232528D01*
X130100298Y-83320528D02*
X130100298Y-85068672D01*
X130980298Y-85068660D02*
X130892298Y-85156660D01*
X128252298Y-85156672D02*
X127988298Y-85156672D01*
X137886300Y-84194600D02*
X136348298Y-84194600D01*
X129572298Y-83232528D02*
X129308298Y-83232528D01*
X129660298Y-85068672D02*
X129660298Y-83320528D01*
X130892298Y-85156660D02*
X130628298Y-85156660D01*
X130980298Y-83320528D02*
X130980298Y-85068660D01*
X136172298Y-85156660D02*
X135908298Y-85156660D01*
X136260298Y-84282600D02*
X136260298Y-85068660D01*
X138340900Y-89424400D02*
X138114900Y-89198400D01*
X135380298Y-85068660D02*
X135292298Y-85156660D01*
X130012298Y-85156672D02*
X129748298Y-85156672D01*
X129748298Y-85156672D02*
X129660298Y-85068672D01*
X134500298Y-85068672D02*
X134412298Y-85156672D01*
X133268298Y-85156672D02*
X133180298Y-85068672D01*
X134148298Y-85156672D02*
X134060298Y-85068672D01*
X135732298Y-83232540D02*
X135468298Y-83232540D01*
X136260298Y-85068660D02*
X136172298Y-85156660D01*
X133180298Y-85068672D02*
X133180298Y-83320540D01*
X133532298Y-85156672D02*
X133268298Y-85156672D01*
X135820298Y-83320540D02*
X135732298Y-83232540D01*
X138114900Y-89198400D02*
X138114900Y-84423200D01*
X131772298Y-85156672D02*
X131508298Y-85156672D01*
X133972298Y-83232528D02*
X133708298Y-83232528D01*
X138114900Y-84423200D02*
X137886300Y-84194600D01*
X129220298Y-83320528D02*
X129220298Y-85068660D01*
X126580298Y-83320540D02*
X126580298Y-85068684D01*
X128780298Y-83320528D02*
X128692298Y-83232528D01*
X130100298Y-85068672D02*
X130012298Y-85156672D01*
X127372298Y-85156672D02*
X127108298Y-85156672D01*
X126492298Y-85156684D02*
X126228298Y-85156684D01*
X126580298Y-85068684D02*
X126492298Y-85156684D01*
X128428298Y-83232528D02*
X128340298Y-83320528D01*
X128340298Y-85068672D02*
X128252298Y-85156672D01*
X130540298Y-83320528D02*
X130452298Y-83232528D01*
X126932298Y-83232540D02*
X126668298Y-83232540D01*
X125437160Y-84194600D02*
X124043300Y-84194600D01*
X134940298Y-83320528D02*
X134852298Y-83232528D01*
X134060298Y-85068672D02*
X134060298Y-83320528D01*
X126668298Y-83232540D02*
X126580298Y-83320540D01*
X129660298Y-83320528D02*
X129572298Y-83232528D01*
X131508298Y-85156672D02*
X131420298Y-85068672D01*
X132652298Y-85156672D02*
X132388298Y-85156672D01*
X134412298Y-85156672D02*
X134148298Y-85156672D01*
X131860298Y-83320528D02*
X131860298Y-85068672D01*
X130452298Y-83232528D02*
X130188298Y-83232528D01*
X132212298Y-83232528D02*
X131948298Y-83232528D01*
X135820298Y-85068660D02*
X135820298Y-83320540D01*
X132300298Y-83320528D02*
X132212298Y-83232528D01*
X132300298Y-85068672D02*
X132300298Y-83320528D01*
X136348298Y-84194600D02*
X136260298Y-84282600D01*
X134588298Y-83232528D02*
X134500298Y-83320528D01*
X129132298Y-85156660D02*
X128868298Y-85156660D01*
X134060298Y-83320528D02*
X133972298Y-83232528D01*
X127020298Y-83320540D02*
X126932298Y-83232540D01*
X133092298Y-83232540D02*
X132828298Y-83232540D01*
X123687100Y-83838400D02*
X123687100Y-83077000D01*
X129220298Y-85068660D02*
X129132298Y-85156660D01*
X127020298Y-85068672D02*
X127020298Y-83320540D01*
X130628298Y-85156660D02*
X130540298Y-85068660D01*
X135028298Y-85156660D02*
X134940298Y-85068660D01*
X127988298Y-85156672D02*
X127900298Y-85068672D01*
X138673700Y-89424400D02*
X138340900Y-89424400D01*
X133180298Y-83320540D02*
X133092298Y-83232540D01*
X128868298Y-85156660D02*
X128780298Y-85068660D01*
X130188298Y-83232528D02*
X130100298Y-83320528D01*
X132740298Y-83320540D02*
X132740298Y-85068672D01*
X126140298Y-85068684D02*
X126140298Y-84282600D01*
X131420298Y-85068672D02*
X131420298Y-83320528D01*
X132740298Y-85068672D02*
X132652298Y-85156672D01*
X124043300Y-84194600D02*
X123687100Y-83838400D01*
X131420298Y-83320528D02*
X131332298Y-83232528D01*
X126140298Y-84282600D02*
X126052298Y-84194600D01*
X135468298Y-83232540D02*
X135380298Y-83320540D01*
X127900298Y-85068672D02*
X127900298Y-83320528D01*
X133708298Y-83232528D02*
X133620298Y-83320528D01*
X128692298Y-83232528D02*
X128428298Y-83232528D01*
X135380298Y-83320540D02*
X135380298Y-85068660D01*
%TO.N,/MCU/SDRAM_DQ2*%
X153865142Y-92395572D02*
X153865142Y-92265464D01*
X156470056Y-92913237D02*
X155491487Y-93891809D01*
X155168980Y-91612161D02*
X154190411Y-92590733D01*
X159603300Y-93924400D02*
X159001433Y-93924400D01*
X155494250Y-91807323D02*
X155299088Y-91612162D01*
X154840949Y-93241271D02*
X154710841Y-93241271D01*
X155816756Y-94347186D02*
X155816756Y-94217078D01*
X150423585Y-89796553D02*
X150493585Y-89866553D01*
X157250702Y-93563776D02*
X157120594Y-93563775D01*
X151403585Y-89866553D02*
X151473585Y-89796553D01*
X152999300Y-89566553D02*
X152307049Y-89566553D01*
X154190411Y-92590733D02*
X154060303Y-92590733D01*
X155949626Y-92262700D02*
X155819518Y-92262699D01*
X153539873Y-91940195D02*
X153409765Y-91940195D01*
X151123585Y-89796553D02*
X151193585Y-89866553D01*
X156011917Y-94542347D02*
X155816756Y-94347186D01*
X154843712Y-91156785D02*
X154648550Y-90961624D01*
X150703585Y-89866553D02*
X150773585Y-89796553D01*
X151123585Y-89636553D02*
X151123585Y-89796553D01*
X150773585Y-89796553D02*
X150773585Y-89636553D01*
X153214604Y-91614926D02*
X154193174Y-90636355D01*
X150167347Y-89566553D02*
X150353585Y-89566553D01*
X154843712Y-91286893D02*
X154843712Y-91156785D01*
X150353585Y-89566553D02*
X150423585Y-89636553D01*
X152759227Y-91289657D02*
X152564066Y-91094496D01*
X155819518Y-92262699D02*
X154840949Y-93241271D01*
X157611326Y-93924400D02*
X157250702Y-93563776D01*
X153867904Y-90311085D02*
X152889335Y-91289657D01*
X153253479Y-89566553D02*
X152999300Y-89566553D01*
X150843585Y-89566553D02*
X151053585Y-89566553D01*
X130149600Y-78384400D02*
X138985194Y-78384400D01*
X156795326Y-93238507D02*
X156795326Y-93108399D01*
X152564066Y-91094496D02*
X152564066Y-90964388D01*
X156600164Y-92913238D02*
X156470056Y-92913237D01*
X153214604Y-91745034D02*
X153214604Y-91614926D01*
X153542636Y-89855709D02*
X153253479Y-89566553D01*
X158541433Y-95492308D02*
X158449433Y-95400308D01*
X158909433Y-95400308D02*
X158817433Y-95492308D01*
X138985194Y-78384400D02*
X150167347Y-89566553D01*
X150423585Y-89636553D02*
X150423585Y-89796553D01*
X155491487Y-93891809D02*
X155361379Y-93891809D01*
X155361379Y-93891809D02*
X155166218Y-93696648D01*
X154193174Y-90636355D02*
X154193174Y-90506247D01*
X151193585Y-89866553D02*
X151403585Y-89866553D01*
X153409765Y-91940195D02*
X153214604Y-91745034D01*
X158449433Y-95400308D02*
X158449433Y-94016400D01*
X156144788Y-92457861D02*
X155949626Y-92262700D01*
X126887100Y-79991000D02*
X128543000Y-79991000D01*
X154518442Y-90961623D02*
X153539873Y-91940195D01*
X155816756Y-94217078D02*
X156795326Y-93238507D01*
X154648550Y-90961624D02*
X154518442Y-90961623D01*
X155166218Y-93566540D02*
X156144788Y-92587969D01*
X159001433Y-93924400D02*
X158909433Y-94016400D01*
X153865142Y-92265464D02*
X154843712Y-91286893D01*
X126087100Y-80791000D02*
X126887100Y-79991000D01*
X151473585Y-89796553D02*
X151473585Y-89636553D01*
X154710841Y-93241271D02*
X154515680Y-93046110D01*
X152564066Y-90964388D02*
X153542636Y-89985817D01*
X153998012Y-90311086D02*
X153867904Y-90311085D01*
X156795326Y-93108399D02*
X156600164Y-92913238D01*
X153542636Y-89985817D02*
X153542636Y-89855709D01*
X156144788Y-92587969D02*
X156144788Y-92457861D01*
X155299088Y-91612162D02*
X155168980Y-91612161D01*
X154515680Y-92916002D02*
X155494250Y-91937431D01*
X155494250Y-91937431D02*
X155494250Y-91807323D01*
X154060303Y-92590733D02*
X153865142Y-92395572D01*
X158817433Y-95492308D02*
X158541433Y-95492308D01*
X158357433Y-93924400D02*
X157611326Y-93924400D01*
X150493585Y-89866553D02*
X150703585Y-89866553D01*
X152889335Y-91289657D02*
X152759227Y-91289657D01*
X154515680Y-93046110D02*
X154515680Y-92916002D01*
X151053585Y-89566553D02*
X151123585Y-89636553D01*
X158909433Y-94016400D02*
X158909433Y-95400308D01*
X158449433Y-94016400D02*
X158357433Y-93924400D01*
X157120594Y-93563775D02*
X156142025Y-94542347D01*
X151473585Y-89636553D02*
X151543585Y-89566553D01*
X151543585Y-89566553D02*
X152307049Y-89566553D01*
X150773585Y-89636553D02*
X150843585Y-89566553D01*
X155166218Y-93696648D02*
X155166218Y-93566540D01*
X128543000Y-79991000D02*
X130149600Y-78384400D01*
X154193174Y-90506247D02*
X153998012Y-90311086D01*
X156142025Y-94542347D02*
X156011917Y-94542347D01*
%TO.N,/MCU/SDRAM_DQ13*%
X143702900Y-103320800D02*
X143702900Y-99460900D01*
X143702900Y-99460900D02*
X143703800Y-99460000D01*
%TO.N,/MCU/SDRAM_DQ6*%
X129382972Y-90424400D02*
X129282972Y-90324400D01*
X135282972Y-88176664D02*
X135182972Y-88076664D01*
X132282972Y-90324400D02*
X132282972Y-88176664D01*
X133382972Y-90424400D02*
X133282972Y-90324400D01*
X134282972Y-88176664D02*
X134182972Y-88076664D01*
X129782972Y-90324400D02*
X129682972Y-90424400D01*
X128182972Y-88076645D02*
X127882972Y-88076645D01*
X130782972Y-88176664D02*
X130782972Y-90324400D01*
X137236200Y-87680800D02*
X137097200Y-87541800D01*
X130382972Y-90424400D02*
X130282972Y-90324400D01*
X131782972Y-90324400D02*
X131682972Y-90424400D01*
X132382972Y-90424400D02*
X132282972Y-90324400D01*
X127882972Y-88076645D02*
X127782972Y-88176645D01*
X138673700Y-90424400D02*
X138024000Y-90424400D01*
X129782972Y-88176664D02*
X129782972Y-90324400D01*
X129682972Y-90424400D02*
X129382972Y-90424400D01*
X132782972Y-90324400D02*
X132682972Y-90424400D01*
X128282972Y-90324400D02*
X128282972Y-88176645D01*
X121287100Y-85933548D02*
X121287100Y-83077000D01*
X132882972Y-88126668D02*
X132782972Y-88226668D01*
X130282972Y-90324400D02*
X130282972Y-88176664D01*
X130682972Y-90424400D02*
X130382972Y-90424400D01*
X131682972Y-90424400D02*
X131382972Y-90424400D01*
X133282972Y-88226668D02*
X133182972Y-88126668D01*
X134182972Y-88076664D02*
X133882972Y-88076664D01*
X129282972Y-90324400D02*
X129282972Y-88176664D01*
X132182972Y-88076664D02*
X131882972Y-88076664D01*
X130282972Y-88176664D02*
X130182972Y-88076664D01*
X136206800Y-87541800D02*
X135966200Y-87782400D01*
X134782972Y-90324400D02*
X134682972Y-90424400D01*
X132282972Y-88176664D02*
X132182972Y-88076664D01*
X128782972Y-88176664D02*
X128782972Y-90324400D01*
X135966200Y-90195400D02*
X135737200Y-90424400D01*
X134382972Y-90424400D02*
X134282972Y-90324400D01*
X126291484Y-90424400D02*
X125777952Y-90424400D01*
X130882972Y-88076664D02*
X130782972Y-88176664D01*
X127782972Y-90324400D02*
X127682972Y-90424400D01*
X134282972Y-90324400D02*
X134282972Y-88176664D01*
X135382972Y-90424400D02*
X135282972Y-90324400D01*
X134782972Y-88176664D02*
X134782972Y-90324400D01*
X132782972Y-88226668D02*
X132782972Y-90324400D01*
X130182972Y-88076664D02*
X129882972Y-88076664D01*
X133782972Y-90324400D02*
X133682972Y-90424400D01*
X131182972Y-88076664D02*
X130882972Y-88076664D01*
X135737200Y-90424400D02*
X135382972Y-90424400D01*
X128782972Y-90324400D02*
X128682972Y-90424400D01*
X128382972Y-90424400D02*
X128282972Y-90324400D01*
X133782972Y-88176664D02*
X133782972Y-90324400D01*
X135282972Y-90324400D02*
X135282972Y-88176664D01*
X128682972Y-90424400D02*
X128382972Y-90424400D01*
X125777952Y-90424400D02*
X121287100Y-85933548D01*
X130782972Y-90324400D02*
X130682972Y-90424400D01*
X134682972Y-90424400D02*
X134382972Y-90424400D01*
X135182972Y-88076664D02*
X134882972Y-88076664D01*
X131782972Y-88176664D02*
X131782972Y-90324400D01*
X133682972Y-90424400D02*
X133382972Y-90424400D01*
X137097200Y-87541800D02*
X136206800Y-87541800D01*
X134882972Y-88076664D02*
X134782972Y-88176664D01*
X133282972Y-90324400D02*
X133282972Y-88226668D01*
X127682972Y-90424400D02*
X126291484Y-90424400D01*
X129182972Y-88076664D02*
X128882972Y-88076664D01*
X127782972Y-88176645D02*
X127782972Y-90324400D01*
X132682972Y-90424400D02*
X132382972Y-90424400D01*
X135966200Y-87782400D02*
X135966200Y-90195400D01*
X131282972Y-90324400D02*
X131282972Y-88176664D01*
X128282972Y-88176645D02*
X128182972Y-88076645D01*
X128882972Y-88076664D02*
X128782972Y-88176664D01*
X129882972Y-88076664D02*
X129782972Y-88176664D01*
X129282972Y-88176664D02*
X129182972Y-88076664D01*
X131382972Y-90424400D02*
X131282972Y-90324400D01*
X133182972Y-88126668D02*
X132882972Y-88126668D01*
X131882972Y-88076664D02*
X131782972Y-88176664D01*
X138024000Y-90424400D02*
X137236200Y-89636600D01*
X131282972Y-88176664D02*
X131182972Y-88076664D01*
X133882972Y-88076664D02*
X133782972Y-88176664D01*
X137236200Y-89636600D02*
X137236200Y-87680800D01*
%TO.N,/MCU/SDRAM_ADD0*%
X151701578Y-82693600D02*
X151605578Y-82597600D01*
X150741578Y-83673108D02*
X150741578Y-82693600D01*
X147326376Y-82797600D02*
X146713871Y-82797600D01*
X154197578Y-82797600D02*
X154101578Y-82893600D01*
X153621578Y-82693600D02*
X153525578Y-82597600D01*
X151125578Y-83769108D02*
X150837578Y-83769108D01*
X154005578Y-83780228D02*
X153717578Y-83780228D01*
X152757578Y-83778055D02*
X152661578Y-83682055D01*
X152565578Y-82597600D02*
X152277578Y-82597600D01*
X152277578Y-82597600D02*
X152181578Y-82693600D01*
X150261578Y-82693600D02*
X150261578Y-83658850D01*
X149877578Y-83754850D02*
X149781578Y-83658850D01*
X150357578Y-82597600D02*
X150261578Y-82693600D01*
X154701100Y-80551493D02*
X154701100Y-82619800D01*
X149685578Y-82590350D02*
X149397578Y-82590350D01*
X150261578Y-83658850D02*
X150165578Y-83754850D01*
X153141578Y-83682055D02*
X153045578Y-83778055D01*
X153525578Y-82597600D02*
X153237578Y-82597600D01*
X153717578Y-83780228D02*
X153621578Y-83684228D01*
X153045578Y-83778055D02*
X152757578Y-83778055D01*
X152181578Y-83678796D02*
X152085578Y-83774796D01*
X154703800Y-80548793D02*
X154701100Y-80551493D01*
X146713871Y-82797600D02*
X140200671Y-76284400D01*
X149397578Y-82590350D02*
X149301578Y-82686350D01*
X149301578Y-82686350D02*
X149301578Y-82701600D01*
X152085578Y-83774796D02*
X151797578Y-83774796D01*
X151221578Y-83673108D02*
X151125578Y-83769108D01*
X140200671Y-76284400D02*
X116193700Y-76284400D01*
X150645578Y-82597600D02*
X150357578Y-82597600D01*
X152661578Y-82693600D02*
X152565578Y-82597600D01*
X152661578Y-83682055D02*
X152661578Y-82693600D01*
X149205578Y-82797600D02*
X147326376Y-82797600D01*
X154701100Y-82619800D02*
X154523300Y-82797600D01*
X154101578Y-83684228D02*
X154005578Y-83780228D01*
X151221578Y-82693600D02*
X151221578Y-83673108D01*
X150837578Y-83769108D02*
X150741578Y-83673108D01*
X150165578Y-83754850D02*
X149877578Y-83754850D01*
X150741578Y-82693600D02*
X150645578Y-82597600D01*
X151701578Y-83678796D02*
X151701578Y-82693600D01*
X149301578Y-82701600D02*
X149205578Y-82797600D01*
X149781578Y-83658850D02*
X149781578Y-82686350D01*
X116193700Y-76284400D02*
X111687100Y-80791000D01*
X154523300Y-82797600D02*
X154197578Y-82797600D01*
X153141578Y-82693600D02*
X153141578Y-83682055D01*
X154101578Y-82893600D02*
X154101578Y-83684228D01*
X153621578Y-83684228D02*
X153621578Y-82693600D01*
X151797578Y-83774796D02*
X151701578Y-83678796D01*
X151605578Y-82597600D02*
X151317578Y-82597600D01*
X153237578Y-82597600D02*
X153141578Y-82693600D01*
X151317578Y-82597600D02*
X151221578Y-82693600D01*
X152181578Y-82693600D02*
X152181578Y-83678796D01*
X149781578Y-82686350D02*
X149685578Y-82590350D01*
%TO.N,/MCU/SDRAM_DQ0*%
X147773800Y-94634063D02*
X147703800Y-94564063D01*
X149476440Y-93934063D02*
X147773800Y-93934063D01*
X147703800Y-97224800D02*
X147703800Y-95754063D01*
X149546453Y-92814063D02*
X149546453Y-92604063D01*
X147773800Y-91484063D02*
X149476440Y-91484063D01*
X149276450Y-89734063D02*
X147773800Y-89734063D01*
X147773800Y-89734063D02*
X147703800Y-89664063D01*
X149546453Y-92604063D02*
X149476453Y-92534063D01*
X149476440Y-93234063D02*
X147773800Y-93234063D01*
X149476440Y-91134063D02*
X147773800Y-91134063D01*
X147773800Y-90434063D02*
X147703800Y-90364063D01*
X149546440Y-93514063D02*
X149546440Y-93304063D01*
X147703800Y-95054063D02*
X147773800Y-94984063D01*
X149476440Y-90784063D02*
X149546440Y-90714063D01*
X149476440Y-94284063D02*
X149546440Y-94214063D01*
X147703800Y-94564063D02*
X147703800Y-94354063D01*
X147773800Y-93934063D02*
X147703800Y-93864063D01*
X149546453Y-95614063D02*
X149546453Y-95404063D01*
X149476453Y-94634063D02*
X147773800Y-94634063D01*
X149546440Y-94004063D02*
X149476440Y-93934063D01*
X147703800Y-90154063D02*
X147773800Y-90084063D01*
X147703800Y-88092955D02*
X140401845Y-80791000D01*
X147773800Y-93584063D02*
X149476440Y-93584063D01*
X140401845Y-80791000D02*
X128487100Y-80791000D01*
X147773800Y-95334063D02*
X147703800Y-95264063D01*
X149546440Y-90504063D02*
X149476440Y-90434063D01*
X147773800Y-92534063D02*
X147703800Y-92464063D01*
X147703800Y-93864063D02*
X147703800Y-93654063D01*
X149546440Y-93304063D02*
X149476440Y-93234063D01*
X149476453Y-92534063D02*
X147773800Y-92534063D01*
X147773800Y-92884063D02*
X149476453Y-92884063D01*
X147703800Y-90854063D02*
X147773800Y-90784063D01*
X149546453Y-94914063D02*
X149546453Y-94704063D01*
X147773800Y-93234063D02*
X147703800Y-93164063D01*
X147703800Y-95264063D02*
X147703800Y-95054063D01*
X147703800Y-93654063D02*
X147773800Y-93584063D01*
X149346450Y-90014063D02*
X149346450Y-89804063D01*
X149546440Y-92114063D02*
X149546440Y-91904063D01*
X149546440Y-91904063D02*
X149476440Y-91834063D01*
X147703800Y-95754063D02*
X147773800Y-95684063D01*
X149476440Y-91484063D02*
X149546440Y-91414063D01*
X149546453Y-94704063D02*
X149476453Y-94634063D01*
X147703800Y-88887977D02*
X147703800Y-88092955D01*
X147773800Y-90784063D02*
X149476440Y-90784063D01*
X147703800Y-89664063D02*
X147703800Y-88887977D01*
X149476453Y-95334063D02*
X147773800Y-95334063D01*
X149346450Y-89804063D02*
X149276450Y-89734063D01*
X149476440Y-92184063D02*
X149546440Y-92114063D01*
X149476453Y-92884063D02*
X149546453Y-92814063D01*
X149476453Y-95684063D02*
X149546453Y-95614063D01*
X147703800Y-92954063D02*
X147773800Y-92884063D01*
X147703800Y-91764063D02*
X147703800Y-91554063D01*
X147703800Y-90364063D02*
X147703800Y-90154063D01*
X149546440Y-91414063D02*
X149546440Y-91204063D01*
X147703800Y-91554063D02*
X147773800Y-91484063D01*
X149476440Y-91834063D02*
X147773800Y-91834063D01*
X149546440Y-90714063D02*
X149546440Y-90504063D01*
X147773800Y-94284063D02*
X149476440Y-94284063D01*
X147773800Y-92184063D02*
X149476440Y-92184063D01*
X147703800Y-93164063D02*
X147703800Y-92954063D01*
X147703800Y-92254063D02*
X147773800Y-92184063D01*
X147773800Y-91834063D02*
X147703800Y-91764063D01*
X147773800Y-91134063D02*
X147703800Y-91064063D01*
X149476440Y-93584063D02*
X149546440Y-93514063D01*
X149546440Y-91204063D02*
X149476440Y-91134063D01*
X147703800Y-91064063D02*
X147703800Y-90854063D01*
X149546440Y-94214063D02*
X149546440Y-94004063D01*
X147703800Y-92464063D02*
X147703800Y-92254063D01*
X147773800Y-95684063D02*
X149476453Y-95684063D01*
X149476453Y-94984063D02*
X149546453Y-94914063D01*
X147773800Y-90084063D02*
X149276450Y-90084063D01*
X147703800Y-94354063D02*
X147773800Y-94284063D01*
X147773800Y-94984063D02*
X149476453Y-94984063D01*
X149276450Y-90084063D02*
X149346450Y-90014063D01*
X149476440Y-90434063D02*
X147773800Y-90434063D01*
X149546453Y-95404063D02*
X149476453Y-95334063D01*
%TO.N,/MCU/SDRAM_ADD3*%
X151696278Y-79302062D02*
X151616278Y-79222062D01*
X153202500Y-78454200D02*
X153202500Y-78835200D01*
X150896278Y-79352058D02*
X150816278Y-79272058D01*
X149616278Y-77403942D02*
X149616278Y-78933000D01*
X152496278Y-79013000D02*
X152416278Y-78933000D01*
X150336278Y-79302047D02*
X150096278Y-79302047D01*
X150496278Y-77473952D02*
X150416278Y-77553952D01*
X150816278Y-77553952D02*
X150736278Y-77473952D01*
X152016278Y-79222062D02*
X151936278Y-79302062D01*
X149536278Y-79013000D02*
X145386001Y-79013000D01*
X151536278Y-77423943D02*
X151296278Y-77423943D01*
X150416278Y-79222047D02*
X150336278Y-79302047D01*
X152416278Y-78933000D02*
X152416278Y-77403942D01*
X150016278Y-77403942D02*
X149936278Y-77323942D01*
X150096278Y-79302047D02*
X150016278Y-79222047D01*
X151216278Y-79272058D02*
X151136278Y-79352058D01*
X150816278Y-79272058D02*
X150816278Y-77553952D01*
X151136278Y-79352058D02*
X150896278Y-79352058D01*
X150416278Y-77553952D02*
X150416278Y-79222047D01*
X152336278Y-77323942D02*
X152096278Y-77323942D01*
X152016278Y-77403942D02*
X152016278Y-79222062D01*
X149616278Y-78933000D02*
X149536278Y-79013000D01*
X145386001Y-79013000D02*
X144414193Y-79013000D01*
X150736278Y-77473952D02*
X150496278Y-77473952D01*
X152096278Y-77323942D02*
X152016278Y-77403942D01*
X144414193Y-79013000D02*
X140635593Y-75234400D01*
X152416278Y-77403942D02*
X152336278Y-77323942D01*
X153202500Y-78835200D02*
X153024700Y-79013000D01*
X151296278Y-77423943D02*
X151216278Y-77503943D01*
X153024700Y-79013000D02*
X152496278Y-79013000D01*
X150016278Y-79222047D02*
X150016278Y-77403942D01*
X151936278Y-79302062D02*
X151696278Y-79302062D01*
X114843700Y-75234400D02*
X109287100Y-80791000D01*
X149936278Y-77323942D02*
X149696278Y-77323942D01*
X151616278Y-77503943D02*
X151536278Y-77423943D01*
X140635593Y-75234400D02*
X114843700Y-75234400D01*
X151216278Y-77503943D02*
X151216278Y-79272058D01*
X149696278Y-77323942D02*
X149616278Y-77403942D01*
X151616278Y-79222062D02*
X151616278Y-77503943D01*
%TO.N,/MCU/SDRAM_DQ5*%
X130840400Y-85756500D02*
X130738400Y-85654500D01*
X134818400Y-85654500D02*
X134512400Y-85654500D01*
X127678400Y-85654511D02*
X127372400Y-85654511D01*
X127270400Y-88627100D02*
X127168400Y-88729100D01*
X135940400Y-87089800D02*
X135940400Y-85756489D01*
X131860400Y-85756500D02*
X131758400Y-85654500D01*
X128800400Y-85756511D02*
X128698400Y-85654511D01*
X133390400Y-87577098D02*
X133288400Y-87679098D01*
X128290400Y-85756511D02*
X128290400Y-87527108D01*
X131452400Y-85654500D02*
X131350400Y-85756500D01*
X135940400Y-85756489D02*
X135838400Y-85654489D01*
X135328400Y-87629108D02*
X135022400Y-87629108D01*
X133390400Y-85756500D02*
X133390400Y-87577098D01*
X129922400Y-87629108D02*
X129820400Y-87527108D01*
X133492400Y-85654500D02*
X133390400Y-85756500D01*
X131860400Y-87527108D02*
X131860400Y-85756500D01*
X129820400Y-85756511D02*
X129718400Y-85654511D01*
X138318100Y-89924400D02*
X137764900Y-89371200D01*
X126760400Y-85756500D02*
X126658400Y-85654500D01*
X127780400Y-85756511D02*
X127678400Y-85654511D01*
X126862400Y-88729100D02*
X126760400Y-88627100D01*
X127168400Y-88729100D02*
X126862400Y-88729100D01*
X130330400Y-87527108D02*
X130228400Y-87629108D01*
X132982400Y-87679098D02*
X132880400Y-87577098D01*
X127780400Y-87527108D02*
X127780400Y-85756511D01*
X130432400Y-85654500D02*
X130330400Y-85756500D01*
X131350400Y-85756500D02*
X131350400Y-87527108D01*
X127882400Y-87629108D02*
X127780400Y-87527108D01*
X125638400Y-87191800D02*
X125110100Y-87191800D01*
X132268400Y-87629108D02*
X131962400Y-87629108D01*
X130738400Y-85654500D02*
X130432400Y-85654500D01*
X131350400Y-87527108D02*
X131248400Y-87629108D01*
X126148400Y-88729100D02*
X125842400Y-88729100D01*
X129718400Y-85654511D02*
X129412400Y-85654511D01*
X135430400Y-87527108D02*
X135328400Y-87629108D01*
X124803638Y-86885338D02*
X122087100Y-84168800D01*
X125740400Y-88627100D02*
X125740400Y-87293800D01*
X126250400Y-88627100D02*
X126148400Y-88729100D01*
X131962400Y-87629108D02*
X131860400Y-87527108D01*
X134920400Y-87527108D02*
X134920400Y-85756500D01*
X125740400Y-87293800D02*
X125638400Y-87191800D01*
X126352400Y-85654500D02*
X126250400Y-85756500D01*
X132880400Y-87577098D02*
X132880400Y-85756500D01*
X132880400Y-85756500D02*
X132778400Y-85654500D01*
X130942400Y-87629108D02*
X130840400Y-87527108D01*
X130840400Y-87527108D02*
X130840400Y-85756500D01*
X134308400Y-87629108D02*
X134002400Y-87629108D01*
X129820400Y-87527108D02*
X129820400Y-85756511D01*
X127372400Y-85654511D02*
X127270400Y-85756511D01*
X137454500Y-87191800D02*
X136042400Y-87191800D01*
X129208400Y-87629108D02*
X128902400Y-87629108D01*
X131758400Y-85654500D02*
X131452400Y-85654500D01*
X134512400Y-85654500D02*
X134410400Y-85756500D01*
X133798400Y-85654500D02*
X133492400Y-85654500D01*
X125110100Y-87191800D02*
X124803638Y-86885338D01*
X128290400Y-87527108D02*
X128188400Y-87629108D01*
X133900400Y-85756500D02*
X133798400Y-85654500D01*
X131248400Y-87629108D02*
X130942400Y-87629108D01*
X132778400Y-85654500D02*
X132472400Y-85654500D01*
X128902400Y-87629108D02*
X128800400Y-87527108D01*
X128800400Y-87527108D02*
X128800400Y-85756511D01*
X134920400Y-85756500D02*
X134818400Y-85654500D01*
X130330400Y-85756500D02*
X130330400Y-87527108D01*
X133288400Y-87679098D02*
X132982400Y-87679098D01*
X133900400Y-87527108D02*
X133900400Y-85756500D01*
X129310400Y-87527108D02*
X129208400Y-87629108D01*
X122087100Y-84168800D02*
X122087100Y-83077000D01*
X126760400Y-88627100D02*
X126760400Y-85756500D01*
X136042400Y-87191800D02*
X135940400Y-87089800D01*
X126250400Y-85756500D02*
X126250400Y-88627100D01*
X127270400Y-85756511D02*
X127270400Y-88627100D01*
X129412400Y-85654511D02*
X129310400Y-85756511D01*
X132472400Y-85654500D02*
X132370400Y-85756500D01*
X135838400Y-85654489D02*
X135532400Y-85654489D01*
X134002400Y-87629108D02*
X133900400Y-87527108D01*
X135022400Y-87629108D02*
X134920400Y-87527108D01*
X130228400Y-87629108D02*
X129922400Y-87629108D01*
X137764900Y-89371200D02*
X137764900Y-87502200D01*
X126658400Y-85654500D02*
X126352400Y-85654500D01*
X129310400Y-85756511D02*
X129310400Y-87527108D01*
X135430400Y-85756489D02*
X135430400Y-87527108D01*
X132370400Y-85756500D02*
X132370400Y-87527108D01*
X134410400Y-85756500D02*
X134410400Y-87527108D01*
X134410400Y-87527108D02*
X134308400Y-87629108D01*
X128392400Y-85654511D02*
X128290400Y-85756511D01*
X137764900Y-87502200D02*
X137454500Y-87191800D01*
X135532400Y-85654489D02*
X135430400Y-85756489D01*
X128188400Y-87629108D02*
X127882400Y-87629108D01*
X132370400Y-87527108D02*
X132268400Y-87629108D01*
X128698400Y-85654511D02*
X128392400Y-85654511D01*
X125842400Y-88729100D02*
X125740400Y-88627100D01*
%TO.N,/MCU/SDRAM_DQ7*%
X119947051Y-86994234D02*
X119696735Y-86743918D01*
X134781562Y-91924400D02*
X134667562Y-92038400D01*
X123868659Y-90748989D02*
X124654673Y-89962972D01*
X128283562Y-90986303D02*
X127941562Y-90986303D01*
X125489061Y-90630483D02*
X125238746Y-90380168D01*
X126782978Y-91924400D02*
X126073133Y-91214555D01*
X125071868Y-90380168D02*
X124285851Y-91166182D01*
X132387562Y-91100315D02*
X132387562Y-92748497D01*
X122450212Y-89497395D02*
X122199896Y-89247079D01*
X134097562Y-92748485D02*
X134097562Y-91100303D01*
X134667562Y-92748485D02*
X134553562Y-92862485D01*
X133983562Y-90986303D02*
X133641562Y-90986303D01*
X128853562Y-92862497D02*
X128511562Y-92862497D01*
X121317126Y-86458548D02*
X121066811Y-86208233D01*
X123820287Y-88961709D02*
X123569972Y-88711394D01*
X138673700Y-91924400D02*
X138326600Y-91924400D01*
X130791562Y-92862497D02*
X130677562Y-92748497D01*
X120482738Y-85624160D02*
X120198751Y-85340173D01*
X120531111Y-87578319D02*
X120531111Y-87411441D01*
X131817562Y-91100303D02*
X131703562Y-90986303D01*
X119696735Y-86577040D02*
X120482738Y-85791038D01*
X123569972Y-88711394D02*
X123403094Y-88711394D01*
X131931562Y-92862497D02*
X131817562Y-92748497D01*
X131361562Y-90986303D02*
X131247562Y-91100303D01*
X132387562Y-92748497D02*
X132273562Y-92862497D01*
X119687100Y-84828522D02*
X119687100Y-83077000D01*
X121365509Y-88412692D02*
X121365509Y-88245814D01*
X134097562Y-91100303D02*
X133983562Y-90986303D01*
X123403094Y-88711394D02*
X122617090Y-89497395D01*
X121734320Y-87042620D02*
X120948303Y-87828634D01*
X122199896Y-89080201D02*
X122985899Y-88294199D01*
X120948303Y-87828634D02*
X120781427Y-87828635D01*
X129537562Y-92748485D02*
X129537562Y-91100303D01*
X123820286Y-89128585D02*
X123820287Y-88961709D01*
X120781427Y-87828635D02*
X120531111Y-87578319D01*
X125120238Y-92000569D02*
X124953362Y-92000570D01*
X130221562Y-90986303D02*
X130107562Y-91100303D01*
X129993562Y-92862485D02*
X129651562Y-92862485D01*
X120198751Y-85340173D02*
X119687100Y-84828522D01*
X134553562Y-92862485D02*
X134211562Y-92862485D01*
X131247562Y-92748497D02*
X131133562Y-92862497D01*
X123284588Y-90331796D02*
X123034272Y-90081480D01*
X122985899Y-88294199D02*
X122985899Y-88127321D01*
X133527562Y-91100303D02*
X133527562Y-92748497D01*
X120113929Y-86994234D02*
X119947051Y-86994234D01*
X122568707Y-87877007D02*
X121782703Y-88663008D01*
X127827562Y-91100303D02*
X127827562Y-91810400D01*
X127827562Y-91810400D02*
X127713562Y-91924400D01*
X124654673Y-89962972D02*
X124654674Y-89796096D01*
X132957562Y-91100315D02*
X132843562Y-90986315D01*
X122199896Y-89247079D02*
X122199896Y-89080201D01*
X129423562Y-90986303D02*
X129081562Y-90986303D01*
X119696735Y-86743918D02*
X119696735Y-86577040D01*
X123868659Y-90915867D02*
X123868659Y-90748989D01*
X120899933Y-86208233D02*
X120113929Y-86994234D01*
X124703046Y-91750254D02*
X124703046Y-91583376D01*
X130677562Y-92748497D02*
X130677562Y-91100303D01*
X124237481Y-89545781D02*
X123451464Y-90331795D01*
X131817562Y-92748497D02*
X131817562Y-91100303D01*
X131703562Y-90986303D02*
X131361562Y-90986303D01*
X121901198Y-87042620D02*
X121734320Y-87042620D01*
X122151512Y-87292934D02*
X121901198Y-87042620D01*
X120482738Y-85791038D02*
X120482738Y-85624160D01*
X126073133Y-91214555D02*
X125906255Y-91214555D01*
X132501562Y-90986315D02*
X132387562Y-91100315D01*
X122735585Y-87877007D02*
X122568707Y-87877007D01*
X137225000Y-93026000D02*
X136180600Y-93026000D01*
X133641562Y-90986303D02*
X133527562Y-91100303D01*
X128967562Y-92748497D02*
X128853562Y-92862497D01*
X134211562Y-92862485D02*
X134097562Y-92748485D01*
X124285851Y-91166182D02*
X124118975Y-91166183D01*
X121615825Y-88663008D02*
X121365509Y-88412692D01*
X135661400Y-91924400D02*
X134781562Y-91924400D01*
X124703046Y-91583376D02*
X125489060Y-90797359D01*
X123034272Y-90081480D02*
X123034272Y-89914602D01*
X133413562Y-92862497D02*
X133071562Y-92862497D01*
X129651562Y-92862485D02*
X129537562Y-92748485D01*
X128397562Y-92748497D02*
X128397562Y-91100303D01*
X127941562Y-90986303D02*
X127827562Y-91100303D01*
X124953362Y-92000570D02*
X124703046Y-91750254D01*
X121365509Y-88245814D02*
X122151512Y-87459812D01*
X131133562Y-92862497D02*
X130791562Y-92862497D01*
X135813800Y-92659200D02*
X135813800Y-92076800D01*
X130563562Y-90986303D02*
X130221562Y-90986303D01*
X123034272Y-89914602D02*
X123820286Y-89128585D01*
X121782703Y-88663008D02*
X121615825Y-88663008D01*
X124654674Y-89796096D02*
X124404359Y-89545781D01*
X130107562Y-92748485D02*
X129993562Y-92862485D01*
X126999064Y-91924400D02*
X126782978Y-91924400D01*
X130677562Y-91100303D02*
X130563562Y-90986303D01*
X121066811Y-86208233D02*
X120899933Y-86208233D01*
X133527562Y-92748497D02*
X133413562Y-92862497D01*
X136180600Y-93026000D02*
X135813800Y-92659200D01*
X121317125Y-86625424D02*
X121317126Y-86458548D01*
X125906255Y-91214555D02*
X125120238Y-92000569D01*
X132273562Y-92862497D02*
X131931562Y-92862497D01*
X132957562Y-92748497D02*
X132957562Y-91100315D01*
X135813800Y-92076800D02*
X135661400Y-91924400D01*
X129537562Y-91100303D02*
X129423562Y-90986303D01*
X128397562Y-91100303D02*
X128283562Y-90986303D01*
X122151512Y-87459812D02*
X122151512Y-87292934D01*
X132843562Y-90986315D02*
X132501562Y-90986315D01*
X120531111Y-87411441D02*
X121317125Y-86625424D01*
X138326600Y-91924400D02*
X137225000Y-93026000D01*
X124118975Y-91166183D02*
X123868659Y-90915867D01*
X130107562Y-91100303D02*
X130107562Y-92748485D01*
X127713562Y-91924400D02*
X126999064Y-91924400D01*
X125489060Y-90797359D02*
X125489061Y-90630483D01*
X122617090Y-89497395D02*
X122450212Y-89497395D01*
X133071562Y-92862497D02*
X132957562Y-92748497D01*
X134667562Y-92038400D02*
X134667562Y-92748485D01*
X129081562Y-90986303D02*
X128967562Y-91100303D01*
X128967562Y-91100303D02*
X128967562Y-92748497D01*
X128511562Y-92862497D02*
X128397562Y-92748497D01*
X122985899Y-88127321D02*
X122735585Y-87877007D01*
X131247562Y-91100303D02*
X131247562Y-92748497D01*
X123451464Y-90331795D02*
X123284588Y-90331796D01*
X124404359Y-89545781D02*
X124237481Y-89545781D01*
X125238746Y-90380168D02*
X125071868Y-90380168D01*
%TO.N,/MCU/SDRAM_DQ1*%
X149896440Y-90673542D02*
X149966440Y-90603542D01*
X151479052Y-94453542D02*
X149966440Y-94453542D01*
X151479052Y-93753542D02*
X149966440Y-93753542D01*
X148203800Y-96843800D02*
X148737200Y-96310400D01*
X151479052Y-93403542D02*
X151549052Y-93333542D01*
X149966440Y-94103542D02*
X151479052Y-94103542D01*
X148331376Y-89116511D02*
X148331376Y-89215506D01*
X149896440Y-89790621D02*
X149466804Y-89360985D01*
X149896440Y-90183542D02*
X149896440Y-89858800D01*
X151549052Y-93823542D02*
X151479052Y-93753542D01*
X151549052Y-94733542D02*
X151549052Y-94523542D01*
X148232381Y-88621537D02*
X148331376Y-88621537D01*
X149896440Y-92773542D02*
X149966440Y-92703542D01*
X149896440Y-91373542D02*
X149966440Y-91303542D01*
X151479052Y-94103542D02*
X151549052Y-94033542D01*
X151549052Y-93333542D02*
X151549052Y-93123542D01*
X140446819Y-80341000D02*
X148232380Y-88126561D01*
X148737200Y-96310400D02*
X149621100Y-96310400D01*
X151549040Y-91933542D02*
X151549040Y-91723542D01*
X151549052Y-95223542D02*
X151479052Y-95153542D01*
X151549065Y-90323542D02*
X151479065Y-90253542D01*
X149966440Y-92353542D02*
X149896440Y-92283542D01*
X148479869Y-88473045D02*
X148578864Y-88473045D01*
X149966440Y-92703542D02*
X151479052Y-92703542D01*
X149966440Y-91303542D02*
X151479052Y-91303542D01*
X151549052Y-92423542D02*
X151479052Y-92353542D01*
X148083888Y-88374049D02*
X148083888Y-88473044D01*
X151479065Y-90253542D02*
X149966440Y-90253542D01*
X126887100Y-80791000D02*
X127337100Y-80341000D01*
X148331376Y-88621537D02*
X148479869Y-88473045D01*
X149966440Y-90253542D02*
X149896440Y-90183542D01*
X148083888Y-88473044D02*
X148232381Y-88621537D01*
X149896440Y-96035060D02*
X149896440Y-95573542D01*
X149966440Y-90603542D02*
X151479065Y-90603542D01*
X149621100Y-96310400D02*
X149896440Y-96035060D01*
X149966440Y-94453542D02*
X149896440Y-94383542D01*
X149896440Y-94173542D02*
X149966440Y-94103542D01*
X149896440Y-89858800D02*
X149896440Y-89790621D01*
X149896440Y-92983542D02*
X149896440Y-92773542D01*
X151479052Y-95153542D02*
X149966440Y-95153542D01*
X149896440Y-92073542D02*
X149966440Y-92003542D01*
X149896440Y-91583542D02*
X149896440Y-91373542D01*
X127337100Y-80341000D02*
X140446819Y-80341000D01*
X148974844Y-88968020D02*
X149073839Y-88968020D01*
X151479052Y-93053542D02*
X149966440Y-93053542D01*
X149896440Y-94383542D02*
X149896440Y-94173542D01*
X148727355Y-88621536D02*
X148727355Y-88720531D01*
X149073839Y-88968020D02*
X149466804Y-89360985D01*
X148479869Y-89363999D02*
X148578864Y-89363999D01*
X151479040Y-92003542D02*
X151549040Y-91933542D01*
X151549065Y-90533542D02*
X151549065Y-90323542D01*
X149966440Y-93053542D02*
X149896440Y-92983542D01*
X151549052Y-93123542D02*
X151479052Y-93053542D01*
X149966440Y-90953542D02*
X149896440Y-90883542D01*
X148578864Y-88473045D02*
X148727355Y-88621536D01*
X149966440Y-91653542D02*
X149896440Y-91583542D01*
X151549052Y-94033542D02*
X151549052Y-93823542D01*
X151479052Y-90953542D02*
X149966440Y-90953542D01*
X149896440Y-95573542D02*
X149966440Y-95503542D01*
X149966440Y-93403542D02*
X151479052Y-93403542D01*
X151479052Y-92703542D02*
X151549052Y-92633542D01*
X148727355Y-88720531D02*
X148331376Y-89116511D01*
X151479052Y-92353542D02*
X149966440Y-92353542D01*
X149896440Y-95083542D02*
X149896440Y-94873542D01*
X148578864Y-89363999D02*
X148974844Y-88968020D01*
X151549052Y-92633542D02*
X151549052Y-92423542D01*
X151479065Y-90603542D02*
X151549065Y-90533542D01*
X149966440Y-95153542D02*
X149896440Y-95083542D01*
X149966440Y-94803542D02*
X151479052Y-94803542D01*
X151549052Y-95433542D02*
X151549052Y-95223542D01*
X149966440Y-95503542D02*
X151479052Y-95503542D01*
X149966440Y-93753542D02*
X149896440Y-93683542D01*
X151479052Y-91303542D02*
X151549052Y-91233542D01*
X148331376Y-89215506D02*
X148479869Y-89363999D01*
X149896440Y-94873542D02*
X149966440Y-94803542D01*
X151479052Y-94803542D02*
X151549052Y-94733542D01*
X149896440Y-93683542D02*
X149896440Y-93473542D01*
X149896440Y-92283542D02*
X149896440Y-92073542D01*
X148232380Y-88225556D02*
X148083888Y-88374049D01*
X151549052Y-94523542D02*
X151479052Y-94453542D01*
X151549052Y-91233542D02*
X151549052Y-91023542D01*
X151479052Y-95503542D02*
X151549052Y-95433542D01*
X151479040Y-91653542D02*
X149966440Y-91653542D01*
X151549040Y-91723542D02*
X151479040Y-91653542D01*
X151549052Y-91023542D02*
X151479052Y-90953542D01*
X148232380Y-88126561D02*
X148232380Y-88225556D01*
X149966440Y-92003542D02*
X151479040Y-92003542D01*
X149896440Y-90883542D02*
X149896440Y-90673542D01*
X149896440Y-93473542D02*
X149966440Y-93403542D01*
%TO.N,/MCU/SDRAM_DQ3*%
X157040399Y-90582043D02*
X156873521Y-90582043D01*
X124487100Y-79373300D02*
X124487100Y-80816400D01*
X155621941Y-89330462D02*
X155621941Y-89163585D01*
X158794982Y-91864700D02*
X158676982Y-91982700D01*
X154066519Y-89884619D02*
X153398453Y-89216553D01*
X157606300Y-93424400D02*
X157153752Y-92971852D01*
X152050453Y-89098553D02*
X151932453Y-89216553D01*
X151342453Y-88106829D02*
X150988453Y-88106829D01*
X154900906Y-90719006D02*
X154650591Y-90468691D01*
X152640453Y-87724856D02*
X152522453Y-87606856D01*
X155067783Y-90719006D02*
X154900906Y-90719006D01*
X155621941Y-89163585D02*
X155371625Y-88913269D01*
X150988453Y-88106829D02*
X150870453Y-88224829D01*
X151460453Y-89098553D02*
X151460453Y-88224829D01*
X151460453Y-88224829D02*
X151342453Y-88106829D01*
X150752453Y-89216553D02*
X150312321Y-89216553D01*
X156873521Y-90582043D02*
X155902170Y-91553393D01*
X157153752Y-92971852D02*
X157153752Y-92804974D01*
X155204747Y-88913269D02*
X154233396Y-89884619D01*
X156456328Y-90164849D02*
X156456328Y-89997972D01*
X159984300Y-93424400D02*
X159384982Y-93424400D01*
X157877619Y-92081106D02*
X157877619Y-91914229D01*
X151932453Y-89216553D02*
X151578453Y-89216553D01*
X155902170Y-91553393D02*
X155735293Y-91553393D01*
X156319365Y-91970587D02*
X157290715Y-90999236D01*
X157877619Y-91914229D02*
X157627303Y-91663913D01*
X159148982Y-91864700D02*
X158794982Y-91864700D01*
X157153752Y-92804974D02*
X157877619Y-92081106D01*
X155484978Y-91303078D02*
X155484978Y-91136200D01*
X158676982Y-91982700D02*
X158676982Y-93306400D01*
X155484978Y-91136200D02*
X156456328Y-90164849D01*
X156569680Y-92387780D02*
X156319365Y-92137465D01*
X150870453Y-89098553D02*
X150752453Y-89216553D01*
X157290715Y-90999236D02*
X157290715Y-90832359D01*
X159266982Y-93306400D02*
X159266982Y-91982700D01*
X152050453Y-87724856D02*
X152050453Y-89098553D01*
X158676982Y-93306400D02*
X158558982Y-93424400D01*
X156039134Y-89747656D02*
X155067783Y-90719006D01*
X157290715Y-90832359D02*
X157040399Y-90582043D01*
X139130168Y-78034400D02*
X125826000Y-78034400D01*
X159266982Y-91982700D02*
X159148982Y-91864700D01*
X156319365Y-92137465D02*
X156319365Y-91970587D01*
X150312321Y-89216553D02*
X149050116Y-87954348D01*
X155371625Y-88913269D02*
X155204747Y-88913269D01*
X157627303Y-91663913D02*
X157460425Y-91663913D01*
X153398453Y-89216553D02*
X152758453Y-89216553D01*
X156456328Y-89997972D02*
X156206012Y-89747656D01*
X125826000Y-78034400D02*
X124487100Y-79373300D01*
X149050116Y-87954348D02*
X139130168Y-78034400D01*
X152522453Y-87606856D02*
X152168453Y-87606856D01*
X151578453Y-89216553D02*
X151460453Y-89098553D01*
X157460425Y-91663913D02*
X156736557Y-92387780D01*
X152640453Y-89098553D02*
X152640453Y-87724856D01*
X156206012Y-89747656D02*
X156039134Y-89747656D01*
X158558982Y-93424400D02*
X157606300Y-93424400D01*
X154233396Y-89884619D02*
X154066519Y-89884619D01*
X154650591Y-90468691D02*
X154650591Y-90301813D01*
X155735293Y-91553393D02*
X155484978Y-91303078D01*
X156736557Y-92387780D02*
X156569680Y-92387780D01*
X154650591Y-90301813D02*
X155621941Y-89330462D01*
X159384982Y-93424400D02*
X159266982Y-93306400D01*
X150870453Y-88224829D02*
X150870453Y-89098553D01*
X152758453Y-89216553D02*
X152640453Y-89098553D01*
X152168453Y-87606856D02*
X152050453Y-87724856D01*
%TO.N,/MCU/SDRAM_DQ14*%
X144203800Y-99739400D02*
X144203800Y-102216198D01*
%TO.N,/MCU/SDRAM_ADD5*%
X108487100Y-93911400D02*
X109235100Y-94659400D01*
X150410600Y-75730800D02*
X150252600Y-75888800D01*
X151200600Y-75730800D02*
X151200600Y-75640746D01*
X150568600Y-75482746D02*
X150410600Y-75640746D01*
X109235100Y-94659400D02*
X110098700Y-94659400D01*
X150410600Y-75640746D02*
X150410600Y-75730800D01*
X140925541Y-74534400D02*
X114412328Y-74534400D01*
X152203800Y-75888800D02*
X151358600Y-75888800D01*
X151042600Y-75482746D02*
X150568600Y-75482746D01*
X114412328Y-74534400D02*
X108487100Y-80459629D01*
X151200600Y-75640746D02*
X151042600Y-75482746D01*
X147258915Y-75888800D02*
X142279941Y-75888800D01*
X108487100Y-80459629D02*
X108487100Y-93911400D01*
X150252600Y-75888800D02*
X147258915Y-75888800D01*
X151358600Y-75888800D02*
X151200600Y-75730800D01*
X142279941Y-75888800D02*
X140925541Y-74534400D01*
%TO.N,/MCU/SDRAM_ADD2*%
X140490619Y-75584400D02*
X115293700Y-75584400D01*
X151667286Y-79719273D02*
X151301286Y-79719273D01*
X146299286Y-79841273D02*
X146299286Y-80745200D01*
X147397286Y-80867200D02*
X147031286Y-80867200D01*
X146421286Y-79719273D02*
X146299286Y-79841273D01*
X146909286Y-79841273D02*
X146787286Y-79719273D01*
X148617286Y-80867200D02*
X148251286Y-80867200D01*
X145773419Y-80867200D02*
X145136381Y-80230162D01*
X151789286Y-80745200D02*
X151789286Y-79841273D01*
X149959286Y-79841273D02*
X149959286Y-80745200D01*
X150081286Y-79719273D02*
X149959286Y-79841273D01*
X153532700Y-80867200D02*
X153131286Y-80867200D01*
X149837286Y-80867200D02*
X149471286Y-80867200D01*
X148129286Y-79841256D02*
X148007286Y-79719256D01*
X149349286Y-79841273D02*
X149227286Y-79719273D01*
X151911286Y-80867200D02*
X151789286Y-80745200D01*
X146787286Y-79719273D02*
X146421286Y-79719273D01*
X146909286Y-80745200D02*
X146909286Y-79841273D01*
X147519286Y-79841256D02*
X147519286Y-80745200D01*
X151057286Y-80867200D02*
X150691286Y-80867200D01*
X149227286Y-79719273D02*
X148861286Y-79719273D01*
X150569286Y-79841273D02*
X150447286Y-79719273D01*
X148739286Y-79841273D02*
X148739286Y-80745200D01*
X148007286Y-79719256D02*
X147641286Y-79719256D01*
X150569286Y-80745200D02*
X150569286Y-79841273D01*
X152277286Y-80867200D02*
X151911286Y-80867200D01*
X152399286Y-79841273D02*
X152399286Y-80745200D01*
X148861286Y-79719273D02*
X148739286Y-79841273D01*
X148739286Y-80745200D02*
X148617286Y-80867200D01*
X147641286Y-79719256D02*
X147519286Y-79841256D01*
X148251286Y-80867200D02*
X148129286Y-80745200D01*
X151179286Y-80745200D02*
X151057286Y-80867200D01*
X151179286Y-79841273D02*
X151179286Y-80745200D01*
X149959286Y-80745200D02*
X149837286Y-80867200D01*
X115293700Y-75584400D02*
X110087100Y-80791000D01*
X150447286Y-79719273D02*
X150081286Y-79719273D01*
X152399286Y-80745200D02*
X152277286Y-80867200D01*
X152887286Y-79719273D02*
X152521286Y-79719273D01*
X153685100Y-80714800D02*
X153532700Y-80867200D01*
X153685100Y-78124000D02*
X153685100Y-80714800D01*
X148129286Y-80745200D02*
X148129286Y-79841256D01*
X152521286Y-79719273D02*
X152399286Y-79841273D01*
X146177286Y-80867200D02*
X145773419Y-80867200D01*
X149349286Y-80745200D02*
X149349286Y-79841273D01*
X153009286Y-79841273D02*
X152887286Y-79719273D01*
X146299286Y-80745200D02*
X146177286Y-80867200D01*
X147519286Y-80745200D02*
X147397286Y-80867200D01*
X153131286Y-80867200D02*
X153009286Y-80745200D01*
X151789286Y-79841273D02*
X151667286Y-79719273D01*
X145136381Y-80230162D02*
X140490619Y-75584400D01*
X147031286Y-80867200D02*
X146909286Y-80745200D01*
X151301286Y-79719273D02*
X151179286Y-79841273D01*
X149471286Y-80867200D02*
X149349286Y-80745200D01*
X150691286Y-80867200D02*
X150569286Y-80745200D01*
X153009286Y-80745200D02*
X153009286Y-79841273D01*
%TO.N,/MCU/SDRAM_ADD1*%
X153734823Y-81217200D02*
X153628823Y-81323200D01*
X148434823Y-81217200D02*
X148328823Y-81323200D01*
X152144823Y-82209679D02*
X152038823Y-82103679D01*
X151084823Y-82209679D02*
X150978823Y-82103679D01*
X153628823Y-81323200D02*
X153628823Y-82103679D01*
X153098823Y-82103679D02*
X153098823Y-81323200D01*
X150024823Y-82209679D02*
X149918823Y-82103679D01*
X148964823Y-82209679D02*
X148858823Y-82103679D01*
X147162823Y-82209703D02*
X146844823Y-82209703D01*
X149282823Y-82209679D02*
X148964823Y-82209679D01*
X148858823Y-82103679D02*
X148858823Y-81323200D01*
X148328823Y-81323200D02*
X148328823Y-82103691D01*
X149494823Y-81217200D02*
X149388823Y-81323200D01*
X148328823Y-82103691D02*
X148222823Y-82209691D01*
X147904823Y-82209691D02*
X147798823Y-82103691D01*
X146738823Y-82103703D02*
X146738823Y-81323200D01*
X149388823Y-81323200D02*
X149388823Y-82103679D01*
X151932823Y-81217200D02*
X151614823Y-81217200D01*
X140345645Y-75934400D02*
X115743700Y-75934400D01*
X149388823Y-82103679D02*
X149282823Y-82209679D01*
X152038823Y-82103679D02*
X152038823Y-81323200D01*
X151508823Y-82103679D02*
X151402823Y-82209679D01*
X151508823Y-81323200D02*
X151508823Y-82103679D01*
X146738823Y-81323200D02*
X146632823Y-81217200D01*
X152568823Y-82103679D02*
X152462823Y-82209679D01*
X152674823Y-81217200D02*
X152568823Y-81323200D01*
X152992823Y-81217200D02*
X152674823Y-81217200D01*
X115743700Y-75934400D02*
X110887100Y-80791000D01*
X147268823Y-81323200D02*
X147268823Y-82103703D01*
X149918823Y-82103679D02*
X149918823Y-81323200D01*
X146632823Y-81217200D02*
X146204547Y-81217200D01*
X146844823Y-82209703D02*
X146738823Y-82103703D01*
X150872823Y-81217200D02*
X150554823Y-81217200D01*
X146204547Y-81217200D02*
X145628445Y-81217200D01*
X153204823Y-82209679D02*
X153098823Y-82103679D01*
X150342823Y-82209679D02*
X150024823Y-82209679D01*
X152568823Y-81323200D02*
X152568823Y-82103679D01*
X148752823Y-81217200D02*
X148434823Y-81217200D01*
X150554823Y-81217200D02*
X150448823Y-81323200D01*
X153628823Y-82103679D02*
X153522823Y-82209679D01*
X147798823Y-81323200D02*
X147692823Y-81217200D01*
X153098823Y-81323200D02*
X152992823Y-81217200D01*
X150448823Y-82103679D02*
X150342823Y-82209679D01*
X150448823Y-81323200D02*
X150448823Y-82103679D01*
X148858823Y-81323200D02*
X148752823Y-81217200D01*
X152038823Y-81323200D02*
X151932823Y-81217200D01*
X150978823Y-81323200D02*
X150872823Y-81217200D01*
X145628445Y-81217200D02*
X140345645Y-75934400D01*
X151614823Y-81217200D02*
X151508823Y-81323200D01*
X151402823Y-82209679D02*
X151084823Y-82209679D01*
X152462823Y-82209679D02*
X152144823Y-82209679D01*
X147692823Y-81217200D02*
X147374823Y-81217200D01*
X150978823Y-82103679D02*
X150978823Y-81323200D01*
X153522823Y-82209679D02*
X153204823Y-82209679D01*
X154203800Y-81044093D02*
X154030693Y-81217200D01*
X149812823Y-81217200D02*
X149494823Y-81217200D01*
X147268823Y-82103703D02*
X147162823Y-82209703D01*
X147374823Y-81217200D02*
X147268823Y-81323200D01*
X147798823Y-82103691D02*
X147798823Y-81323200D01*
X148222823Y-82209691D02*
X147904823Y-82209691D01*
X149918823Y-81323200D02*
X149812823Y-81217200D01*
X154030693Y-81217200D02*
X153734823Y-81217200D01*
%TO.N,/MCU/SDRAM_ADD4*%
X142267567Y-76371400D02*
X140780567Y-74884400D01*
X149256141Y-77069659D02*
X148692141Y-77069659D01*
X148504141Y-76559400D02*
X148316141Y-76371400D01*
X152389700Y-76371400D02*
X151512141Y-76371400D01*
X147564141Y-76881674D02*
X147376141Y-77069674D01*
X114557303Y-74884400D02*
X108837100Y-80604603D01*
X148692141Y-77069659D02*
X148504141Y-76881659D01*
X150572141Y-77069674D02*
X150384141Y-76881674D01*
X146624141Y-76559400D02*
X146436141Y-76371400D01*
X151324141Y-76881674D02*
X151136141Y-77069674D01*
X147752141Y-76371400D02*
X147564141Y-76559400D01*
X150384141Y-76881674D02*
X150384141Y-76559400D01*
X151324141Y-76559400D02*
X151324141Y-76881674D01*
X146436141Y-76371400D02*
X144255571Y-76371400D01*
X151136141Y-77069674D02*
X150572141Y-77069674D01*
X146624141Y-76881674D02*
X146624141Y-76559400D01*
X151512141Y-76371400D02*
X151324141Y-76559400D01*
X108837100Y-80604603D02*
X108837100Y-91848400D01*
X150384141Y-76559400D02*
X150196141Y-76371400D01*
X149444141Y-76881659D02*
X149256141Y-77069659D01*
X149632141Y-76371400D02*
X149444141Y-76559400D01*
X152703800Y-75507800D02*
X152703800Y-76057300D01*
X150196141Y-76371400D02*
X149632141Y-76371400D01*
X147564141Y-76559400D02*
X147564141Y-76881674D01*
X144255571Y-76371400D02*
X142267567Y-76371400D01*
X152703800Y-76057300D02*
X152389700Y-76371400D01*
X146812141Y-77069674D02*
X146624141Y-76881674D01*
X148316141Y-76371400D02*
X147752141Y-76371400D01*
X148504141Y-76881659D02*
X148504141Y-76559400D01*
X108837100Y-91848400D02*
X109285900Y-92297200D01*
X149444141Y-76559400D02*
X149444141Y-76881659D01*
X140780567Y-74884400D02*
X114557303Y-74884400D01*
X147376141Y-77069674D02*
X146812141Y-77069674D01*
%TO.N,/MCU/SD_DAT3*%
X168369400Y-102575000D02*
X166827200Y-102575000D01*
%TO.N,/MCU/SD_CLK*%
X161061400Y-92672226D02*
X161061400Y-97066426D01*
X170069400Y-101141629D02*
X170069400Y-102658201D01*
X152753800Y-86470402D02*
X154859576Y-86470402D01*
X169600771Y-100673000D02*
X170069400Y-101141629D01*
X170069400Y-102658201D02*
X166852600Y-105875000D01*
X161061400Y-97066426D02*
X164667974Y-100673000D01*
X164667974Y-100673000D02*
X169600771Y-100673000D01*
X154859576Y-86470402D02*
X161061400Y-92672226D01*
%TO.N,/MCU/SD_CMD*%
X152753800Y-87020400D02*
X154914600Y-87020400D01*
X164523000Y-101023000D02*
X169455797Y-101023000D01*
X169719400Y-101286603D02*
X169719400Y-102513226D01*
X169719400Y-102513226D02*
X168557626Y-103675000D01*
X160711400Y-92817200D02*
X160711400Y-97211400D01*
X168557626Y-103675000D02*
X166827200Y-103675000D01*
X160711400Y-97211400D02*
X164523000Y-101023000D01*
X169455797Y-101023000D02*
X169719400Y-101286603D01*
X154914600Y-87020400D02*
X160711400Y-92817200D01*
%TO.N,/MCU/~{NOR_CS}*%
X167259000Y-94919800D02*
X168605200Y-93573600D01*
X168605200Y-93573600D02*
X176081000Y-93573600D01*
X162229800Y-94919800D02*
X167259000Y-94919800D01*
%TO.N,/MCU/NOR_D3*%
X166811487Y-86765600D02*
X166703487Y-86873600D01*
X162776800Y-86424400D02*
X162229800Y-86424400D01*
X170591487Y-86765600D02*
X170591487Y-85982529D01*
X171563487Y-85874529D02*
X171239487Y-85874529D01*
X165839487Y-85874517D02*
X165731487Y-85982517D01*
X168323487Y-85874517D02*
X167999487Y-85874517D01*
X177351000Y-86080600D02*
X176558000Y-86873600D01*
X167351487Y-86765600D02*
X167351487Y-85982517D01*
X170051487Y-85982529D02*
X170051487Y-86765600D01*
X166703487Y-86873600D02*
X166379487Y-86873600D01*
X164090285Y-86873600D02*
X163226000Y-86873600D01*
X169511487Y-86765600D02*
X169511487Y-85982529D01*
X176558000Y-86873600D02*
X171779487Y-86873600D01*
X170159487Y-85874529D02*
X170051487Y-85982529D01*
X171239487Y-85874529D02*
X171131487Y-85982529D01*
X166163487Y-85874517D02*
X165839487Y-85874517D01*
X168863487Y-86873600D02*
X168539487Y-86873600D01*
X166271487Y-85982517D02*
X166163487Y-85874517D01*
X167243487Y-85874517D02*
X166919487Y-85874517D01*
X169511487Y-85982529D02*
X169403487Y-85874529D01*
X163226000Y-86873600D02*
X162776800Y-86424400D01*
X171671487Y-86765600D02*
X171671487Y-85982529D01*
X165731487Y-85982517D02*
X165731487Y-86765600D01*
X169079487Y-85874529D02*
X168971487Y-85982529D01*
X167351487Y-85982517D02*
X167243487Y-85874517D01*
X167999487Y-85874517D02*
X167891487Y-85982517D01*
X167783487Y-86873600D02*
X167459487Y-86873600D01*
X165731487Y-86765600D02*
X165623487Y-86873600D01*
X169619487Y-86873600D02*
X169511487Y-86765600D01*
X168971487Y-85982529D02*
X168971487Y-86765600D01*
X166271487Y-86765600D02*
X166271487Y-85982517D01*
X171671487Y-85982529D02*
X171563487Y-85874529D01*
X168431487Y-85982517D02*
X168323487Y-85874517D01*
X168431487Y-86765600D02*
X168431487Y-85982517D01*
X167459487Y-86873600D02*
X167351487Y-86765600D01*
X171779487Y-86873600D02*
X171671487Y-86765600D01*
X170051487Y-86765600D02*
X169943487Y-86873600D01*
X170591487Y-85982529D02*
X170483487Y-85874529D01*
X166919487Y-85874517D02*
X166811487Y-85982517D01*
X166811487Y-85982517D02*
X166811487Y-86765600D01*
X171131487Y-86765600D02*
X171023487Y-86873600D01*
X170483487Y-85874529D02*
X170159487Y-85874529D01*
X171131487Y-85982529D02*
X171131487Y-86765600D01*
X167891487Y-86765600D02*
X167783487Y-86873600D01*
X169403487Y-85874529D02*
X169079487Y-85874529D01*
X165623487Y-86873600D02*
X164090285Y-86873600D01*
X171023487Y-86873600D02*
X170699487Y-86873600D01*
X166379487Y-86873600D02*
X166271487Y-86765600D01*
X168539487Y-86873600D02*
X168431487Y-86765600D01*
X170699487Y-86873600D02*
X170591487Y-86765600D01*
X169943487Y-86873600D02*
X169619487Y-86873600D01*
X167891487Y-85982517D02*
X167891487Y-86765600D01*
X168971487Y-86765600D02*
X168863487Y-86873600D01*
%TO.N,/MCU/NOR_D2*%
X169799000Y-89052400D02*
X169429114Y-89052400D01*
X167761114Y-87973319D02*
X167483114Y-87695319D01*
X169151114Y-90431471D02*
X168873114Y-90709471D01*
X169429114Y-89052400D02*
X169151114Y-89330400D01*
X164981114Y-89330400D02*
X164703114Y-89052400D01*
X168873114Y-90709471D02*
X168039114Y-90709471D01*
X166093114Y-90709471D02*
X165259114Y-90709471D01*
X166649114Y-87695319D02*
X166371114Y-87973319D01*
X168039114Y-90709471D02*
X167761114Y-90431471D01*
X169151114Y-89330400D02*
X169151114Y-90431471D01*
X164981114Y-90431471D02*
X164981114Y-89330400D01*
X178621000Y-92176600D02*
X178067800Y-91623400D01*
X164703114Y-89052400D02*
X163525200Y-89052400D01*
X166371114Y-90431471D02*
X166093114Y-90709471D01*
X167483114Y-87695319D02*
X166649114Y-87695319D01*
X163525200Y-89052400D02*
X163137721Y-89439879D01*
X165259114Y-90709471D02*
X164981114Y-90431471D01*
X166371114Y-87973319D02*
X166371114Y-90431471D01*
X172370000Y-91623400D02*
X169799000Y-89052400D01*
X162661600Y-89916000D02*
X162229800Y-89916000D01*
X167761114Y-90431471D02*
X167761114Y-87973319D01*
X163137721Y-89439879D02*
X162661600Y-89916000D01*
X178067800Y-91623400D02*
X172370000Y-91623400D01*
%TO.N,/MCU/NOR_CLK*%
X152641200Y-85852000D02*
X160197800Y-85852000D01*
X177859000Y-83972400D02*
X178621000Y-84734400D01*
X160197800Y-85852000D02*
X162077400Y-83972400D01*
X162077400Y-83972400D02*
X177859000Y-83972400D01*
X150241000Y-88252200D02*
X152641200Y-85852000D01*
%TO.N,/MCU/NOR_D0*%
X170846658Y-88004776D02*
X170246658Y-88004776D01*
X171246658Y-87223600D02*
X171046658Y-87423600D01*
X170246658Y-88004776D02*
X170046658Y-87804776D01*
X170046658Y-87804776D02*
X170046658Y-87423600D01*
X169846658Y-87223600D02*
X168517895Y-87223600D01*
X161779800Y-91396400D02*
X163017200Y-92633800D01*
X178748000Y-87223600D02*
X171246658Y-87223600D01*
X179891000Y-86080600D02*
X178748000Y-87223600D01*
X171046658Y-87423600D02*
X171046658Y-87804776D01*
X171046658Y-87804776D02*
X170846658Y-88004776D01*
X161779800Y-88207000D02*
X161779800Y-91396400D01*
X162763200Y-87223600D02*
X161779800Y-88207000D01*
X170046658Y-87423600D02*
X169846658Y-87223600D01*
X168517895Y-87223600D02*
X162763200Y-87223600D01*
%TO.N,/MCU/NOR_D1*%
X170219335Y-91453499D02*
X169859335Y-91453499D01*
X170939335Y-92373301D02*
X170819335Y-92493301D01*
X167939335Y-92373301D02*
X167939335Y-91573499D01*
X166139335Y-92373301D02*
X166019335Y-92493301D01*
X170819335Y-92493301D02*
X170459335Y-92493301D01*
X165539335Y-92373301D02*
X165539335Y-91573518D01*
X169739335Y-91573499D02*
X169739335Y-92373301D01*
X164939335Y-91573518D02*
X164939335Y-91853400D01*
X171539335Y-92373301D02*
X171539335Y-91573499D01*
X169139335Y-92373301D02*
X169139335Y-91573499D01*
X169859335Y-91453499D02*
X169739335Y-91573499D01*
X167459335Y-91453499D02*
X167339335Y-91573499D01*
X164939335Y-91853400D02*
X164819335Y-91973400D01*
X166619335Y-91453499D02*
X166259335Y-91453499D01*
X172139335Y-92093400D02*
X172139335Y-92373301D01*
X166019335Y-92493301D02*
X165659335Y-92493301D01*
X167939335Y-91573499D02*
X167819335Y-91453499D01*
X172139335Y-92373301D02*
X172019335Y-92493301D01*
X165059335Y-91453518D02*
X164939335Y-91573518D01*
X170939335Y-91573499D02*
X170939335Y-92373301D01*
X167219335Y-92493301D02*
X166859335Y-92493301D01*
X167339335Y-91573499D02*
X167339335Y-92373301D01*
X169019335Y-91453499D02*
X168659335Y-91453499D01*
X170339335Y-92373301D02*
X170339335Y-91573499D01*
X168059335Y-92493301D02*
X167939335Y-92373301D01*
X166859335Y-92493301D02*
X166739335Y-92373301D01*
X167819335Y-91453499D02*
X167459335Y-91453499D01*
X177147800Y-91973400D02*
X172259335Y-91973400D01*
X165659335Y-92493301D02*
X165539335Y-92373301D01*
X166259335Y-91453499D02*
X166139335Y-91573499D01*
X170339335Y-91573499D02*
X170219335Y-91453499D01*
X164244273Y-91973400D02*
X163042600Y-91973400D01*
X168539335Y-92373301D02*
X168419335Y-92493301D01*
X171539335Y-91573499D02*
X171419335Y-91453499D01*
X169619335Y-92493301D02*
X169259335Y-92493301D01*
X171419335Y-91453499D02*
X171059335Y-91453499D01*
X170459335Y-92493301D02*
X170339335Y-92373301D01*
X165419335Y-91453518D02*
X165059335Y-91453518D01*
X166739335Y-92373301D02*
X166739335Y-91573499D01*
X172259335Y-91973400D02*
X172139335Y-92093400D01*
X171059335Y-91453499D02*
X170939335Y-91573499D01*
X168659335Y-91453499D02*
X168539335Y-91573499D01*
X168419335Y-92493301D02*
X168059335Y-92493301D01*
X169139335Y-91573499D02*
X169019335Y-91453499D01*
X168539335Y-91573499D02*
X168539335Y-92373301D01*
X169259335Y-92493301D02*
X169139335Y-92373301D01*
X164819335Y-91973400D02*
X164244273Y-91973400D01*
X166139335Y-91573499D02*
X166139335Y-92373301D01*
X172019335Y-92493301D02*
X171659335Y-92493301D01*
X166739335Y-91573499D02*
X166619335Y-91453499D01*
X177351000Y-92176600D02*
X177147800Y-91973400D01*
X169739335Y-92373301D02*
X169619335Y-92493301D01*
X165539335Y-91573518D02*
X165419335Y-91453518D01*
X167339335Y-92373301D02*
X167219335Y-92493301D01*
X171659335Y-92493301D02*
X171539335Y-92373301D01*
%TD*%
M02*
